{"glyphs":{"0":{"ha":625,"x_min":11,"x_max":618,"o":"m 256 -17 q 73 57 135 -17 q 11 268 11 131 q 37 452 11 369 q 110 593 63 535 q 226 683 158 651 q 376 715 293 715 q 557 642 496 715 q 618 432 618 569 q 593 247 618 329 q 521 106 568 164 q 406 15 474 47 q 256 -17 339 -17 m 308 249 q 426 275 390 249 q 461 354 461 301 q 318 444 461 444 q 203 418 239 444 q 167 339 167 392 q 308 249 167 249 z "},"1":{"ha":510,"x_min":-28,"x_max":499,"o":"m 432 556 q 412 496 424 531 q 390 416 400 461 q 374 315 381 371 q 367 188 367 258 q 410 122 367 122 q 432 122 421 122 q 451 124 443 122 q 469 125 461 124 l 474 117 l 439 -8 q 361 -4 399 -7 q 293 -1 329 -3 q 229 0 257 0 q 147 -2 192 0 q 63 -7 101 -4 q -2 -12 24 -10 q -28 -14 -28 -14 l -3 99 q 92 127 61 106 q 128 193 122 149 l 163 472 q 158 536 168 521 q 108 551 147 551 q 88 551 99 551 q 68 549 78 550 q 46 547 57 547 l 35 561 l 58 665 q 152 674 107 669 q 240 685 197 679 q 333 696 289 690 q 410 706 376 701 q 463 713 443 710 q 483 715 483 715 l 499 656 q 460 616 475 639 q 432 556 446 593 z "},"2":{"ha":665,"x_min":-33,"x_max":657,"o":"m -32 61 l 75 168 q 174 275 135 231 q 238 351 214 319 q 273 406 263 383 q 285 447 283 428 q 229 510 293 510 q 160 487 197 510 q 86 422 122 464 l 61 422 l 44 567 q 367 715 208 715 q 526 668 467 715 q 586 542 586 621 q 584 500 586 519 q 574 461 582 481 q 551 418 567 442 q 508 363 536 394 q 437 289 479 331 q 333 190 394 247 l 339 178 l 376 178 q 453 206 426 178 q 494 304 479 235 l 657 317 q 628 208 642 263 q 603 108 617 163 q 583 8 590 54 l 557 -17 q 365 -8 457 -12 q 204 -3 286 -6 q 69 0 122 0 l -33 -8 l -32 61 z "},"3":{"ha":607,"x_min":-36,"x_max":565,"o":"m 3 86 q 124 61 46 61 q 238 84 194 61 q 281 147 281 107 q 247 200 281 183 q 140 217 214 217 l 125 238 l 126 363 l 217 381 q 282 426 258 397 q 306 488 306 454 q 292 521 306 508 q 254 533 278 533 q 107 467 197 533 q 97 466 101 467 q 86 465 92 465 l 58 608 q 131 651 92 631 q 209 685 169 671 q 286 707 249 699 q 356 715 324 715 q 508 674 451 715 q 565 564 565 633 q 518 443 565 497 q 392 365 471 389 l 390 350 q 517 278 474 324 q 560 172 560 232 q 517 60 560 115 q 407 -37 475 6 q 253 -106 339 -81 q 81 -132 168 -132 q -13 -90 10 -132 q -32 54 -36 -49 l 3 86 z "},"4":{"ha":664,"x_min":-31,"x_max":643,"o":"m -12 215 l 389 713 q 395 714 392 713 q 401 715 399 715 l 596 699 l 539 240 l 631 240 l 643 219 l 610 63 q 585 64 599 64 q 556 64 574 64 q 519 65 539 64 q 514 3 517 32 q 510 -50 511 -26 q 507 -100 507 -76 l 490 -115 l 260 -132 l 249 -115 q 258 -56 253 -87 q 268 4 263 -29 q 279 72 274 38 q 117 76 199 75 q -31 76 36 76 l -12 215 m 176 240 l 301 240 l 324 417 l 308 417 l 176 240 z "},"5":{"ha":569,"x_min":-64,"x_max":599,"o":"m 532 208 q 491 82 532 143 q 383 -26 450 21 q 231 -103 317 -74 q 56 -132 146 -132 q -39 -90 -14 -132 q -57 54 -64 -49 l -22 86 q 99 61 24 61 q 210 85 167 61 q 254 146 254 110 q 207 202 254 182 q 44 235 160 222 l 33 250 q 67 399 51 325 q 93 533 82 474 q 117 665 107 603 l 128 676 l 397 685 q 454 697 435 686 q 489 740 474 708 l 599 747 l 529 499 l 499 472 q 431 478 467 475 q 356 482 399 481 q 263 483 313 483 l 243 411 q 465 339 397 386 q 532 208 532 292 z "},"6":{"ha":639,"x_min":11,"x_max":621,"o":"m 617 710 q 524 664 571 692 q 435 603 483 640 q 344 513 388 565 l 350 497 l 428 526 q 570 470 519 526 q 621 318 621 414 q 595 180 621 242 q 523 74 569 118 q 410 7 476 31 q 261 -17 343 -17 q 77 55 143 -17 q 11 249 11 126 q 35 404 11 333 q 99 532 60 475 q 189 633 139 589 q 292 711 239 678 q 572 832 415 789 l 589 822 l 617 710 m 329 360 q 286 352 306 360 q 253 336 267 344 q 244 292 249 313 q 240 244 240 272 q 300 146 240 146 q 366 180 349 146 q 383 276 383 214 q 329 360 383 360 z "},"7":{"ha":588,"x_min":17,"x_max":625,"o":"m 226 -132 l 63 -79 l 50 -40 l 375 500 l 256 488 q 207 479 226 485 q 174 461 188 474 q 151 428 161 449 q 132 374 142 407 l 17 365 q 40 476 28 419 q 63 583 51 525 q 83 697 74 642 l 93 704 q 143 701 117 703 q 196 699 167 700 q 257 699 225 699 l 558 699 l 625 601 q 540 448 575 513 q 475 325 506 383 q 413 206 444 267 q 342 67 382 146 l 265 -132 l 226 -132 z "},"8":{"ha":636,"x_min":4,"x_max":635,"o":"m 4 172 q 17 245 4 214 q 51 301 31 276 q 99 342 72 325 q 151 369 125 358 q 88 447 114 401 q 63 557 63 493 q 90 666 63 615 q 163 753 117 717 q 269 811 208 790 q 399 832 331 832 q 493 817 450 832 q 567 778 536 803 q 617 718 599 753 q 635 644 635 683 q 624 577 635 607 q 594 524 613 547 q 552 483 575 500 q 506 454 529 467 q 570 385 543 426 q 597 281 597 344 q 570 163 597 218 q 497 69 543 108 q 389 6 451 29 q 256 -17 326 -17 q 153 -3 199 -17 q 74 36 107 11 q 22 96 40 61 q 4 172 4 131 m 285 133 q 340 153 321 133 q 360 204 360 172 q 326 258 360 235 q 246 308 292 281 q 214 215 214 265 q 233 156 214 179 q 285 133 253 133 m 299 606 q 325 553 299 574 q 392 514 351 533 q 415 556 406 533 q 424 606 424 578 q 408 653 424 636 q 365 671 393 671 q 317 652 335 671 q 299 606 299 633 z "},"9":{"ha":639,"x_min":22,"x_max":633,"o":"m 28 -11 q 121 35 74 7 q 208 96 161 58 q 299 186 256 133 l 293 201 l 215 172 q 74 228 125 172 q 22 381 22 285 q 48 519 22 457 q 120 624 74 581 q 233 692 167 668 q 382 715 300 715 q 567 643 500 715 q 633 450 633 571 q 609 294 633 364 q 545 167 585 224 q 456 65 506 110 q 353 -12 406 21 q 72 -133 229 -90 l 56 -124 l 28 -11 m 314 339 q 357 347 338 339 q 389 361 376 354 q 403 454 403 408 q 344 553 403 553 q 277 519 294 553 q 260 422 260 485 q 314 339 260 339 z "},"Æ":{"ha":1272,"x_min":-33,"x_max":1242,"o":"m 433 121 q 508 138 489 126 q 531 181 528 150 q 533 201 532 192 q 535 225 535 210 l 539 304 l 438 286 l 331 254 l 304 181 q 295 156 299 165 q 292 140 292 147 q 306 125 292 126 q 364 124 321 124 l 368 110 l 344 -6 q 310 -5 343 -6 q 233 -3 276 -4 q 144 -2 189 -3 q 75 -1 99 -1 q 33 -2 53 -1 q -1 -3 14 -3 l -33 -3 l -22 118 q 64 194 31 131 l 343 738 q 335 768 342 760 q 313 776 328 776 q 300 776 306 776 q 289 775 294 775 q 278 774 283 774 l 263 793 l 289 903 q 431 900 354 901 q 578 899 496 899 q 747 899 660 899 q 898 901 822 899 q 1038 905 974 903 q 1151 910 1103 907 q 1218 915 1199 913 l 1233 893 q 1210 804 1222 850 q 1188 715 1199 764 q 1168 617 1176 665 l 975 604 q 979 629 976 617 q 983 651 982 640 q 985 672 985 663 q 960 720 985 708 q 865 732 935 732 q 818 699 818 732 l 826 517 l 924 535 l 1064 571 l 1085 547 l 1050 386 l 917 369 l 831 353 l 832 251 q 893 158 833 158 q 954 164 931 158 q 994 185 978 169 q 1023 231 1011 201 q 1047 307 1035 260 l 1226 319 l 1242 299 q 1217 213 1229 258 q 1192 121 1206 172 q 1168 13 1179 69 l 1144 -10 q 1000 -6 1078 -8 q 844 -1 933 -3 q 653 0 754 0 q 567 -2 608 -1 q 493 -4 526 -3 q 419 -8 454 -6 l 411 4 l 433 121 m 478 456 l 546 468 l 551 664 l 521 664 l 422 450 l 478 456 z "},"Á":{"ha":918,"x_min":-46,"x_max":897,"o":"m 824 213 q 846 144 831 164 q 889 119 861 124 l 897 106 l 872 -4 q 804 -3 839 -4 q 742 -2 775 -3 q 681 -1 708 -1 q 585 -3 632 -1 q 501 -6 538 -4 q 419 -8 458 -7 l 410 4 l 432 121 q 507 135 490 126 q 524 168 524 144 l 524 247 q 476 249 497 247 q 442 249 458 249 q 422 250 426 250 q 395 249 413 250 q 360 246 378 247 q 315 243 339 244 l 297 182 q 289 144 289 154 q 321 124 289 124 l 358 124 l 368 110 l 343 -6 q 269 -4 306 -6 q 201 -2 238 -3 q 135 -1 165 -1 q 71 -2 103 -1 q 13 -3 39 -3 l -46 -3 l -22 118 q 54 194 28 131 l 347 892 l 718 914 l 738 897 q 774 611 757 746 q 788 495 781 554 q 802 383 796 436 q 814 285 808 329 q 824 213 819 240 m 381 418 l 447 418 q 478 419 463 418 q 515 421 493 419 l 501 664 l 471 664 l 381 418 m 756 1036 q 643 1014 701 1026 q 531 989 593 1003 q 403 960 468 975 l 376 978 l 347 1076 q 474 1125 411 1100 q 585 1169 536 1150 q 693 1215 642 1193 l 715 1208 l 765 1058 l 756 1036 z "},"Ă":{"ha":918,"x_min":-46,"x_max":897,"o":"m 824 213 q 846 144 831 164 q 889 119 861 124 l 897 106 l 872 -4 q 804 -3 839 -4 q 742 -2 775 -3 q 681 -1 708 -1 q 585 -3 632 -1 q 501 -6 538 -4 q 419 -8 458 -7 l 410 4 l 432 121 q 507 135 490 126 q 524 168 524 144 l 524 247 q 476 249 497 247 q 442 249 458 249 q 422 250 426 250 q 395 249 413 250 q 360 246 378 247 q 315 243 339 244 l 297 182 q 289 144 289 154 q 321 124 289 124 l 358 124 l 368 110 l 343 -6 q 269 -4 306 -6 q 201 -2 238 -3 q 135 -1 165 -1 q 71 -2 103 -1 q 13 -3 39 -3 l -46 -3 l -22 118 q 54 194 28 131 l 347 892 l 718 914 l 738 897 q 774 611 757 746 q 788 495 781 554 q 802 383 796 436 q 814 285 808 329 q 824 213 819 240 m 381 418 l 447 418 q 478 419 463 418 q 515 421 493 419 l 501 664 l 471 664 l 381 418 m 563 1153 q 656 1177 613 1153 q 726 1250 699 1201 l 763 1240 l 807 1154 q 768 1085 792 1118 q 711 1024 744 1051 q 635 981 678 997 q 540 965 593 965 q 449 981 488 965 q 383 1024 410 997 q 341 1085 357 1051 q 319 1154 325 1118 l 386 1240 l 425 1250 q 476 1177 439 1201 q 563 1153 514 1153 z "},"Â":{"ha":918,"x_min":-46,"x_max":897,"o":"m 824 213 q 846 144 831 164 q 889 119 861 124 l 897 106 l 872 -4 q 804 -3 839 -4 q 742 -2 775 -3 q 681 -1 708 -1 q 585 -3 632 -1 q 501 -6 538 -4 q 419 -8 458 -7 l 410 4 l 432 121 q 507 135 490 126 q 524 168 524 144 l 524 247 q 476 249 497 247 q 442 249 458 249 q 422 250 426 250 q 395 249 413 250 q 360 246 378 247 q 315 243 339 244 l 297 182 q 289 144 289 154 q 321 124 289 124 l 358 124 l 368 110 l 343 -6 q 269 -4 306 -6 q 201 -2 238 -3 q 135 -1 165 -1 q 71 -2 103 -1 q 13 -3 39 -3 l -46 -3 l -22 118 q 54 194 28 131 l 347 892 l 718 914 l 738 897 q 774 611 757 746 q 788 495 781 554 q 802 383 796 436 q 814 285 808 329 q 824 213 819 240 m 381 418 l 447 418 q 478 419 463 418 q 515 421 493 419 l 501 664 l 471 664 l 381 418 m 297 1069 q 390 1135 343 1101 q 475 1197 438 1169 q 561 1261 519 1231 l 599 1261 q 618 1247 599 1264 q 669 1201 638 1229 q 738 1138 700 1172 q 815 1069 776 1103 l 756 983 l 722 974 q 631 1013 679 993 q 553 1044 582 1033 q 469 1013 521 1033 q 367 974 417 993 l 336 983 l 297 1069 z "},"Ä":{"ha":918,"x_min":-46,"x_max":897,"o":"m 824 213 q 846 144 831 164 q 889 119 861 124 l 897 106 l 872 -4 q 804 -3 839 -4 q 742 -2 775 -3 q 681 -1 708 -1 q 585 -3 632 -1 q 501 -6 538 -4 q 419 -8 458 -7 l 410 4 l 432 121 q 507 135 490 126 q 524 168 524 144 l 524 247 q 476 249 497 247 q 442 249 458 249 q 422 250 426 250 q 395 249 413 250 q 360 246 378 247 q 315 243 339 244 l 297 182 q 289 144 289 154 q 321 124 289 124 l 358 124 l 368 110 l 343 -6 q 269 -4 306 -6 q 201 -2 238 -3 q 135 -1 165 -1 q 71 -2 103 -1 q 13 -3 39 -3 l -46 -3 l -22 118 q 54 194 28 131 l 347 892 l 718 914 l 738 897 q 774 611 757 746 q 788 495 781 554 q 802 383 796 436 q 814 285 808 329 q 824 213 819 240 m 381 418 l 447 418 q 478 419 463 418 q 515 421 493 419 l 501 664 l 471 664 l 381 418 m 669 965 q 571 1058 571 965 q 608 1159 571 1121 q 706 1197 644 1197 q 777 1172 753 1197 q 801 1103 801 1147 q 765 1003 801 1040 q 669 965 729 965 m 408 965 q 311 1058 311 965 q 348 1159 311 1121 q 446 1197 385 1197 q 517 1172 492 1197 q 542 1103 542 1147 q 506 1003 542 1040 q 408 965 469 965 z "},"À":{"ha":918,"x_min":-46,"x_max":897,"o":"m 824 213 q 846 144 831 164 q 889 119 861 124 l 897 106 l 872 -4 q 804 -3 839 -4 q 742 -2 775 -3 q 681 -1 708 -1 q 585 -3 632 -1 q 501 -6 538 -4 q 419 -8 458 -7 l 410 4 l 432 121 q 507 135 490 126 q 524 168 524 144 l 524 247 q 476 249 497 247 q 442 249 458 249 q 422 250 426 250 q 395 249 413 250 q 360 246 378 247 q 315 243 339 244 l 297 182 q 289 144 289 154 q 321 124 289 124 l 358 124 l 368 110 l 343 -6 q 269 -4 306 -6 q 201 -2 238 -3 q 135 -1 165 -1 q 71 -2 103 -1 q 13 -3 39 -3 l -46 -3 l -22 118 q 54 194 28 131 l 347 892 l 718 914 l 738 897 q 774 611 757 746 q 788 495 781 554 q 802 383 796 436 q 814 285 808 329 q 824 213 819 240 m 381 418 l 447 418 q 478 419 463 418 q 515 421 493 419 l 501 664 l 471 664 l 381 418 m 339 1058 l 389 1208 l 411 1215 q 519 1169 463 1193 q 630 1125 568 1150 q 757 1076 692 1100 l 728 978 l 701 960 q 573 989 636 975 q 460 1014 510 1003 q 349 1036 401 1026 l 339 1058 z "},"Ā":{"ha":918,"x_min":-46,"x_max":897,"o":"m 824 213 q 846 144 831 164 q 889 119 861 124 l 897 106 l 872 -4 q 804 -3 839 -4 q 742 -2 775 -3 q 681 -1 708 -1 q 585 -3 632 -1 q 501 -6 538 -4 q 419 -8 458 -7 l 410 4 l 432 121 q 507 135 490 126 q 524 168 524 144 l 524 247 q 476 249 497 247 q 442 249 458 249 q 422 250 426 250 q 395 249 413 250 q 360 246 378 247 q 315 243 339 244 l 297 182 q 289 144 289 154 q 321 124 289 124 l 358 124 l 368 110 l 343 -6 q 269 -4 306 -6 q 201 -2 238 -3 q 135 -1 165 -1 q 71 -2 103 -1 q 13 -3 39 -3 l -46 -3 l -22 118 q 54 194 28 131 l 347 892 l 718 914 l 738 897 q 774 611 757 746 q 788 495 781 554 q 802 383 796 436 q 814 285 808 329 q 824 213 819 240 m 381 418 l 447 418 q 478 419 463 418 q 515 421 493 419 l 501 664 l 471 664 l 381 418 m 778 1118 l 733 967 l 544 965 q 483 965 514 965 q 425 964 451 964 l 365 964 l 346 985 l 390 1136 q 464 1135 428 1135 l 597 1135 q 652 1135 622 1135 q 707 1139 682 1136 q 765 1143 736 1140 l 778 1118 z "},"Ą":{"ha":918,"x_min":-46,"x_max":897,"o":"m 876 -236 q 825 -276 850 -257 q 775 -310 801 -293 q 724 -336 749 -326 q 602 -306 644 -336 q 560 -225 560 -276 q 565 -181 560 -203 q 587 -133 571 -158 q 631 -75 603 -107 q 703 -1 658 -43 l 681 -1 q 585 -3 632 -1 q 501 -6 538 -4 q 419 -8 458 -7 l 410 4 l 432 121 q 507 135 490 126 q 524 168 524 144 l 524 247 q 476 249 497 247 q 442 249 458 249 q 422 250 426 250 q 395 249 413 250 q 360 246 378 247 q 315 243 339 244 l 297 182 q 289 144 289 154 q 321 124 289 124 l 358 124 l 368 110 l 343 -6 q 269 -4 306 -6 q 201 -2 238 -3 q 135 -1 165 -1 q 71 -2 103 -1 q 13 -3 39 -3 l -46 -3 l -22 118 q 54 194 28 131 l 347 892 l 718 914 l 738 897 q 774 611 757 746 q 788 495 781 554 q 802 383 796 436 q 814 285 808 329 q 824 213 819 240 q 846 144 831 164 q 889 119 861 124 l 897 106 l 872 -4 l 853 -4 q 833 -3 844 -4 q 810 -3 822 -3 q 758 -67 778 -40 q 728 -111 739 -93 q 713 -142 717 -129 q 710 -168 710 -156 q 722 -202 710 -189 q 756 -215 735 -215 q 786 -210 771 -215 q 815 -199 801 -206 q 847 -181 831 -192 l 876 -236 m 381 418 l 447 418 q 478 419 463 418 q 515 421 493 419 l 501 664 l 471 664 l 381 418 z "},"˛":{"ha":539,"x_min":35,"x_max":351,"o":"m 351 -236 q 300 -276 325 -257 q 250 -310 276 -293 q 199 -336 224 -326 q 77 -306 119 -336 q 35 -225 35 -276 q 42 -174 35 -199 q 73 -117 50 -149 q 137 -42 96 -85 q 243 58 178 0 l 338 58 q 258 -36 288 1 q 212 -98 228 -74 q 190 -138 196 -122 q 185 -168 185 -154 q 197 -202 185 -189 q 231 -215 210 -215 q 261 -210 246 -215 q 290 -199 276 -206 q 322 -181 306 -192 l 351 -236 z "},"Å":{"ha":918,"x_min":-46,"x_max":897,"o":"m 824 213 q 846 144 831 164 q 889 119 861 124 l 897 106 l 872 -4 q 804 -3 839 -4 q 742 -2 775 -3 q 681 -1 708 -1 q 585 -3 632 -1 q 501 -6 538 -4 q 419 -8 458 -7 l 410 4 l 432 121 q 507 135 490 126 q 524 168 524 144 l 524 247 q 476 249 497 247 q 442 249 458 249 q 422 250 426 250 q 395 249 413 250 q 360 246 378 247 q 315 243 339 244 l 297 182 q 289 144 289 154 q 321 124 289 124 l 358 124 l 368 110 l 343 -6 q 269 -4 306 -6 q 201 -2 238 -3 q 135 -1 165 -1 q 71 -2 103 -1 q 13 -3 39 -3 l -46 -3 l -22 118 q 54 194 28 131 l 347 892 l 718 914 l 738 897 q 774 611 757 746 q 788 495 781 554 q 802 383 796 436 q 814 285 808 329 q 824 213 819 240 m 381 418 l 447 418 q 478 419 463 418 q 515 421 493 419 l 501 664 l 471 664 l 381 418 m 560 1044 q 593 1055 574 1044 q 613 1097 613 1065 q 565 1139 613 1139 q 526 1124 539 1139 q 514 1088 514 1110 q 529 1053 514 1063 q 560 1044 544 1044 m 538 947 q 447 981 478 947 q 417 1071 417 1015 q 429 1137 417 1106 q 464 1190 442 1168 q 517 1226 486 1213 q 586 1239 549 1239 q 682 1203 654 1239 q 710 1121 710 1167 q 698 1056 710 1088 q 664 1001 686 1025 q 610 962 642 976 q 538 947 578 947 z "},"Ã":{"ha":918,"x_min":-46,"x_max":897,"o":"m 824 213 q 846 144 831 164 q 889 119 861 124 l 897 106 l 872 -4 q 804 -3 839 -4 q 742 -2 775 -3 q 681 -1 708 -1 q 585 -3 632 -1 q 501 -6 538 -4 q 419 -8 458 -7 l 410 4 l 432 121 q 507 135 490 126 q 524 168 524 144 l 524 247 q 476 249 497 247 q 442 249 458 249 q 422 250 426 250 q 395 249 413 250 q 360 246 378 247 q 315 243 339 244 l 297 182 q 289 144 289 154 q 321 124 289 124 l 358 124 l 368 110 l 343 -6 q 269 -4 306 -6 q 201 -2 238 -3 q 135 -1 165 -1 q 71 -2 103 -1 q 13 -3 39 -3 l -46 -3 l -22 118 q 54 194 28 131 l 347 892 l 718 914 l 738 897 q 774 611 757 746 q 788 495 781 554 q 802 383 796 436 q 814 285 808 329 q 824 213 819 240 m 381 418 l 447 418 q 478 419 463 418 q 515 421 493 419 l 501 664 l 471 664 l 381 418 m 356 938 l 283 1013 l 286 1035 l 415 1194 l 439 1200 q 485 1192 457 1200 q 542 1176 513 1185 q 599 1160 572 1168 q 640 1153 625 1153 q 670 1165 653 1153 q 703 1193 688 1178 q 742 1233 721 1210 l 764 1233 l 836 1158 l 833 1136 l 704 976 l 681 971 q 635 978 663 971 q 577 994 607 986 q 521 1010 547 1003 q 479 1018 494 1018 q 448 1006 465 1018 q 415 978 431 993 q 378 938 397 960 l 356 938 z "},"B":{"ha":899,"x_min":-28,"x_max":888,"o":"m 222 0 q 147 -1 190 0 q 65 -6 104 -3 q -28 -10 19 -8 l 0 115 q 74 146 53 125 q 103 217 96 167 l 165 713 q 138 776 172 776 q 122 776 131 776 q 107 775 114 775 q 90 774 99 774 l 76 790 l 106 901 q 206 900 160 900 q 283 899 246 899 q 338 899 321 899 q 395 899 354 899 q 479 903 436 900 q 589 908 529 906 q 810 858 732 908 q 888 715 888 807 q 850 588 888 644 q 729 476 813 531 q 874 292 874 415 q 766 62 874 139 q 444 -15 658 -15 q 402 -11 432 -14 q 338 -6 372 -8 q 270 -1 303 -3 q 222 0 238 0 m 397 361 l 374 222 q 389 174 368 189 q 461 158 410 158 q 542 188 514 158 q 571 271 571 217 q 501 361 571 336 l 397 361 m 422 540 q 463 532 443 536 q 497 527 479 529 q 525 525 514 525 q 558 557 543 539 q 582 597 571 572 q 593 653 593 621 q 479 733 593 733 q 460 729 465 733 q 453 714 456 725 q 442 661 447 690 q 432 604 436 632 q 422 540 426 572 z "},"C":{"ha":811,"x_min":25,"x_max":853,"o":"m 388 -15 q 119 81 213 -15 q 25 360 25 178 q 155 774 25 633 q 536 915 285 915 q 633 910 579 915 q 733 897 686 904 q 844 879 789 889 l 853 851 q 826 767 840 813 q 802 672 815 726 q 778 554 789 618 l 561 542 q 568 585 564 564 q 574 619 571 601 q 576 646 576 636 q 553 703 576 683 q 485 724 529 724 q 420 704 447 724 q 376 642 393 685 q 352 533 360 600 q 344 372 344 467 q 366 224 344 268 q 439 181 388 181 q 482 188 464 181 q 514 213 500 194 q 538 263 528 232 q 558 342 549 293 l 774 356 q 754 257 764 307 q 737 162 746 214 q 722 60 728 110 l 701 38 q 610 11 660 22 q 510 -8 567 0 q 388 -15 454 -15 z "},"Ć":{"ha":811,"x_min":25,"x_max":853,"o":"m 388 -15 q 119 81 213 -15 q 25 360 25 178 q 155 774 25 633 q 536 915 285 915 q 633 910 579 915 q 733 897 686 904 q 844 879 789 889 l 853 851 q 826 767 840 813 q 802 672 815 726 q 778 554 789 618 l 561 542 q 568 585 564 564 q 574 619 571 601 q 576 646 576 636 q 553 703 576 683 q 485 724 529 724 q 420 704 447 724 q 376 642 393 685 q 352 533 360 600 q 344 372 344 467 q 366 224 344 268 q 439 181 388 181 q 482 188 464 181 q 514 213 500 194 q 538 263 528 232 q 558 342 549 293 l 774 356 q 754 257 764 307 q 737 162 746 214 q 722 60 728 110 l 701 38 q 610 11 660 22 q 510 -8 567 0 q 388 -15 454 -15 m 706 1036 q 593 1014 651 1026 q 481 989 543 1003 q 353 960 418 975 l 326 978 l 297 1076 q 424 1125 361 1100 q 535 1169 486 1150 q 643 1215 592 1193 l 665 1208 l 715 1058 l 706 1036 z "},"Č":{"ha":811,"x_min":25,"x_max":853,"o":"m 388 -15 q 119 81 213 -15 q 25 360 25 178 q 155 774 25 633 q 536 915 285 915 q 633 910 579 915 q 733 897 686 904 q 844 879 789 889 l 853 851 q 826 767 840 813 q 802 672 815 726 q 778 554 789 618 l 561 542 q 568 585 564 564 q 574 619 571 601 q 576 646 576 636 q 553 703 576 683 q 485 724 529 724 q 420 704 447 724 q 376 642 393 685 q 352 533 360 600 q 344 372 344 467 q 366 224 344 268 q 439 181 388 181 q 482 188 464 181 q 514 213 500 194 q 538 263 528 232 q 558 342 549 293 l 774 356 q 754 257 764 307 q 737 162 746 214 q 722 60 728 110 l 701 38 q 610 11 660 22 q 510 -8 567 0 q 388 -15 454 -15 m 801 1147 q 707 1081 754 1115 q 622 1019 660 1047 q 536 956 576 986 l 499 956 q 429 1019 465 986 q 360 1081 397 1047 q 283 1147 322 1115 l 342 1233 l 375 1243 q 420 1223 396 1233 q 467 1203 444 1213 q 510 1186 490 1194 q 544 1172 531 1178 q 628 1203 576 1183 q 731 1243 681 1224 l 761 1233 l 801 1147 z "},"Ç":{"ha":811,"x_min":25,"x_max":853,"o":"m 339 -12 q 106 96 188 0 q 25 360 25 192 q 155 774 25 633 q 536 915 285 915 q 633 910 579 915 q 733 897 686 904 q 844 879 789 889 l 853 851 q 826 767 840 813 q 802 672 815 726 q 778 554 789 618 l 561 542 q 568 585 564 564 q 574 619 571 601 q 576 646 576 636 q 553 703 576 683 q 485 724 529 724 q 420 704 447 724 q 376 642 393 685 q 352 533 360 600 q 344 372 344 467 q 366 224 344 268 q 439 181 388 181 q 482 188 464 181 q 514 213 500 194 q 538 263 528 232 q 558 342 549 293 l 774 356 q 754 257 764 307 q 737 162 746 214 q 722 60 728 110 l 701 38 q 622 14 665 25 q 536 -3 586 4 q 428 -14 486 -11 l 417 -51 q 459 -76 436 -61 q 502 -109 482 -90 q 536 -149 522 -128 q 550 -192 550 -169 q 532 -248 550 -221 q 484 -294 514 -275 q 413 -326 454 -314 q 326 -337 372 -337 q 287 -333 307 -337 q 250 -319 267 -328 q 223 -297 233 -310 q 213 -267 213 -283 q 221 -245 213 -258 q 242 -217 229 -232 q 270 -189 256 -203 q 297 -164 285 -175 l 308 -164 q 321 -222 306 -203 q 364 -242 336 -242 q 407 -208 407 -242 q 397 -187 407 -199 q 372 -164 388 -175 q 337 -142 356 -153 q 300 -121 318 -131 l 339 -12 z "},"¸":{"ha":543,"x_min":32,"x_max":369,"o":"m 182 50 l 268 50 l 236 -51 q 278 -76 256 -61 q 322 -109 301 -90 q 356 -149 342 -128 q 369 -192 369 -169 q 351 -248 369 -221 q 303 -294 333 -275 q 233 -326 274 -314 q 146 -337 192 -337 q 106 -333 126 -337 q 69 -319 86 -328 q 42 -297 53 -310 q 32 -267 32 -283 q 40 -245 32 -258 q 62 -217 49 -232 q 90 -189 75 -203 q 117 -164 104 -175 l 128 -164 q 140 -222 125 -203 q 183 -242 156 -242 q 226 -208 226 -242 q 217 -187 226 -199 q 191 -164 207 -175 q 156 -142 175 -153 q 119 -121 138 -131 l 182 50 z "},"Ċ":{"ha":811,"x_min":25,"x_max":853,"o":"m 388 -15 q 119 81 213 -15 q 25 360 25 178 q 155 774 25 633 q 536 915 285 915 q 633 910 579 915 q 733 897 686 904 q 844 879 789 889 l 853 851 q 826 767 840 813 q 802 672 815 726 q 778 554 789 618 l 561 542 q 568 585 564 564 q 574 619 571 601 q 576 646 576 636 q 553 703 576 683 q 485 724 529 724 q 420 704 447 724 q 376 642 393 685 q 352 533 360 600 q 344 372 344 467 q 366 224 344 268 q 439 181 388 181 q 482 188 464 181 q 514 213 500 194 q 538 263 528 232 q 558 342 549 293 l 774 356 q 754 257 764 307 q 737 162 746 214 q 722 60 728 110 l 701 38 q 610 11 660 22 q 510 -8 567 0 q 388 -15 454 -15 m 531 949 q 444 978 474 949 q 415 1060 415 1007 q 459 1180 415 1135 q 575 1225 503 1225 q 660 1195 631 1225 q 689 1113 689 1165 q 645 993 689 1038 q 531 949 601 949 z "},"D":{"ha":917,"x_min":-22,"x_max":924,"o":"m 388 -17 q 313 -8 350 -12 q 244 -3 281 -6 q 175 0 207 0 q 112 -1 146 0 q 47 -6 78 -3 q -22 -11 11 -8 l 6 118 q 47 129 31 122 q 75 149 64 136 q 94 183 86 163 q 106 233 101 203 l 163 699 q 163 758 168 743 q 139 774 158 774 q 124 773 132 774 q 110 772 117 772 q 96 771 103 771 l 85 790 l 111 903 q 193 900 154 901 q 262 899 226 899 q 318 899 297 899 q 377 899 342 899 q 447 903 413 900 q 531 907 488 904 q 822 819 721 907 q 924 558 924 732 q 885 323 924 429 q 776 141 847 217 q 607 24 706 65 q 388 -17 508 -17 m 476 731 q 455 723 461 731 q 444 693 449 715 q 435 642 442 682 q 421 548 429 601 q 403 435 413 494 q 388 324 394 375 q 376 239 381 274 q 371 201 371 204 q 379 167 371 176 q 407 157 388 157 q 554 257 504 157 q 604 553 604 357 q 576 691 604 651 q 476 731 547 731 z "},"Ď":{"ha":917,"x_min":-22,"x_max":924,"o":"m 388 -17 q 313 -8 350 -12 q 244 -3 281 -6 q 175 0 207 0 q 112 -1 146 0 q 47 -6 78 -3 q -22 -11 11 -8 l 6 118 q 47 129 31 122 q 75 149 64 136 q 94 183 86 163 q 106 233 101 203 l 163 699 q 163 758 168 743 q 139 774 158 774 q 124 773 132 774 q 110 772 117 772 q 96 771 103 771 l 85 790 l 111 903 q 193 900 154 901 q 262 899 226 899 q 318 899 297 899 q 377 899 342 899 q 447 903 413 900 q 531 907 488 904 q 822 819 721 907 q 924 558 924 732 q 885 323 924 429 q 776 141 847 217 q 607 24 706 65 q 388 -17 508 -17 m 476 731 q 455 723 461 731 q 444 693 449 715 q 435 642 442 682 q 421 548 429 601 q 403 435 413 494 q 388 324 394 375 q 376 239 381 274 q 371 201 371 204 q 379 167 371 176 q 407 157 388 157 q 554 257 504 157 q 604 553 604 357 q 576 691 604 651 q 476 731 547 731 m 804 1147 q 710 1081 757 1115 q 625 1019 663 1047 q 539 956 579 986 l 501 956 q 432 1019 468 986 q 363 1081 400 1047 q 286 1147 325 1115 l 344 1233 l 378 1243 q 423 1223 399 1233 q 470 1203 447 1213 q 513 1186 493 1194 q 547 1172 533 1178 q 631 1203 579 1183 q 733 1243 683 1224 l 764 1233 l 804 1147 z "},"E":{"ha":814,"x_min":-28,"x_max":865,"o":"m 374 210 q 385 169 374 178 q 429 160 397 160 q 498 165 471 160 q 544 187 525 171 q 574 231 563 203 q 599 307 586 260 l 778 319 l 793 299 q 768 213 781 258 q 744 121 757 172 q 719 13 731 69 l 696 -10 q 560 -6 632 -8 q 420 -1 497 -3 q 264 0 343 0 q 159 -2 211 0 q 65 -7 107 -4 q -28 -14 17 -11 l 0 114 q 73 148 51 122 q 101 236 94 174 l 161 701 q 161 761 167 746 q 133 776 156 776 q 122 776 128 776 q 111 775 117 775 q 99 774 106 774 l 85 793 l 111 903 q 224 900 168 901 q 328 899 272 899 q 431 899 383 899 q 556 900 493 899 q 674 903 618 901 q 776 908 731 906 q 850 915 821 911 l 865 893 q 840 804 853 850 q 819 715 829 764 q 800 617 808 665 l 606 604 q 611 629 608 617 q 615 651 614 640 q 617 672 617 663 q 592 720 617 708 q 497 732 567 732 q 461 725 469 732 q 449 694 453 718 l 421 538 q 472 537 440 538 q 531 536 503 536 q 571 537 546 536 q 619 540 596 538 q 679 544 647 542 l 693 525 l 654 365 q 597 367 625 365 q 546 369 574 368 q 494 369 518 369 q 439 367 465 369 q 393 361 413 364 q 381 279 388 325 q 374 210 374 233 z "},"É":{"ha":814,"x_min":-28,"x_max":865,"o":"m 374 210 q 385 169 374 178 q 429 160 397 160 q 498 165 471 160 q 544 187 525 171 q 574 231 563 203 q 599 307 586 260 l 778 319 l 793 299 q 768 213 781 258 q 744 121 757 172 q 719 13 731 69 l 696 -10 q 560 -6 632 -8 q 420 -1 497 -3 q 264 0 343 0 q 159 -2 211 0 q 65 -7 107 -4 q -28 -14 17 -11 l 0 114 q 73 148 51 122 q 101 236 94 174 l 161 701 q 161 761 167 746 q 133 776 156 776 q 122 776 128 776 q 111 775 117 775 q 99 774 106 774 l 85 793 l 111 903 q 224 900 168 901 q 328 899 272 899 q 431 899 383 899 q 556 900 493 899 q 674 903 618 901 q 776 908 731 906 q 850 915 821 911 l 865 893 q 840 804 853 850 q 819 715 829 764 q 800 617 808 665 l 606 604 q 611 629 608 617 q 615 651 614 640 q 617 672 617 663 q 592 720 617 708 q 497 732 567 732 q 461 725 469 732 q 449 694 453 718 l 421 538 q 472 537 440 538 q 531 536 503 536 q 571 537 546 536 q 619 540 596 538 q 679 544 647 542 l 693 525 l 654 365 q 597 367 625 365 q 546 369 574 368 q 494 369 518 369 q 439 367 465 369 q 393 361 413 364 q 381 279 388 325 q 374 210 374 233 m 707 1036 q 594 1014 653 1026 q 482 989 544 1003 q 354 960 419 975 l 328 978 l 299 1076 q 425 1125 363 1100 q 536 1169 488 1150 q 644 1215 593 1193 l 667 1208 l 717 1058 l 707 1036 z "},"Ě":{"ha":814,"x_min":-28,"x_max":865,"o":"m 374 210 q 385 169 374 178 q 429 160 397 160 q 498 165 471 160 q 544 187 525 171 q 574 231 563 203 q 599 307 586 260 l 778 319 l 793 299 q 768 213 781 258 q 744 121 757 172 q 719 13 731 69 l 696 -10 q 560 -6 632 -8 q 420 -1 497 -3 q 264 0 343 0 q 159 -2 211 0 q 65 -7 107 -4 q -28 -14 17 -11 l 0 114 q 73 148 51 122 q 101 236 94 174 l 161 701 q 161 761 167 746 q 133 776 156 776 q 122 776 128 776 q 111 775 117 775 q 99 774 106 774 l 85 793 l 111 903 q 224 900 168 901 q 328 899 272 899 q 431 899 383 899 q 556 900 493 899 q 674 903 618 901 q 776 908 731 906 q 850 915 821 911 l 865 893 q 840 804 853 850 q 819 715 829 764 q 800 617 808 665 l 606 604 q 611 629 608 617 q 615 651 614 640 q 617 672 617 663 q 592 720 617 708 q 497 732 567 732 q 461 725 469 732 q 449 694 453 718 l 421 538 q 472 537 440 538 q 531 536 503 536 q 571 537 546 536 q 619 540 596 538 q 679 544 647 542 l 693 525 l 654 365 q 597 367 625 365 q 546 369 574 368 q 494 369 518 369 q 439 367 465 369 q 393 361 413 364 q 381 279 388 325 q 374 210 374 233 m 803 1147 q 708 1081 756 1115 q 624 1019 661 1047 q 538 956 578 986 l 500 956 q 431 1019 467 986 q 361 1081 399 1047 q 285 1147 324 1115 l 343 1233 l 376 1243 q 422 1223 397 1233 q 469 1203 446 1213 q 512 1186 492 1194 q 546 1172 532 1178 q 630 1203 578 1183 q 732 1243 682 1224 l 763 1233 l 803 1147 z "},"Ê":{"ha":814,"x_min":-28,"x_max":865,"o":"m 374 210 q 385 169 374 178 q 429 160 397 160 q 498 165 471 160 q 544 187 525 171 q 574 231 563 203 q 599 307 586 260 l 778 319 l 793 299 q 768 213 781 258 q 744 121 757 172 q 719 13 731 69 l 696 -10 q 560 -6 632 -8 q 420 -1 497 -3 q 264 0 343 0 q 159 -2 211 0 q 65 -7 107 -4 q -28 -14 17 -11 l 0 114 q 73 148 51 122 q 101 236 94 174 l 161 701 q 161 761 167 746 q 133 776 156 776 q 122 776 128 776 q 111 775 117 775 q 99 774 106 774 l 85 793 l 111 903 q 224 900 168 901 q 328 899 272 899 q 431 899 383 899 q 556 900 493 899 q 674 903 618 901 q 776 908 731 906 q 850 915 821 911 l 865 893 q 840 804 853 850 q 819 715 829 764 q 800 617 808 665 l 606 604 q 611 629 608 617 q 615 651 614 640 q 617 672 617 663 q 592 720 617 708 q 497 732 567 732 q 461 725 469 732 q 449 694 453 718 l 421 538 q 472 537 440 538 q 531 536 503 536 q 571 537 546 536 q 619 540 596 538 q 679 544 647 542 l 693 525 l 654 365 q 597 367 625 365 q 546 369 574 368 q 494 369 518 369 q 439 367 465 369 q 393 361 413 364 q 381 279 388 325 q 374 210 374 233 m 276 1069 q 369 1135 322 1101 q 454 1197 417 1169 q 540 1261 499 1231 l 578 1261 q 597 1247 578 1264 q 648 1201 617 1229 q 717 1138 679 1172 q 794 1069 756 1103 l 735 983 l 701 974 q 610 1013 658 993 q 532 1044 561 1033 q 448 1013 500 1033 q 346 974 396 993 l 315 983 l 276 1069 z "},"Ë":{"ha":814,"x_min":-28,"x_max":865,"o":"m 374 210 q 385 169 374 178 q 429 160 397 160 q 498 165 471 160 q 544 187 525 171 q 574 231 563 203 q 599 307 586 260 l 778 319 l 793 299 q 768 213 781 258 q 744 121 757 172 q 719 13 731 69 l 696 -10 q 560 -6 632 -8 q 420 -1 497 -3 q 264 0 343 0 q 159 -2 211 0 q 65 -7 107 -4 q -28 -14 17 -11 l 0 114 q 73 148 51 122 q 101 236 94 174 l 161 701 q 161 761 167 746 q 133 776 156 776 q 122 776 128 776 q 111 775 117 775 q 99 774 106 774 l 85 793 l 111 903 q 224 900 168 901 q 328 899 272 899 q 431 899 383 899 q 556 900 493 899 q 674 903 618 901 q 776 908 731 906 q 850 915 821 911 l 865 893 q 840 804 853 850 q 819 715 829 764 q 800 617 808 665 l 606 604 q 611 629 608 617 q 615 651 614 640 q 617 672 617 663 q 592 720 617 708 q 497 732 567 732 q 461 725 469 732 q 449 694 453 718 l 421 538 q 472 537 440 538 q 531 536 503 536 q 571 537 546 536 q 619 540 596 538 q 679 544 647 542 l 693 525 l 654 365 q 597 367 625 365 q 546 369 574 368 q 494 369 518 369 q 439 367 465 369 q 393 361 413 364 q 381 279 388 325 q 374 210 374 233 m 649 965 q 550 1058 550 965 q 587 1159 550 1121 q 685 1197 624 1197 q 756 1172 732 1197 q 781 1103 781 1147 q 744 1003 781 1040 q 649 965 708 965 m 388 965 q 290 1058 290 965 q 327 1159 290 1121 q 425 1197 364 1197 q 496 1172 471 1197 q 521 1103 521 1147 q 485 1003 521 1040 q 388 965 449 965 z "},"Ė":{"ha":814,"x_min":-28,"x_max":865,"o":"m 374 210 q 385 169 374 178 q 429 160 397 160 q 498 165 471 160 q 544 187 525 171 q 574 231 563 203 q 599 307 586 260 l 778 319 l 793 299 q 768 213 781 258 q 744 121 757 172 q 719 13 731 69 l 696 -10 q 560 -6 632 -8 q 420 -1 497 -3 q 264 0 343 0 q 159 -2 211 0 q 65 -7 107 -4 q -28 -14 17 -11 l 0 114 q 73 148 51 122 q 101 236 94 174 l 161 701 q 161 761 167 746 q 133 776 156 776 q 122 776 128 776 q 111 775 117 775 q 99 774 106 774 l 85 793 l 111 903 q 224 900 168 901 q 328 899 272 899 q 431 899 383 899 q 556 900 493 899 q 674 903 618 901 q 776 908 731 906 q 850 915 821 911 l 865 893 q 840 804 853 850 q 819 715 829 764 q 800 617 808 665 l 606 604 q 611 629 608 617 q 615 651 614 640 q 617 672 617 663 q 592 720 617 708 q 497 732 567 732 q 461 725 469 732 q 449 694 453 718 l 421 538 q 472 537 440 538 q 531 536 503 536 q 571 537 546 536 q 619 540 596 538 q 679 544 647 542 l 693 525 l 654 365 q 597 367 625 365 q 546 369 574 368 q 494 369 518 369 q 439 367 465 369 q 393 361 413 364 q 381 279 388 325 q 374 210 374 233 m 518 949 q 432 978 461 949 q 403 1060 403 1007 q 447 1180 403 1135 q 563 1225 490 1225 q 647 1195 618 1225 q 676 1113 676 1165 q 633 993 676 1038 q 518 949 589 949 z "},"È":{"ha":814,"x_min":-28,"x_max":865,"o":"m 374 210 q 385 169 374 178 q 429 160 397 160 q 498 165 471 160 q 544 187 525 171 q 574 231 563 203 q 599 307 586 260 l 778 319 l 793 299 q 768 213 781 258 q 744 121 757 172 q 719 13 731 69 l 696 -10 q 560 -6 632 -8 q 420 -1 497 -3 q 264 0 343 0 q 159 -2 211 0 q 65 -7 107 -4 q -28 -14 17 -11 l 0 114 q 73 148 51 122 q 101 236 94 174 l 161 701 q 161 761 167 746 q 133 776 156 776 q 122 776 128 776 q 111 775 117 775 q 99 774 106 774 l 85 793 l 111 903 q 224 900 168 901 q 328 899 272 899 q 431 899 383 899 q 556 900 493 899 q 674 903 618 901 q 776 908 731 906 q 850 915 821 911 l 865 893 q 840 804 853 850 q 819 715 829 764 q 800 617 808 665 l 606 604 q 611 629 608 617 q 615 651 614 640 q 617 672 617 663 q 592 720 617 708 q 497 732 567 732 q 461 725 469 732 q 449 694 453 718 l 421 538 q 472 537 440 538 q 531 536 503 536 q 571 537 546 536 q 619 540 596 538 q 679 544 647 542 l 693 525 l 654 365 q 597 367 625 365 q 546 369 574 368 q 494 369 518 369 q 439 367 465 369 q 393 361 413 364 q 381 279 388 325 q 374 210 374 233 m 297 1058 l 347 1208 l 369 1215 q 478 1169 421 1193 q 588 1125 526 1150 q 715 1076 650 1100 l 686 978 l 660 960 q 531 989 594 975 q 418 1014 468 1003 q 307 1036 360 1026 l 297 1058 z "},"Ē":{"ha":814,"x_min":-28,"x_max":865,"o":"m 374 210 q 385 169 374 178 q 429 160 397 160 q 498 165 471 160 q 544 187 525 171 q 574 231 563 203 q 599 307 586 260 l 778 319 l 793 299 q 768 213 781 258 q 744 121 757 172 q 719 13 731 69 l 696 -10 q 560 -6 632 -8 q 420 -1 497 -3 q 264 0 343 0 q 159 -2 211 0 q 65 -7 107 -4 q -28 -14 17 -11 l 0 114 q 73 148 51 122 q 101 236 94 174 l 161 701 q 161 761 167 746 q 133 776 156 776 q 122 776 128 776 q 111 775 117 775 q 99 774 106 774 l 85 793 l 111 903 q 224 900 168 901 q 328 899 272 899 q 431 899 383 899 q 556 900 493 899 q 674 903 618 901 q 776 908 731 906 q 850 915 821 911 l 865 893 q 840 804 853 850 q 819 715 829 764 q 800 617 808 665 l 606 604 q 611 629 608 617 q 615 651 614 640 q 617 672 617 663 q 592 720 617 708 q 497 732 567 732 q 461 725 469 732 q 449 694 453 718 l 421 538 q 472 537 440 538 q 531 536 503 536 q 571 537 546 536 q 619 540 596 538 q 679 544 647 542 l 693 525 l 654 365 q 597 367 625 365 q 546 369 574 368 q 494 369 518 369 q 439 367 465 369 q 393 361 413 364 q 381 279 388 325 q 374 210 374 233 m 757 1118 l 713 967 l 524 965 q 462 965 493 965 q 404 964 431 964 l 344 964 l 325 985 l 369 1136 q 443 1135 407 1135 l 576 1135 q 631 1135 601 1135 q 686 1139 661 1136 q 744 1143 715 1140 l 757 1118 z "},"Ŋ":{"ha":993,"x_min":-11,"x_max":1065,"o":"m 299 899 q 354 899 325 899 q 408 901 383 900 q 465 904 438 903 q 538 734 501 817 q 604 586 574 651 q 674 442 640 510 l 693 442 l 722 722 q 718 769 726 757 q 685 782 710 782 q 675 781 682 782 q 661 781 668 781 l 643 781 l 639 794 l 658 904 q 756 901 710 903 q 831 899 794 900 q 883 899 868 899 q 938 899 907 899 q 997 901 969 900 q 1065 904 1031 903 l 1044 783 q 981 758 1000 776 q 954 696 961 739 l 869 118 q 756 -108 846 -24 q 490 -239 667 -193 l 440 -171 l 446 -150 q 593 0 551 -96 q 510 182 549 99 q 442 328 471 265 q 378 460 407 400 l 358 460 l 328 185 q 333 131 324 146 q 372 115 343 115 q 386 115 378 115 q 401 117 394 115 q 419 119 410 118 l 429 108 l 401 -6 q 319 -3 363 -4 q 239 -1 283 -1 q 154 0 194 0 q 106 -1 135 0 q 51 -6 78 -3 q -11 -11 21 -8 l 18 108 q 78 135 58 114 q 106 199 99 156 l 182 693 q 170 756 188 739 q 92 779 153 772 l 78 799 l 99 906 q 171 901 135 903 q 236 899 201 900 q 299 899 271 899 z "},"Ę":{"ha":814,"x_min":-28,"x_max":865,"o":"m 724 -236 q 672 -276 697 -257 q 622 -310 649 -293 q 571 -336 596 -326 q 449 -306 492 -336 q 407 -225 407 -276 q 413 -181 407 -203 q 434 -134 418 -160 q 477 -77 450 -108 q 547 -4 504 -46 q 414 -1 488 -1 q 264 0 340 0 q 159 -2 211 0 q 65 -7 107 -4 q -28 -14 17 -11 l 0 114 q 73 148 51 122 q 101 236 94 174 l 161 701 q 161 761 167 746 q 133 776 156 776 q 122 776 128 776 q 111 775 117 775 q 99 774 106 774 l 85 793 l 111 903 q 224 900 168 901 q 328 899 272 899 q 431 899 383 899 q 556 900 493 899 q 674 903 618 901 q 776 908 731 906 q 850 915 821 911 l 865 893 q 840 804 853 850 q 819 715 829 764 q 800 617 808 665 l 606 604 q 611 629 608 617 q 615 651 614 640 q 617 672 617 663 q 592 720 617 708 q 497 732 567 732 q 461 725 469 732 q 449 694 453 718 l 421 538 q 472 537 440 538 q 531 536 503 536 q 571 537 546 536 q 619 540 596 538 q 679 544 647 542 l 693 525 l 654 365 q 597 367 625 365 q 546 369 574 368 q 494 369 518 369 q 439 367 465 369 q 393 361 413 364 q 381 279 388 325 q 374 210 374 233 q 385 169 374 178 q 429 160 397 160 q 498 165 471 160 q 544 187 525 171 q 574 231 563 203 q 599 307 586 260 l 778 319 l 793 299 q 768 213 781 258 q 744 121 757 172 q 719 13 731 69 l 696 -10 q 685 -8 690 -8 q 671 -8 679 -8 q 653 -7 663 -8 q 603 -69 622 -44 q 574 -112 585 -94 q 560 -142 564 -129 q 557 -168 557 -156 q 569 -202 557 -189 q 603 -215 582 -215 q 633 -210 618 -215 q 663 -199 649 -206 q 694 -181 678 -192 l 724 -236 z "},"Ð":{"ha":944,"x_min":6,"x_max":951,"o":"m 415 -17 q 340 -8 378 -12 q 272 -3 308 -6 q 203 0 235 0 q 140 -1 174 0 q 75 -6 106 -3 q 6 -11 39 -8 l 33 118 q 75 129 58 122 q 103 149 92 136 q 122 183 114 163 q 133 233 129 203 l 150 369 l 28 369 l 15 381 l 49 504 l 167 504 l 190 699 q 191 758 196 743 q 167 774 186 774 q 152 773 160 774 q 138 772 144 772 q 124 771 131 771 l 113 790 l 139 903 q 221 900 182 901 q 290 899 254 899 q 346 899 325 899 q 405 899 369 899 q 475 903 440 900 q 558 907 515 904 q 850 819 749 907 q 951 558 951 732 q 913 323 951 429 q 804 141 875 217 q 635 24 733 65 q 415 -17 536 -17 m 504 731 q 483 723 489 731 q 472 693 476 715 q 461 625 469 678 q 442 506 453 572 l 539 510 l 549 496 l 524 371 l 422 371 q 405 254 411 303 q 399 201 399 206 q 407 167 399 176 q 435 157 415 157 q 582 257 532 157 q 632 553 632 357 q 603 691 632 651 q 504 731 575 731 z "},"F":{"ha":750,"x_min":-28,"x_max":826,"o":"m 378 243 q 380 176 371 193 q 424 160 389 160 q 453 161 439 160 q 478 165 467 163 q 501 171 490 168 l 521 146 l 485 -4 q 399 -3 440 -4 q 326 -1 363 -1 q 265 0 289 0 q 159 -2 211 0 q 65 -7 107 -4 q -28 -14 17 -11 l 0 114 q 72 148 51 122 q 101 236 93 174 l 161 701 q 161 761 167 746 q 133 776 156 776 q 122 776 128 776 q 111 775 117 775 q 99 774 106 774 l 85 793 l 111 903 q 224 900 168 901 q 328 899 272 899 q 431 899 383 899 q 544 900 488 899 q 652 903 601 901 q 744 908 703 906 q 811 915 785 911 l 826 893 q 806 803 815 849 q 787 714 797 763 q 769 617 776 665 l 575 606 q 579 631 576 618 q 583 652 582 642 q 585 672 585 663 q 565 719 585 707 q 497 732 546 732 q 461 725 469 732 q 449 694 453 718 l 417 514 l 528 513 q 566 513 543 513 q 613 517 589 514 q 669 521 639 518 l 685 501 l 646 342 q 592 343 618 342 q 541 345 568 344 q 492 346 514 346 q 435 343 463 346 q 390 338 408 340 l 378 243 z "},"G":{"ha":858,"x_min":25,"x_max":853,"o":"m 388 -15 q 119 81 213 -15 q 25 360 25 178 q 155 774 25 633 q 536 915 285 915 q 633 910 579 915 q 733 897 686 904 q 844 879 789 889 l 853 851 q 826 776 840 819 q 802 689 815 740 q 778 574 789 638 l 561 561 q 568 596 564 579 q 574 626 571 611 q 576 650 576 640 q 553 706 576 688 q 485 724 529 724 q 420 704 447 724 q 376 642 393 685 q 352 533 360 600 q 344 372 344 467 q 366 224 344 268 q 439 181 388 181 q 469 183 456 181 q 494 189 483 186 q 515 197 507 193 l 525 285 q 522 330 529 318 q 492 342 515 342 q 476 341 483 342 q 461 340 468 340 l 449 340 l 439 360 l 471 492 l 679 492 q 726 492 700 492 q 774 494 751 493 q 813 496 797 494 q 829 499 829 497 l 833 418 q 788 375 803 399 q 767 314 774 351 q 758 257 763 289 q 749 194 753 225 q 742 140 744 164 q 739 106 739 115 l 739 68 q 740 53 739 60 l 721 31 q 638 7 686 17 q 533 -8 596 -1 q 388 -15 471 -15 z "},"Ğ":{"ha":858,"x_min":25,"x_max":853,"o":"m 388 -15 q 119 81 213 -15 q 25 360 25 178 q 155 774 25 633 q 536 915 285 915 q 633 910 579 915 q 733 897 686 904 q 844 879 789 889 l 853 851 q 826 776 840 819 q 802 689 815 740 q 778 574 789 638 l 561 561 q 568 596 564 579 q 574 626 571 611 q 576 650 576 640 q 553 706 576 688 q 485 724 529 724 q 420 704 447 724 q 376 642 393 685 q 352 533 360 600 q 344 372 344 467 q 366 224 344 268 q 439 181 388 181 q 469 183 456 181 q 494 189 483 186 q 515 197 507 193 l 525 285 q 522 330 529 318 q 492 342 515 342 q 476 341 483 342 q 461 340 468 340 l 449 340 l 439 360 l 471 492 l 679 492 q 726 492 700 492 q 774 494 751 493 q 813 496 797 494 q 829 499 829 497 l 833 418 q 788 375 803 399 q 767 314 774 351 q 758 257 763 289 q 749 194 753 225 q 742 140 744 164 q 739 106 739 115 l 739 68 q 740 53 739 60 l 721 31 q 638 7 686 17 q 533 -8 596 -1 q 388 -15 471 -15 m 546 1153 q 639 1177 596 1153 q 710 1250 682 1201 l 746 1240 l 790 1154 q 751 1085 775 1118 q 694 1024 728 1051 q 619 981 661 997 q 524 965 576 965 q 432 981 471 965 q 367 1024 393 997 q 324 1085 340 1051 q 303 1154 308 1118 l 369 1240 l 408 1250 q 460 1177 422 1201 q 546 1153 497 1153 z "},"Ģ":{"ha":858,"x_min":25,"x_max":853,"o":"m 388 -15 q 119 81 213 -15 q 25 360 25 178 q 155 774 25 633 q 536 915 285 915 q 633 910 579 915 q 733 897 686 904 q 844 879 789 889 l 853 851 q 826 776 840 819 q 802 689 815 740 q 778 574 789 638 l 561 561 q 568 596 564 579 q 574 626 571 611 q 576 650 576 640 q 553 706 576 688 q 485 724 529 724 q 420 704 447 724 q 376 642 393 685 q 352 533 360 600 q 344 372 344 467 q 366 224 344 268 q 439 181 388 181 q 469 183 456 181 q 494 189 483 186 q 515 197 507 193 l 525 285 q 522 330 529 318 q 492 342 515 342 q 476 341 483 342 q 461 340 468 340 l 449 340 l 439 360 l 471 492 l 679 492 q 726 492 700 492 q 774 494 751 493 q 813 496 797 494 q 829 499 829 497 l 833 418 q 788 375 803 399 q 767 314 774 351 q 758 257 763 289 q 749 194 753 225 q 742 140 744 164 q 739 106 739 115 l 739 68 q 740 53 739 60 l 721 31 q 638 7 686 17 q 533 -8 596 -1 q 388 -15 471 -15 m 253 -108 q 328 -63 290 -79 q 394 -47 365 -47 q 480 -85 447 -47 q 513 -187 513 -124 q 451 -339 513 -261 q 281 -479 389 -417 l 200 -415 l 200 -381 q 265 -311 240 -351 q 289 -233 289 -271 q 278 -176 289 -206 q 249 -128 267 -147 l 253 -108 z "},"Ġ":{"ha":858,"x_min":25,"x_max":853,"o":"m 388 -15 q 119 81 213 -15 q 25 360 25 178 q 155 774 25 633 q 536 915 285 915 q 633 910 579 915 q 733 897 686 904 q 844 879 789 889 l 853 851 q 826 776 840 819 q 802 689 815 740 q 778 574 789 638 l 561 561 q 568 596 564 579 q 574 626 571 611 q 576 650 576 640 q 553 706 576 688 q 485 724 529 724 q 420 704 447 724 q 376 642 393 685 q 352 533 360 600 q 344 372 344 467 q 366 224 344 268 q 439 181 388 181 q 469 183 456 181 q 494 189 483 186 q 515 197 507 193 l 525 285 q 522 330 529 318 q 492 342 515 342 q 476 341 483 342 q 461 340 468 340 l 449 340 l 439 360 l 471 492 l 679 492 q 726 492 700 492 q 774 494 751 493 q 813 496 797 494 q 829 499 829 497 l 833 418 q 788 375 803 399 q 767 314 774 351 q 758 257 763 289 q 749 194 753 225 q 742 140 744 164 q 739 106 739 115 l 739 68 q 740 53 739 60 l 721 31 q 638 7 686 17 q 533 -8 596 -1 q 388 -15 471 -15 m 540 949 q 454 978 483 949 q 425 1060 425 1007 q 469 1180 425 1135 q 585 1225 513 1225 q 669 1195 640 1225 q 699 1113 699 1165 q 655 993 699 1038 q 540 949 611 949 z "},"H":{"ha":994,"x_min":-24,"x_max":1058,"o":"m 944 708 q 931 634 939 681 q 915 534 924 588 q 898 424 907 481 q 883 318 889 367 q 872 233 876 269 q 868 185 868 197 q 878 138 868 151 q 911 124 888 124 q 925 124 918 124 q 938 125 932 124 q 949 128 943 126 l 958 113 l 932 -3 q 882 -1 908 -1 q 829 -1 858 -1 q 767 0 800 -1 l 699 0 q 636 -1 675 0 q 561 -1 597 -1 l 471 -1 l 496 119 q 567 144 544 121 q 597 225 590 168 l 615 367 l 590 367 q 567 367 579 367 q 542 368 554 368 q 506 366 531 368 q 456 361 481 364 q 392 356 425 358 l 375 217 q 371 165 371 185 q 378 130 371 139 q 406 121 386 121 q 433 122 428 121 q 442 125 439 124 l 451 111 l 425 -6 q 333 -3 376 -4 q 260 -1 297 -1 q 201 0 222 0 q 131 -1 169 0 q 57 -4 92 -3 q -24 -7 17 -6 l 1 111 q 46 124 28 117 q 75 144 64 132 q 92 176 86 157 q 101 225 97 196 l 161 706 q 158 763 167 749 q 122 776 150 776 q 111 776 117 776 q 100 775 106 775 l 88 775 l 78 794 l 101 899 l 276 899 q 353 899 307 899 q 444 901 400 900 q 551 906 496 903 l 526 781 q 492 772 506 776 q 469 759 478 767 q 455 739 460 751 q 447 708 450 726 l 419 540 l 526 536 q 595 537 572 536 q 636 540 618 538 l 657 706 q 654 762 663 747 q 618 776 646 776 q 606 776 611 776 q 594 775 600 775 l 582 775 l 572 794 l 596 899 l 854 899 q 917 900 882 899 q 985 903 953 901 q 1058 906 1021 904 l 1035 783 q 994 774 1010 779 q 968 761 978 769 q 953 740 958 753 q 944 708 949 728 z "},"I":{"ha":499,"x_min":-24,"x_max":558,"o":"m 449 708 q 435 627 443 675 q 418 524 426 579 q 401 413 410 469 q 386 307 393 356 q 375 223 379 258 q 371 174 371 188 q 378 131 371 142 q 406 121 386 121 q 424 121 417 121 q 438 122 432 121 q 449 125 443 124 l 457 111 l 431 -6 q 339 -3 383 -4 q 263 -1 301 -1 q 204 0 225 0 q 133 -1 172 0 q 58 -4 93 -3 q -24 -7 18 -6 l 1 111 q 47 125 29 117 q 76 146 65 133 q 93 177 88 158 q 101 225 99 196 l 161 706 q 158 763 167 749 q 122 776 150 776 q 111 776 117 776 q 100 775 106 775 l 89 775 l 78 794 l 101 899 l 322 899 q 383 899 343 899 q 461 901 422 900 q 558 906 507 903 l 533 781 q 495 772 510 776 q 472 760 481 768 q 458 740 463 753 q 449 708 453 728 z "},"J":{"ha":457,"x_min":-97,"x_max":538,"o":"m 150 706 q 149 763 156 749 q 117 776 143 776 q 100 776 108 776 q 85 775 92 775 q 68 774 76 774 l 58 793 l 82 899 l 275 900 q 373 901 325 900 q 457 906 421 903 q 538 910 500 908 l 510 781 q 478 772 490 776 q 458 759 465 767 q 447 740 451 751 q 439 708 443 728 q 417 589 429 660 q 394 437 406 518 q 370 272 382 356 q 350 118 358 189 q 313 -2 340 51 q 236 -99 285 -56 q 117 -174 188 -142 q -49 -228 46 -206 l -97 -161 l -92 -140 q -16 -79 -46 -108 q 33 -14 14 -50 q 65 69 53 22 q 86 183 76 115 l 150 706 z "},"Í":{"ha":499,"x_min":-24,"x_max":558,"o":"m 449 708 q 435 627 443 675 q 418 524 426 579 q 401 413 410 469 q 386 307 393 356 q 375 223 379 258 q 371 174 371 188 q 378 131 371 142 q 406 121 386 121 q 424 121 417 121 q 438 122 432 121 q 449 125 443 124 l 457 111 l 431 -6 q 339 -3 383 -4 q 263 -1 301 -1 q 204 0 225 0 q 133 -1 172 0 q 58 -4 93 -3 q -24 -7 18 -6 l 1 111 q 47 125 29 117 q 76 146 65 133 q 93 177 88 158 q 101 225 99 196 l 161 706 q 158 763 167 749 q 122 776 150 776 q 111 776 117 776 q 100 775 106 775 l 89 775 l 78 794 l 101 899 l 322 899 q 383 899 343 899 q 461 901 422 900 q 558 906 507 903 l 533 781 q 495 772 510 776 q 472 760 481 768 q 458 740 463 753 q 449 708 453 728 m 542 1036 q 429 1014 488 1026 q 317 989 379 1003 q 189 960 254 975 l 163 978 l 133 1076 q 260 1125 197 1100 q 371 1169 322 1150 q 479 1215 428 1193 l 501 1208 l 551 1058 l 542 1036 z "},"Î":{"ha":499,"x_min":-24,"x_max":603,"o":"m 449 708 q 435 627 443 675 q 418 524 426 579 q 401 413 410 469 q 386 307 393 356 q 375 223 379 258 q 371 174 371 188 q 378 131 371 142 q 406 121 386 121 q 424 121 417 121 q 438 122 432 121 q 449 125 443 124 l 457 111 l 431 -6 q 339 -3 383 -4 q 263 -1 301 -1 q 204 0 225 0 q 133 -1 172 0 q 58 -4 93 -3 q -24 -7 18 -6 l 1 111 q 47 125 29 117 q 76 146 65 133 q 93 177 88 158 q 101 225 99 196 l 161 706 q 158 763 167 749 q 122 776 150 776 q 111 776 117 776 q 100 775 106 775 l 89 775 l 78 794 l 101 899 l 322 899 q 383 899 343 899 q 461 901 422 900 q 558 906 507 903 l 533 781 q 495 772 510 776 q 472 760 481 768 q 458 740 463 753 q 449 708 453 728 m 85 1069 q 178 1135 131 1101 q 263 1197 225 1169 q 349 1261 307 1231 l 386 1261 q 406 1247 386 1264 q 456 1201 425 1229 q 526 1138 488 1172 q 603 1069 564 1103 l 543 983 l 510 974 q 418 1013 467 993 q 340 1044 369 1033 q 256 1013 308 1033 q 154 974 204 993 l 124 983 l 85 1069 z "},"Ï":{"ha":499,"x_min":-24,"x_max":589,"o":"m 449 708 q 435 627 443 675 q 418 524 426 579 q 401 413 410 469 q 386 307 393 356 q 375 223 379 258 q 371 174 371 188 q 378 131 371 142 q 406 121 386 121 q 424 121 417 121 q 438 122 432 121 q 449 125 443 124 l 457 111 l 431 -6 q 339 -3 383 -4 q 263 -1 301 -1 q 204 0 225 0 q 133 -1 172 0 q 58 -4 93 -3 q -24 -7 18 -6 l 1 111 q 47 125 29 117 q 76 146 65 133 q 93 177 88 158 q 101 225 99 196 l 161 706 q 158 763 167 749 q 122 776 150 776 q 111 776 117 776 q 100 775 106 775 l 89 775 l 78 794 l 101 899 l 322 899 q 383 899 343 899 q 461 901 422 900 q 558 906 507 903 l 533 781 q 495 772 510 776 q 472 760 481 768 q 458 740 463 753 q 449 708 453 728 m 457 965 q 358 1058 358 965 q 395 1159 358 1121 q 493 1197 432 1197 q 565 1172 540 1197 q 589 1103 589 1147 q 553 1003 589 1040 q 457 965 517 965 m 196 965 q 99 1058 99 965 q 135 1159 99 1121 q 233 1197 172 1197 q 304 1172 279 1197 q 329 1103 329 1147 q 293 1003 329 1040 q 196 965 257 965 z "},"İ":{"ha":499,"x_min":-24,"x_max":558,"o":"m 449 708 q 435 627 443 675 q 418 524 426 579 q 401 413 410 469 q 386 307 393 356 q 375 223 379 258 q 371 174 371 188 q 378 131 371 142 q 406 121 386 121 q 424 121 417 121 q 438 122 432 121 q 449 125 443 124 l 457 111 l 431 -6 q 339 -3 383 -4 q 263 -1 301 -1 q 204 0 225 0 q 133 -1 172 0 q 58 -4 93 -3 q -24 -7 18 -6 l 1 111 q 47 125 29 117 q 76 146 65 133 q 93 177 88 158 q 101 225 99 196 l 161 706 q 158 763 167 749 q 122 776 150 776 q 111 776 117 776 q 100 775 106 775 l 89 775 l 78 794 l 101 899 l 322 899 q 383 899 343 899 q 461 901 422 900 q 558 906 507 903 l 533 781 q 495 772 510 776 q 472 760 481 768 q 458 740 463 753 q 449 708 453 728 m 326 949 q 240 978 269 949 q 211 1060 211 1007 q 255 1180 211 1135 q 371 1225 299 1225 q 456 1195 426 1225 q 485 1113 485 1165 q 441 993 485 1038 q 326 949 397 949 z "},"Ì":{"ha":499,"x_min":-24,"x_max":558,"o":"m 449 708 q 435 627 443 675 q 418 524 426 579 q 401 413 410 469 q 386 307 393 356 q 375 223 379 258 q 371 174 371 188 q 378 131 371 142 q 406 121 386 121 q 424 121 417 121 q 438 122 432 121 q 449 125 443 124 l 457 111 l 431 -6 q 339 -3 383 -4 q 263 -1 301 -1 q 204 0 225 0 q 133 -1 172 0 q 58 -4 93 -3 q -24 -7 18 -6 l 1 111 q 47 125 29 117 q 76 146 65 133 q 93 177 88 158 q 101 225 99 196 l 161 706 q 158 763 167 749 q 122 776 150 776 q 111 776 117 776 q 100 775 106 775 l 89 775 l 78 794 l 101 899 l 322 899 q 383 899 343 899 q 461 901 422 900 q 558 906 507 903 l 533 781 q 495 772 510 776 q 472 760 481 768 q 458 740 463 753 q 449 708 453 728 m 114 1058 l 164 1208 l 186 1215 q 294 1169 238 1193 q 405 1125 343 1150 q 532 1076 467 1100 l 503 978 l 476 960 q 348 989 411 975 q 235 1014 285 1003 q 124 1036 176 1026 l 114 1058 z "},"Į":{"ha":499,"x_min":-24,"x_max":558,"o":"m 433 -236 q 382 -276 407 -257 q 332 -310 358 -293 q 281 -336 306 -326 q 159 -306 201 -336 q 117 -225 117 -276 q 122 -181 117 -203 q 144 -133 128 -158 q 188 -75 160 -107 q 261 0 217 -43 l 204 0 q 133 -1 172 0 q 58 -4 93 -3 q -24 -7 18 -6 l 1 111 q 47 125 29 117 q 76 146 65 133 q 93 177 88 158 q 101 225 99 196 l 161 706 q 158 763 167 749 q 122 776 150 776 q 111 776 117 776 q 100 775 106 775 l 89 775 l 78 794 l 101 899 l 322 899 q 383 899 343 899 q 461 901 422 900 q 558 906 507 903 l 533 781 q 495 772 510 776 q 472 760 481 768 q 458 740 463 753 q 449 708 453 728 q 435 627 443 675 q 418 524 426 579 q 401 413 410 469 q 386 307 393 356 q 375 223 379 258 q 371 174 371 188 q 378 131 371 142 q 406 121 386 121 q 424 121 417 121 q 438 122 432 121 q 449 125 443 124 l 457 111 l 431 -6 q 411 -4 421 -4 q 390 -4 401 -4 q 367 -3 379 -4 q 315 -67 335 -40 q 285 -111 296 -93 q 270 -142 274 -129 q 267 -168 267 -156 q 279 -202 267 -189 q 313 -215 292 -215 q 343 -210 328 -215 q 372 -199 358 -206 q 404 -181 388 -192 l 433 -236 z "},"K":{"ha":939,"x_min":-24,"x_max":1004,"o":"m 161 706 q 158 763 167 749 q 122 776 150 776 q 111 776 117 776 q 100 775 106 775 l 88 775 l 78 794 l 103 900 q 204 899 158 899 l 322 899 q 383 899 343 899 q 463 901 422 900 q 560 906 508 903 l 535 781 q 465 752 482 767 q 444 703 447 738 l 375 217 q 374 140 368 160 q 406 121 379 121 q 424 121 417 121 q 438 122 432 121 q 449 125 443 124 l 458 111 l 432 -6 q 339 -3 383 -4 q 263 -1 301 -1 q 204 0 225 0 q 133 -1 172 0 q 58 -4 93 -3 q -24 -7 18 -6 l 1 111 q 46 124 28 117 q 75 144 64 132 q 92 176 86 157 q 101 225 99 196 l 161 706 m 426 482 l 583 656 q 617 701 604 678 q 631 739 631 724 q 620 765 631 757 q 582 775 610 772 l 575 789 l 601 903 q 675 900 639 901 q 739 899 706 899 q 796 899 772 899 q 848 899 814 899 q 914 901 882 900 q 994 906 951 903 l 1004 885 l 979 781 q 923 746 949 764 q 874 707 897 728 q 827 660 850 686 q 779 604 804 635 l 696 494 l 786 242 q 834 151 808 179 q 900 117 860 124 l 913 96 l 885 -7 q 790 -15 833 -11 q 719 -20 754 -18 q 671 -22 683 -22 q 589 2 618 -22 q 538 90 560 26 l 414 440 l 426 482 z "},"Ķ":{"ha":939,"x_min":-24,"x_max":1004,"o":"m 161 706 q 158 763 167 749 q 122 776 150 776 q 111 776 117 776 q 100 775 106 775 l 88 775 l 78 794 l 103 900 q 204 899 158 899 l 322 899 q 383 899 343 899 q 463 901 422 900 q 560 906 508 903 l 535 781 q 465 752 482 767 q 444 703 447 738 l 375 217 q 374 140 368 160 q 406 121 379 121 q 424 121 417 121 q 438 122 432 121 q 449 125 443 124 l 458 111 l 432 -6 q 339 -3 383 -4 q 263 -1 301 -1 q 204 0 225 0 q 133 -1 172 0 q 58 -4 93 -3 q -24 -7 18 -6 l 1 111 q 46 124 28 117 q 75 144 64 132 q 92 176 86 157 q 101 225 99 196 l 161 706 m 426 482 l 583 656 q 617 701 604 678 q 631 739 631 724 q 620 765 631 757 q 582 775 610 772 l 575 789 l 601 903 q 675 900 639 901 q 739 899 706 899 q 796 899 772 899 q 848 899 814 899 q 914 901 882 900 q 994 906 951 903 l 1004 885 l 979 781 q 923 746 949 764 q 874 707 897 728 q 827 660 850 686 q 779 604 804 635 l 696 494 l 786 242 q 834 151 808 179 q 900 117 860 124 l 913 96 l 885 -7 q 790 -15 833 -11 q 719 -20 754 -18 q 671 -22 683 -22 q 589 2 618 -22 q 538 90 560 26 l 414 440 l 426 482 m 306 -108 q 381 -63 343 -79 q 447 -47 418 -47 q 533 -85 500 -47 q 565 -187 565 -124 q 503 -339 565 -261 q 333 -479 442 -417 l 253 -415 l 253 -381 q 317 -311 293 -351 q 342 -233 342 -271 q 331 -176 342 -206 q 301 -128 319 -147 l 306 -108 z "},"L":{"ha":754,"x_min":-28,"x_max":761,"o":"m 263 0 q 158 -2 210 0 q 65 -7 107 -4 q -28 -14 17 -11 l 0 114 q 73 148 51 122 q 101 236 94 174 l 160 706 q 157 763 165 749 q 121 776 149 776 q 110 776 115 776 q 99 775 104 775 l 86 775 l 76 794 l 100 899 l 321 899 q 392 899 344 899 q 489 901 440 900 q 607 906 544 903 l 575 769 q 478 748 504 763 q 446 697 451 733 q 433 622 440 667 q 417 526 425 576 q 401 425 410 476 q 387 329 393 374 q 377 251 381 285 q 374 204 374 218 q 414 160 374 160 q 472 169 449 160 q 513 203 496 178 q 542 272 529 228 q 567 386 554 317 l 747 404 l 761 383 q 736 271 750 331 q 711 152 725 219 q 683 13 697 85 l 660 -10 q 535 -6 601 -8 q 408 -1 478 -3 q 263 0 338 0 z "},"Ĺ":{"ha":754,"x_min":-28,"x_max":761,"o":"m 263 0 q 158 -2 210 0 q 65 -7 107 -4 q -28 -14 17 -11 l 0 114 q 73 148 51 122 q 101 236 94 174 l 160 706 q 157 763 165 749 q 121 776 149 776 q 110 776 115 776 q 99 775 104 775 l 86 775 l 76 794 l 100 899 l 321 899 q 392 899 344 899 q 489 901 440 900 q 607 906 544 903 l 575 769 q 478 748 504 763 q 446 697 451 733 q 433 622 440 667 q 417 526 425 576 q 401 425 410 476 q 387 329 393 374 q 377 251 381 285 q 374 204 374 218 q 414 160 374 160 q 472 169 449 160 q 513 203 496 178 q 542 272 529 228 q 567 386 554 317 l 747 404 l 761 383 q 736 271 750 331 q 711 152 725 219 q 683 13 697 85 l 660 -10 q 535 -6 601 -8 q 408 -1 478 -3 q 263 0 338 0 m 547 1036 q 435 1014 493 1026 q 322 989 385 1003 q 194 960 260 975 l 168 978 l 139 1076 q 265 1125 203 1100 q 376 1169 328 1150 q 485 1215 433 1193 l 507 1208 l 557 1058 l 547 1036 z "},"Ľ":{"ha":807,"x_min":-28,"x_max":850,"o":"m 263 0 q 158 -2 210 0 q 65 -7 107 -4 q -28 -14 17 -11 l 0 114 q 73 148 51 122 q 101 236 94 174 l 160 706 q 157 763 165 749 q 121 776 149 776 q 110 776 115 776 q 99 775 104 775 l 86 775 l 76 794 l 100 899 l 321 899 q 392 899 344 899 q 489 901 440 900 q 607 906 544 903 l 575 769 q 478 748 504 763 q 446 697 451 733 q 433 622 440 667 q 417 526 425 576 q 401 425 410 476 q 387 329 393 374 q 377 251 381 285 q 374 204 374 218 q 414 160 374 160 q 472 169 449 160 q 513 203 496 178 q 542 272 529 228 q 567 386 554 317 l 747 404 l 761 383 q 736 271 750 331 q 711 152 725 219 q 683 13 697 85 l 660 -10 q 535 -6 601 -8 q 408 -1 478 -3 q 263 0 338 0 m 850 882 q 835 786 843 836 q 817 688 828 743 q 792 575 806 633 l 690 540 l 664 549 q 663 670 665 611 q 658 776 661 729 q 651 879 654 831 l 838 899 l 850 882 z "},"Ļ":{"ha":754,"x_min":-28,"x_max":761,"o":"m 263 0 q 158 -2 210 0 q 65 -7 107 -4 q -28 -14 17 -11 l 0 114 q 73 148 51 122 q 101 236 94 174 l 160 706 q 157 763 165 749 q 121 776 149 776 q 110 776 115 776 q 99 775 104 775 l 86 775 l 76 794 l 100 899 l 321 899 q 392 899 344 899 q 489 901 440 900 q 607 906 544 903 l 575 769 q 478 748 504 763 q 446 697 451 733 q 433 622 440 667 q 417 526 425 576 q 401 425 410 476 q 387 329 393 374 q 377 251 381 285 q 374 204 374 218 q 414 160 374 160 q 472 169 449 160 q 513 203 496 178 q 542 272 529 228 q 567 386 554 317 l 747 404 l 761 383 q 736 271 750 331 q 711 152 725 219 q 683 13 697 85 l 660 -10 q 535 -6 601 -8 q 408 -1 478 -3 q 263 0 338 0 m 188 -108 q 263 -63 225 -79 q 329 -47 300 -47 q 415 -85 382 -47 q 447 -187 447 -124 q 385 -339 447 -261 q 215 -479 324 -417 l 135 -415 l 135 -381 q 199 -311 175 -351 q 224 -233 224 -271 q 213 -176 224 -206 q 183 -128 201 -147 l 188 -108 z "},"Ŀ":{"ha":838,"x_min":-28,"x_max":849,"o":"m 263 0 q 158 -2 210 0 q 65 -7 107 -4 q -28 -14 17 -11 l 0 114 q 73 148 51 122 q 101 236 94 174 l 160 706 q 157 763 165 749 q 121 776 149 776 q 110 776 115 776 q 99 775 104 775 l 86 775 l 76 794 l 100 899 l 321 899 q 392 899 344 899 q 489 901 440 900 q 607 906 544 903 l 575 769 q 478 748 504 763 q 446 697 451 733 q 433 622 440 667 q 417 526 425 576 q 401 425 410 476 q 387 329 393 374 q 377 251 381 285 q 374 204 374 218 q 414 160 374 160 q 472 169 449 160 q 513 203 496 178 q 542 272 529 228 q 567 386 554 317 l 747 404 l 761 383 q 736 271 750 331 q 711 152 725 219 q 683 13 697 85 l 660 -10 q 535 -6 601 -8 q 408 -1 478 -3 q 263 0 338 0 m 690 525 q 605 554 633 525 q 576 636 576 583 q 620 756 576 711 q 736 801 664 801 q 819 772 790 801 q 849 689 849 742 q 805 569 849 614 q 690 525 761 525 z "},"·":{"ha":321,"x_min":26,"x_max":299,"o":"m 140 214 q 55 243 83 214 q 26 325 26 272 q 70 445 26 400 q 186 490 114 490 q 269 460 240 490 q 299 378 299 431 q 255 258 299 303 q 140 214 211 214 z "},"Ł":{"ha":754,"x_min":-28,"x_max":761,"o":"m 263 0 q 158 -2 210 0 q 65 -7 107 -4 q -28 -14 17 -11 l 0 114 q 73 148 51 122 q 101 236 94 174 l 111 317 l 61 292 l 47 294 l 4 425 l 132 489 l 160 706 q 157 763 165 749 q 121 776 149 776 q 110 776 115 776 q 99 775 104 775 l 86 775 l 76 794 l 100 899 l 321 899 q 392 899 344 899 q 489 901 440 900 q 607 906 544 903 l 575 769 q 478 748 504 763 q 446 697 451 733 l 431 607 l 535 660 l 547 654 l 590 525 l 401 431 q 391 356 396 392 q 382 289 386 319 q 376 236 378 258 q 374 204 374 214 q 414 160 374 160 q 472 169 449 160 q 513 203 496 178 q 542 272 529 228 q 567 386 554 317 l 747 404 l 761 383 q 736 271 750 331 q 711 152 725 219 q 683 13 697 85 l 660 -10 q 535 -6 601 -8 q 408 -1 478 -3 q 263 0 338 0 z "},"M":{"ha":1122,"x_min":-35,"x_max":1153,"o":"m 407 -17 q 379 178 392 93 q 358 326 367 263 q 342 432 349 389 q 332 504 336 475 l 314 504 q 290 339 300 413 q 282 276 286 307 q 275 221 278 246 q 270 179 272 196 q 268 160 268 163 q 307 122 268 122 q 316 122 310 122 q 328 124 322 122 q 342 125 333 124 l 353 114 l 321 -6 q 240 -3 278 -4 q 176 -1 208 -1 q 126 0 143 0 q 78 -1 106 0 q 25 -5 50 -3 q -17 -9 0 -7 q -35 -11 -35 -11 l -8 114 q 49 139 29 118 q 79 206 68 160 q 91 258 82 217 q 112 354 100 299 q 137 473 124 410 q 161 591 150 536 q 179 685 172 646 q 186 735 186 725 q 184 750 186 743 q 174 761 182 757 q 151 769 167 765 q 110 775 136 772 l 100 786 l 128 906 q 207 901 169 903 q 272 899 239 900 q 328 899 306 899 q 393 899 356 899 q 464 901 431 900 q 542 904 503 903 q 551 747 544 825 q 565 606 558 669 q 581 463 572 531 l 599 463 q 654 606 626 532 q 706 745 678 668 q 760 899 733 822 q 889 897 826 899 q 1017 900 951 896 q 1064 902 1042 901 q 1104 904 1086 903 q 1143 907 1125 906 l 1153 901 l 1126 779 q 1081 774 1099 778 q 1053 763 1064 771 q 1038 742 1043 756 q 1031 708 1033 729 q 1023 618 1026 676 q 1017 493 1019 560 q 1011 360 1014 426 q 1007 244 1008 293 q 1014 150 1004 176 q 1054 124 1024 124 q 1069 124 1061 124 q 1082 125 1076 124 q 1094 126 1088 125 l 1103 115 l 1076 -4 q 1026 -3 1051 -4 q 978 -1 1004 -1 q 928 0 951 -1 q 900 -1 921 0 q 851 -2 879 -1 q 792 -3 824 -3 q 733 -6 761 -4 q 685 -8 706 -7 q 661 -11 665 -10 l 693 115 q 748 135 731 119 q 769 183 765 150 q 773 215 771 194 q 778 260 775 235 q 784 312 781 285 q 790 367 788 339 q 806 504 797 431 l 788 504 q 769 459 786 500 q 724 349 751 418 q 660 190 696 281 q 585 -3 624 100 l 407 -17 z "},"N":{"ha":997,"x_min":-17,"x_max":1069,"o":"m 689 463 l 714 717 q 709 765 717 753 q 678 776 701 776 l 636 776 l 631 792 l 651 904 q 736 901 694 903 q 811 899 772 900 q 879 899 850 899 q 942 899 908 899 q 1003 901 975 900 q 1051 902 1032 901 q 1069 903 1069 903 l 1047 778 q 985 752 1003 771 q 960 690 967 733 l 857 0 l 590 -17 q 510 163 547 81 q 444 307 472 244 q 382 438 411 378 l 361 438 l 336 190 q 341 135 332 150 q 381 119 350 119 q 394 120 386 119 q 408 122 401 121 q 425 125 417 124 l 436 113 l 407 -6 q 324 -3 364 -4 q 253 -1 289 -1 q 197 0 218 0 q 124 -1 161 0 q 54 -6 86 -3 q -17 -11 18 -8 l 13 114 q 73 140 53 119 q 100 201 93 160 l 175 686 q 176 725 178 710 q 165 750 175 740 q 136 765 156 760 q 86 774 117 769 l 72 793 l 93 906 q 157 901 124 903 q 221 899 185 900 q 296 899 257 899 q 355 899 324 899 q 413 901 386 900 q 474 904 443 903 q 542 740 507 819 q 604 599 576 661 q 668 463 638 526 l 689 463 z "},"Ń":{"ha":997,"x_min":-17,"x_max":1069,"o":"m 689 463 l 714 717 q 709 765 717 753 q 678 776 701 776 l 636 776 l 631 792 l 651 904 q 736 901 694 903 q 811 899 772 900 q 879 899 850 899 q 942 899 908 899 q 1003 901 975 900 q 1051 902 1032 901 q 1069 903 1069 903 l 1047 778 q 985 752 1003 771 q 960 690 967 733 l 857 0 l 590 -17 q 510 163 547 81 q 444 307 472 244 q 382 438 411 378 l 361 438 l 336 190 q 341 135 332 150 q 381 119 350 119 q 394 120 386 119 q 408 122 401 121 q 425 125 417 124 l 436 113 l 407 -6 q 324 -3 364 -4 q 253 -1 289 -1 q 197 0 218 0 q 124 -1 161 0 q 54 -6 86 -3 q -17 -11 18 -8 l 13 114 q 73 140 53 119 q 100 201 93 160 l 175 686 q 176 725 178 710 q 165 750 175 740 q 136 765 156 760 q 86 774 117 769 l 72 793 l 93 906 q 157 901 124 903 q 221 899 185 900 q 296 899 257 899 q 355 899 324 899 q 413 901 386 900 q 474 904 443 903 q 542 740 507 819 q 604 599 576 661 q 668 463 638 526 l 689 463 m 760 1036 q 647 1014 706 1026 q 535 989 597 1003 q 407 960 472 975 l 381 978 l 351 1076 q 478 1125 415 1100 q 589 1169 540 1150 q 697 1215 646 1193 l 719 1208 l 769 1058 l 760 1036 z "},"Ň":{"ha":997,"x_min":-17,"x_max":1069,"o":"m 689 463 l 714 717 q 709 765 717 753 q 678 776 701 776 l 636 776 l 631 792 l 651 904 q 736 901 694 903 q 811 899 772 900 q 879 899 850 899 q 942 899 908 899 q 1003 901 975 900 q 1051 902 1032 901 q 1069 903 1069 903 l 1047 778 q 985 752 1003 771 q 960 690 967 733 l 857 0 l 590 -17 q 510 163 547 81 q 444 307 472 244 q 382 438 411 378 l 361 438 l 336 190 q 341 135 332 150 q 381 119 350 119 q 394 120 386 119 q 408 122 401 121 q 425 125 417 124 l 436 113 l 407 -6 q 324 -3 364 -4 q 253 -1 289 -1 q 197 0 218 0 q 124 -1 161 0 q 54 -6 86 -3 q -17 -11 18 -8 l 13 114 q 73 140 53 119 q 100 201 93 160 l 175 686 q 176 725 178 710 q 165 750 175 740 q 136 765 156 760 q 86 774 117 769 l 72 793 l 93 906 q 157 901 124 903 q 221 899 185 900 q 296 899 257 899 q 355 899 324 899 q 413 901 386 900 q 474 904 443 903 q 542 740 507 819 q 604 599 576 661 q 668 463 638 526 l 689 463 m 869 1147 q 775 1081 822 1115 q 690 1019 728 1047 q 604 956 644 986 l 567 956 q 497 1019 533 986 q 428 1081 465 1047 q 351 1147 390 1115 l 410 1233 l 443 1243 q 488 1223 464 1233 q 535 1203 513 1213 q 578 1186 558 1194 q 613 1172 599 1178 q 697 1203 644 1183 q 799 1243 749 1224 l 829 1233 l 869 1147 z "},"Ņ":{"ha":997,"x_min":-17,"x_max":1069,"o":"m 689 463 l 714 717 q 709 765 717 753 q 678 776 701 776 l 636 776 l 631 792 l 651 904 q 736 901 694 903 q 811 899 772 900 q 879 899 850 899 q 942 899 908 899 q 1003 901 975 900 q 1051 902 1032 901 q 1069 903 1069 903 l 1047 778 q 985 752 1003 771 q 960 690 967 733 l 857 0 l 590 -17 q 510 163 547 81 q 444 307 472 244 q 382 438 411 378 l 361 438 l 336 190 q 341 135 332 150 q 381 119 350 119 q 394 120 386 119 q 408 122 401 121 q 425 125 417 124 l 436 113 l 407 -6 q 324 -3 364 -4 q 253 -1 289 -1 q 197 0 218 0 q 124 -1 161 0 q 54 -6 86 -3 q -17 -11 18 -8 l 13 114 q 73 140 53 119 q 100 201 93 160 l 175 686 q 176 725 178 710 q 165 750 175 740 q 136 765 156 760 q 86 774 117 769 l 72 793 l 93 906 q 157 901 124 903 q 221 899 185 900 q 296 899 257 899 q 355 899 324 899 q 413 901 386 900 q 474 904 443 903 q 542 740 507 819 q 604 599 576 661 q 668 463 638 526 l 689 463 m 321 -108 q 396 -63 358 -79 q 463 -47 433 -47 q 548 -85 515 -47 q 581 -187 581 -124 q 519 -339 581 -261 q 349 -479 457 -417 l 268 -415 l 268 -381 q 333 -311 308 -351 q 357 -233 357 -271 q 346 -176 357 -206 q 317 -128 335 -147 l 321 -108 z "},"Ñ":{"ha":997,"x_min":-17,"x_max":1069,"o":"m 689 463 l 714 717 q 709 765 717 753 q 678 776 701 776 l 636 776 l 631 792 l 651 904 q 736 901 694 903 q 811 899 772 900 q 879 899 850 899 q 942 899 908 899 q 1003 901 975 900 q 1051 902 1032 901 q 1069 903 1069 903 l 1047 778 q 985 752 1003 771 q 960 690 967 733 l 857 0 l 590 -17 q 510 163 547 81 q 444 307 472 244 q 382 438 411 378 l 361 438 l 336 190 q 341 135 332 150 q 381 119 350 119 q 394 120 386 119 q 408 122 401 121 q 425 125 417 124 l 436 113 l 407 -6 q 324 -3 364 -4 q 253 -1 289 -1 q 197 0 218 0 q 124 -1 161 0 q 54 -6 86 -3 q -17 -11 18 -8 l 13 114 q 73 140 53 119 q 100 201 93 160 l 175 686 q 176 725 178 710 q 165 750 175 740 q 136 765 156 760 q 86 774 117 769 l 72 793 l 93 906 q 157 901 124 903 q 221 899 185 900 q 296 899 257 899 q 355 899 324 899 q 413 901 386 900 q 474 904 443 903 q 542 740 507 819 q 604 599 576 661 q 668 463 638 526 l 689 463 m 401 938 l 329 1013 l 332 1035 l 461 1194 l 485 1200 q 531 1192 503 1200 q 588 1176 558 1185 q 644 1160 618 1168 q 686 1153 671 1153 q 716 1165 699 1153 q 749 1193 733 1178 q 788 1233 767 1210 l 810 1233 l 882 1158 l 879 1136 l 750 976 l 726 971 q 681 978 708 971 q 623 994 653 986 q 567 1010 593 1003 q 525 1018 540 1018 q 494 1006 511 1018 q 461 978 476 993 q 424 938 443 960 l 401 938 z "},"O":{"ha":879,"x_min":25,"x_max":886,"o":"m 431 158 q 492 181 467 158 q 534 251 518 203 q 558 376 550 300 q 565 558 565 451 q 543 685 565 644 q 475 725 521 725 q 374 631 406 725 q 343 325 343 538 q 365 199 343 239 q 431 158 386 158 m 393 -17 q 122 78 219 -17 q 25 356 25 174 q 150 769 25 624 q 517 915 275 915 q 790 825 694 915 q 886 553 886 735 q 853 313 886 419 q 758 134 821 207 q 604 22 696 61 q 393 -17 513 -17 z "},"Œ":{"ha":1229,"x_min":25,"x_max":1281,"o":"m 793 243 q 796 174 786 189 q 846 160 806 160 q 915 165 888 160 q 960 187 942 171 q 990 231 978 203 q 1014 307 1003 260 l 1194 319 l 1208 299 q 1185 213 1197 258 q 1160 121 1174 172 q 1136 13 1147 69 l 1113 -10 q 974 -3 1046 -7 q 833 2 911 0 q 676 4 756 4 q 528 -5 601 4 q 401 -14 456 -14 q 124 82 224 -14 q 25 360 25 178 q 145 763 25 624 q 508 903 265 903 q 656 894 575 903 q 831 886 738 886 q 931 888 875 886 q 1044 894 986 890 q 1160 903 1103 899 q 1265 915 1217 908 l 1281 893 q 1257 804 1268 850 q 1235 715 1246 764 q 1217 617 1225 665 l 1022 604 q 1028 629 1025 617 q 1032 651 1031 640 q 1033 672 1033 663 q 1009 720 1033 708 q 913 732 985 732 q 876 725 885 732 q 865 694 868 718 l 838 538 l 946 536 q 986 537 961 536 q 1035 540 1011 538 q 1094 544 1063 542 l 1110 525 l 1071 365 q 1014 367 1042 365 q 963 369 990 368 q 911 369 935 369 l 810 361 l 793 243 m 429 150 q 529 272 515 150 l 572 610 q 478 733 588 733 q 375 631 410 733 q 340 326 340 529 q 360 190 340 231 q 429 150 381 150 z "},"Ó":{"ha":879,"x_min":25,"x_max":886,"o":"m 431 158 q 492 181 467 158 q 534 251 518 203 q 558 376 550 300 q 565 558 565 451 q 543 685 565 644 q 475 725 521 725 q 374 631 406 725 q 343 325 343 538 q 365 199 343 239 q 431 158 386 158 m 393 -17 q 122 78 219 -17 q 25 356 25 174 q 150 769 25 624 q 517 915 275 915 q 790 825 694 915 q 886 553 886 735 q 853 313 886 419 q 758 134 821 207 q 604 22 696 61 q 393 -17 513 -17 m 724 1036 q 611 1014 669 1026 q 499 989 561 1003 q 371 960 436 975 l 344 978 l 315 1076 q 442 1125 379 1100 q 553 1169 504 1150 q 661 1215 610 1193 l 683 1208 l 733 1058 l 724 1036 z "},"Ô":{"ha":879,"x_min":25,"x_max":886,"o":"m 431 158 q 492 181 467 158 q 534 251 518 203 q 558 376 550 300 q 565 558 565 451 q 543 685 565 644 q 475 725 521 725 q 374 631 406 725 q 343 325 343 538 q 365 199 343 239 q 431 158 386 158 m 393 -17 q 122 78 219 -17 q 25 356 25 174 q 150 769 25 624 q 517 915 275 915 q 790 825 694 915 q 886 553 886 735 q 853 313 886 419 q 758 134 821 207 q 604 22 696 61 q 393 -17 513 -17 m 274 1069 q 367 1135 319 1101 q 451 1197 414 1169 q 538 1261 496 1231 l 575 1261 q 594 1247 575 1264 q 645 1201 614 1229 q 715 1138 676 1172 q 792 1069 753 1103 l 732 983 l 699 974 q 607 1013 656 993 q 529 1044 558 1033 q 445 1013 497 1033 q 343 974 393 993 l 313 983 l 274 1069 z "},"Ö":{"ha":879,"x_min":25,"x_max":886,"o":"m 431 158 q 492 181 467 158 q 534 251 518 203 q 558 376 550 300 q 565 558 565 451 q 543 685 565 644 q 475 725 521 725 q 374 631 406 725 q 343 325 343 538 q 365 199 343 239 q 431 158 386 158 m 393 -17 q 122 78 219 -17 q 25 356 25 174 q 150 769 25 624 q 517 915 275 915 q 790 825 694 915 q 886 553 886 735 q 853 313 886 419 q 758 134 821 207 q 604 22 696 61 q 393 -17 513 -17 m 646 965 q 547 1058 547 965 q 584 1159 547 1121 q 682 1197 621 1197 q 753 1172 729 1197 q 778 1103 778 1147 q 742 1003 778 1040 q 646 965 706 965 m 385 965 q 288 1058 288 965 q 324 1159 288 1121 q 422 1197 361 1197 q 493 1172 468 1197 q 518 1103 518 1147 q 482 1003 518 1040 q 385 965 446 965 z "},"Ò":{"ha":879,"x_min":25,"x_max":886,"o":"m 431 158 q 492 181 467 158 q 534 251 518 203 q 558 376 550 300 q 565 558 565 451 q 543 685 565 644 q 475 725 521 725 q 374 631 406 725 q 343 325 343 538 q 365 199 343 239 q 431 158 386 158 m 393 -17 q 122 78 219 -17 q 25 356 25 174 q 150 769 25 624 q 517 915 275 915 q 790 825 694 915 q 886 553 886 735 q 853 313 886 419 q 758 134 821 207 q 604 22 696 61 q 393 -17 513 -17 m 317 1058 l 367 1208 l 389 1215 q 497 1169 440 1193 q 608 1125 546 1150 q 735 1076 669 1100 l 706 978 l 679 960 q 551 989 614 975 q 438 1014 488 1003 q 326 1036 379 1026 l 317 1058 z "},"Ő":{"ha":879,"x_min":25,"x_max":886,"o":"m 431 158 q 492 181 467 158 q 534 251 518 203 q 558 376 550 300 q 565 558 565 451 q 543 685 565 644 q 475 725 521 725 q 374 631 406 725 q 343 325 343 538 q 365 199 343 239 q 431 158 386 158 m 393 -17 q 122 78 219 -17 q 25 356 25 174 q 150 769 25 624 q 517 915 275 915 q 790 825 694 915 q 886 553 886 735 q 853 313 886 419 q 758 134 821 207 q 604 22 696 61 q 393 -17 513 -17 m 547 1089 q 471 1042 511 1067 q 394 993 436 1021 q 307 936 351 965 l 281 943 l 228 1010 q 305 1086 268 1049 q 371 1154 342 1124 q 435 1221 406 1190 l 456 1222 l 547 1110 l 547 1089 m 822 1089 q 746 1042 786 1067 q 669 993 711 1021 q 582 936 626 965 l 556 943 l 503 1010 q 580 1086 543 1049 q 646 1154 617 1124 q 710 1221 681 1190 l 731 1222 l 822 1110 l 822 1089 z "},"Ō":{"ha":879,"x_min":25,"x_max":886,"o":"m 431 158 q 492 181 467 158 q 534 251 518 203 q 558 376 550 300 q 565 558 565 451 q 543 685 565 644 q 475 725 521 725 q 374 631 406 725 q 343 325 343 538 q 365 199 343 239 q 431 158 386 158 m 393 -17 q 122 78 219 -17 q 25 356 25 174 q 150 769 25 624 q 517 915 275 915 q 790 825 694 915 q 886 553 886 735 q 853 313 886 419 q 758 134 821 207 q 604 22 696 61 q 393 -17 513 -17 m 754 1118 l 710 967 l 521 965 q 459 965 490 965 q 401 964 428 964 l 342 964 l 322 985 l 367 1136 q 440 1135 404 1135 l 574 1135 q 628 1135 599 1135 q 683 1139 658 1136 q 742 1143 713 1140 l 754 1118 z "},"Ø":{"ha":879,"x_min":13,"x_max":892,"o":"m 118 83 q 49 199 74 131 q 25 356 25 267 q 150 769 25 624 q 517 915 275 915 q 658 896 593 915 l 754 1044 l 889 969 l 892 951 l 800 813 q 886 553 886 718 q 853 313 886 419 q 758 134 821 207 q 604 22 696 61 q 393 -17 513 -17 q 260 0 319 -17 l 150 -162 l 18 -86 l 13 -72 l 118 83 m 431 158 q 492 181 467 158 q 534 251 518 203 q 558 376 550 300 q 565 558 565 451 q 543 685 565 644 q 475 725 521 725 q 374 631 406 725 q 343 325 343 538 q 365 199 343 239 q 431 158 386 158 z "},"Õ":{"ha":879,"x_min":25,"x_max":886,"o":"m 431 158 q 492 181 467 158 q 534 251 518 203 q 558 376 550 300 q 565 558 565 451 q 543 685 565 644 q 475 725 521 725 q 374 631 406 725 q 343 325 343 538 q 365 199 343 239 q 431 158 386 158 m 393 -17 q 122 78 219 -17 q 25 356 25 174 q 150 769 25 624 q 517 915 275 915 q 790 825 694 915 q 886 553 886 735 q 853 313 886 419 q 758 134 821 207 q 604 22 696 61 q 393 -17 513 -17 m 332 938 l 260 1013 l 263 1035 l 392 1194 l 415 1200 q 461 1192 433 1200 q 519 1176 489 1185 q 575 1160 549 1168 q 617 1153 601 1153 q 647 1165 629 1153 q 679 1193 664 1178 q 718 1233 697 1210 l 740 1233 l 813 1158 l 810 1136 l 681 976 l 657 971 q 611 978 639 971 q 553 994 583 986 q 497 1010 524 1003 q 456 1018 471 1018 q 424 1006 442 1018 q 392 978 407 993 q 354 938 374 960 l 332 938 z "},"P":{"ha":821,"x_min":-26,"x_max":882,"o":"m 103 899 l 297 899 q 360 899 321 899 q 438 903 399 900 q 532 907 483 904 q 707 883 639 907 q 814 821 775 858 q 867 740 853 783 q 882 657 882 696 q 849 515 882 582 q 764 399 817 449 q 642 319 711 349 q 500 289 572 289 l 385 289 l 376 222 q 380 144 369 165 q 432 122 390 122 q 446 122 439 122 q 460 124 453 122 q 475 125 467 124 l 481 114 l 453 -6 q 363 -3 406 -4 q 288 -1 326 -1 q 228 0 250 0 q 162 -2 204 0 q 78 -7 119 -4 q -26 -12 29 -10 l 1 115 q 74 149 51 124 q 103 233 96 175 l 161 701 q 161 760 167 744 q 136 776 156 776 q 119 776 128 776 q 104 775 111 775 q 88 774 96 774 l 76 790 l 103 899 m 496 446 q 571 513 549 465 q 593 628 593 561 q 565 708 593 683 q 474 733 536 733 q 456 728 460 733 q 449 703 451 722 q 428 588 439 650 q 408 460 418 526 l 496 446 z "},"Q":{"ha":885,"x_min":25,"x_max":1054,"o":"m 379 -17 q 119 82 213 -12 q 25 356 25 176 q 150 769 25 624 q 517 915 275 915 q 790 825 694 915 q 886 553 886 735 q 819 225 886 358 q 622 29 753 92 l 622 25 q 760 -67 685 -33 q 903 -100 836 -100 q 988 -93 949 -100 q 1028 -86 1008 -90 l 1042 -101 l 1054 -196 q 943 -267 994 -236 q 856 -315 899 -293 q 794 -336 814 -336 q 717 -324 753 -336 q 636 -278 681 -312 q 531 -181 592 -243 q 379 -17 469 -118 m 431 158 q 492 181 467 158 q 534 251 518 203 q 558 376 550 300 q 565 558 565 451 q 543 685 565 644 q 475 725 521 725 q 374 631 406 725 q 343 325 343 538 q 365 199 343 239 q 431 158 386 158 z "},"R":{"ha":918,"x_min":-26,"x_max":900,"o":"m 388 317 l 376 222 q 373 171 372 190 q 382 141 374 151 q 409 127 390 131 q 460 122 428 124 l 465 111 l 438 -6 q 346 -3 389 -4 q 272 -1 310 -1 q 213 0 233 0 q 133 -2 174 0 q 56 -7 92 -4 q -26 -12 14 -10 l 1 115 q 74 149 51 124 q 103 233 96 174 l 163 715 q 161 763 167 750 q 136 776 156 776 q 119 776 128 776 q 104 775 111 775 q 88 774 96 774 l 76 790 l 104 900 q 179 899 143 899 l 297 899 q 363 899 322 899 q 443 903 403 900 q 539 907 489 904 q 807 850 714 907 q 900 679 900 793 q 706 383 900 494 l 768 239 q 824 148 794 179 q 882 117 854 117 l 894 94 l 869 -7 l 654 -22 q 565 6 596 -22 q 515 104 533 35 l 461 317 l 388 317 m 513 478 q 610 636 610 515 q 475 733 610 733 q 456 728 460 733 q 449 703 451 722 q 434 622 440 654 q 424 567 428 590 q 418 527 421 544 q 413 492 415 510 l 513 478 z "},"Ŕ":{"ha":918,"x_min":-26,"x_max":900,"o":"m 388 317 l 376 222 q 373 171 372 190 q 382 141 374 151 q 409 127 390 131 q 460 122 428 124 l 465 111 l 438 -6 q 346 -3 389 -4 q 272 -1 310 -1 q 213 0 233 0 q 133 -2 174 0 q 56 -7 92 -4 q -26 -12 14 -10 l 1 115 q 74 149 51 124 q 103 233 96 174 l 163 715 q 161 763 167 750 q 136 776 156 776 q 119 776 128 776 q 104 775 111 775 q 88 774 96 774 l 76 790 l 104 900 q 179 899 143 899 l 297 899 q 363 899 322 899 q 443 903 403 900 q 539 907 489 904 q 807 850 714 907 q 900 679 900 793 q 706 383 900 494 l 768 239 q 824 148 794 179 q 882 117 854 117 l 894 94 l 869 -7 l 654 -22 q 565 6 596 -22 q 515 104 533 35 l 461 317 l 388 317 m 513 478 q 610 636 610 515 q 475 733 610 733 q 456 728 460 733 q 449 703 451 722 q 434 622 440 654 q 424 567 428 590 q 418 527 421 544 q 413 492 415 510 l 513 478 m 701 1036 q 589 1014 647 1026 q 476 989 539 1003 q 349 960 414 975 l 322 978 l 293 1076 q 419 1125 357 1100 q 531 1169 482 1150 q 639 1215 588 1193 l 661 1208 l 711 1058 l 701 1036 z "},"Ř":{"ha":918,"x_min":-26,"x_max":900,"o":"m 388 317 l 376 222 q 373 171 372 190 q 382 141 374 151 q 409 127 390 131 q 460 122 428 124 l 465 111 l 438 -6 q 346 -3 389 -4 q 272 -1 310 -1 q 213 0 233 0 q 133 -2 174 0 q 56 -7 92 -4 q -26 -12 14 -10 l 1 115 q 74 149 51 124 q 103 233 96 174 l 163 715 q 161 763 167 750 q 136 776 156 776 q 119 776 128 776 q 104 775 111 775 q 88 774 96 774 l 76 790 l 104 900 q 179 899 143 899 l 297 899 q 363 899 322 899 q 443 903 403 900 q 539 907 489 904 q 807 850 714 907 q 900 679 900 793 q 706 383 900 494 l 768 239 q 824 148 794 179 q 882 117 854 117 l 894 94 l 869 -7 l 654 -22 q 565 6 596 -22 q 515 104 533 35 l 461 317 l 388 317 m 513 478 q 610 636 610 515 q 475 733 610 733 q 456 728 460 733 q 449 703 451 722 q 434 622 440 654 q 424 567 428 590 q 418 527 421 544 q 413 492 415 510 l 513 478 m 811 1147 q 717 1081 764 1115 q 632 1019 669 1047 q 546 956 586 986 l 508 956 q 439 1019 475 986 q 369 1081 407 1047 q 293 1147 332 1115 l 351 1233 l 385 1243 q 430 1223 406 1233 q 477 1203 454 1213 q 520 1186 500 1194 q 554 1172 540 1178 q 638 1203 586 1183 q 740 1243 690 1224 l 771 1233 l 811 1147 z "},"Ŗ":{"ha":918,"x_min":-26,"x_max":900,"o":"m 388 317 l 376 222 q 373 171 372 190 q 382 141 374 151 q 409 127 390 131 q 460 122 428 124 l 465 111 l 438 -6 q 346 -3 389 -4 q 272 -1 310 -1 q 213 0 233 0 q 133 -2 174 0 q 56 -7 92 -4 q -26 -12 14 -10 l 1 115 q 74 149 51 124 q 103 233 96 174 l 163 715 q 161 763 167 750 q 136 776 156 776 q 119 776 128 776 q 104 775 111 775 q 88 774 96 774 l 76 790 l 104 900 q 179 899 143 899 l 297 899 q 363 899 322 899 q 443 903 403 900 q 539 907 489 904 q 807 850 714 907 q 900 679 900 793 q 706 383 900 494 l 768 239 q 824 148 794 179 q 882 117 854 117 l 894 94 l 869 -7 l 654 -22 q 565 6 596 -22 q 515 104 533 35 l 461 317 l 388 317 m 513 478 q 610 636 610 515 q 475 733 610 733 q 456 728 460 733 q 449 703 451 722 q 434 622 440 654 q 424 567 428 590 q 418 527 421 544 q 413 492 415 510 l 513 478 m 272 -108 q 347 -63 310 -79 q 414 -47 385 -47 q 499 -85 467 -47 q 532 -187 532 -124 q 470 -339 532 -261 q 300 -479 408 -417 l 219 -415 l 219 -381 q 284 -311 260 -351 q 308 -233 308 -271 q 297 -176 308 -206 q 268 -128 286 -147 l 272 -108 z "},"S":{"ha":744,"x_min":-18,"x_max":782,"o":"m 271 -17 q 160 -8 210 -17 q 74 13 110 1 q -4 43 31 26 l -18 68 q 6 149 -6 108 q 24 223 15 183 q 40 297 33 263 l 217 310 q 234 206 210 243 q 315 168 258 168 q 381 185 356 168 q 406 231 406 203 q 394 263 406 249 q 364 291 383 278 q 319 317 344 304 q 265 342 293 329 q 190 381 228 360 q 123 431 153 401 q 74 499 93 460 q 54 590 54 538 q 86 724 54 664 q 176 826 118 783 q 317 892 235 869 q 500 915 399 915 q 605 909 556 915 q 690 896 654 903 q 768 876 733 888 l 782 846 q 758 772 769 811 q 737 695 747 739 q 717 604 726 651 l 553 593 l 538 604 q 539 621 538 614 q 541 634 540 628 q 542 643 542 640 q 519 703 542 683 q 456 724 496 724 q 392 704 417 724 q 368 656 368 685 q 395 606 368 626 q 463 565 422 585 q 547 525 501 546 q 631 474 592 504 q 695 403 669 444 q 721 300 721 361 q 690 167 721 226 q 600 67 658 108 q 458 5 542 26 q 271 -17 375 -17 z "},"Ś":{"ha":744,"x_min":-18,"x_max":782,"o":"m 271 -17 q 160 -8 210 -17 q 74 13 110 1 q -4 43 31 26 l -18 68 q 6 149 -6 108 q 24 223 15 183 q 40 297 33 263 l 217 310 q 234 206 210 243 q 315 168 258 168 q 381 185 356 168 q 406 231 406 203 q 394 263 406 249 q 364 291 383 278 q 319 317 344 304 q 265 342 293 329 q 190 381 228 360 q 123 431 153 401 q 74 499 93 460 q 54 590 54 538 q 86 724 54 664 q 176 826 118 783 q 317 892 235 869 q 500 915 399 915 q 605 909 556 915 q 690 896 654 903 q 768 876 733 888 l 782 846 q 758 772 769 811 q 737 695 747 739 q 717 604 726 651 l 553 593 l 538 604 q 539 621 538 614 q 541 634 540 628 q 542 643 542 640 q 519 703 542 683 q 456 724 496 724 q 392 704 417 724 q 368 656 368 685 q 395 606 368 626 q 463 565 422 585 q 547 525 501 546 q 631 474 592 504 q 695 403 669 444 q 721 300 721 361 q 690 167 721 226 q 600 67 658 108 q 458 5 542 26 q 271 -17 375 -17 m 667 1036 q 554 1014 613 1026 q 442 989 504 1003 q 314 960 379 975 l 288 978 l 258 1076 q 385 1125 322 1100 q 496 1169 447 1150 q 604 1215 553 1193 l 626 1208 l 676 1058 l 667 1036 z "},"Š":{"ha":744,"x_min":-18,"x_max":782,"o":"m 271 -17 q 160 -8 210 -17 q 74 13 110 1 q -4 43 31 26 l -18 68 q 6 149 -6 108 q 24 223 15 183 q 40 297 33 263 l 217 310 q 234 206 210 243 q 315 168 258 168 q 381 185 356 168 q 406 231 406 203 q 394 263 406 249 q 364 291 383 278 q 319 317 344 304 q 265 342 293 329 q 190 381 228 360 q 123 431 153 401 q 74 499 93 460 q 54 590 54 538 q 86 724 54 664 q 176 826 118 783 q 317 892 235 869 q 500 915 399 915 q 605 909 556 915 q 690 896 654 903 q 768 876 733 888 l 782 846 q 758 772 769 811 q 737 695 747 739 q 717 604 726 651 l 553 593 l 538 604 q 539 621 538 614 q 541 634 540 628 q 542 643 542 640 q 519 703 542 683 q 456 724 496 724 q 392 704 417 724 q 368 656 368 685 q 395 606 368 626 q 463 565 422 585 q 547 525 501 546 q 631 474 592 504 q 695 403 669 444 q 721 300 721 361 q 690 167 721 226 q 600 67 658 108 q 458 5 542 26 q 271 -17 375 -17 m 763 1147 q 668 1081 715 1115 q 583 1019 621 1047 q 497 956 538 986 l 460 956 q 390 1019 426 986 q 321 1081 358 1047 q 244 1147 283 1115 l 303 1233 l 336 1243 q 381 1223 357 1233 q 428 1203 406 1213 q 472 1186 451 1194 q 506 1172 492 1178 q 590 1203 538 1183 q 692 1243 642 1224 l 722 1233 l 763 1147 z "},"Ş":{"ha":744,"x_min":-18,"x_max":782,"o":"m 253 -17 q 149 -6 196 -15 q 68 15 103 4 q -4 43 28 28 l -18 68 q 6 149 -6 108 q 24 223 15 183 q 40 297 33 263 l 217 310 q 234 206 210 243 q 315 168 258 168 q 381 185 356 168 q 406 231 406 203 q 394 263 406 249 q 364 291 383 278 q 319 317 344 304 q 265 342 293 329 q 190 381 228 360 q 123 431 153 401 q 74 499 93 460 q 54 590 54 538 q 86 724 54 664 q 176 826 118 783 q 317 892 235 869 q 500 915 399 915 q 605 909 556 915 q 690 896 654 903 q 768 876 733 888 l 782 846 q 758 772 769 811 q 737 695 747 739 q 717 604 726 651 l 553 593 l 538 604 q 539 621 538 614 q 541 634 540 628 q 542 643 542 640 q 519 703 542 683 q 456 724 496 724 q 392 704 417 724 q 368 656 368 685 q 395 606 368 626 q 463 565 422 585 q 547 525 501 546 q 631 474 592 504 q 695 403 669 444 q 721 300 721 361 q 621 83 721 165 q 343 -14 521 1 l 332 -51 q 374 -76 351 -61 q 417 -109 397 -90 q 451 -149 438 -128 q 465 -192 465 -169 q 447 -248 465 -221 q 399 -294 429 -275 q 328 -326 369 -314 q 242 -337 288 -337 q 202 -333 222 -337 q 165 -319 182 -328 q 138 -297 149 -310 q 128 -267 128 -283 q 136 -245 128 -258 q 158 -217 144 -232 q 185 -189 171 -203 q 213 -164 200 -175 l 224 -164 q 236 -222 221 -203 q 279 -242 251 -242 q 322 -208 322 -242 q 313 -187 322 -199 q 287 -164 303 -175 q 252 -142 271 -153 q 215 -121 233 -131 l 253 -17 z "},"Ș":{"ha":744,"x_min":-18,"x_max":782,"o":"m 271 -17 q 160 -8 210 -17 q 74 13 110 1 q -4 43 31 26 l -18 68 q 6 149 -6 108 q 24 223 15 183 q 40 297 33 263 l 217 310 q 234 206 210 243 q 315 168 258 168 q 381 185 356 168 q 406 231 406 203 q 394 263 406 249 q 364 291 383 278 q 319 317 344 304 q 265 342 293 329 q 190 381 228 360 q 123 431 153 401 q 74 499 93 460 q 54 590 54 538 q 86 724 54 664 q 176 826 118 783 q 317 892 235 869 q 500 915 399 915 q 605 909 556 915 q 690 896 654 903 q 768 876 733 888 l 782 846 q 758 772 769 811 q 737 695 747 739 q 717 604 726 651 l 553 593 l 538 604 q 539 621 538 614 q 541 634 540 628 q 542 643 542 640 q 519 703 542 683 q 456 724 496 724 q 392 704 417 724 q 368 656 368 685 q 395 606 368 626 q 463 565 422 585 q 547 525 501 546 q 631 474 592 504 q 695 403 669 444 q 721 300 721 361 q 690 167 721 226 q 600 67 658 108 q 458 5 542 26 q 271 -17 375 -17 m 154 -108 q 229 -63 192 -79 q 296 -47 267 -47 q 381 -85 349 -47 q 414 -187 414 -124 q 352 -339 414 -261 q 182 -479 290 -417 l 101 -415 l 101 -381 q 166 -311 142 -351 q 190 -233 190 -271 q 179 -176 190 -206 q 150 -128 168 -147 l 154 -108 z "},"T":{"ha":803,"x_min":24,"x_max":867,"o":"m 313 731 q 271 723 288 731 q 242 694 254 715 q 219 637 229 674 q 199 542 210 600 l 24 531 q 43 653 33 590 q 61 770 51 706 q 79 894 71 835 l 100 914 l 260 899 l 683 899 l 851 914 l 867 894 q 853 770 860 832 q 840 657 846 708 q 829 542 835 597 l 656 531 q 659 634 658 594 q 653 695 660 674 q 633 724 647 717 q 594 731 619 731 q 582 647 589 696 q 567 542 575 597 q 551 430 558 486 q 537 326 543 374 q 527 243 531 278 q 524 196 524 208 q 538 142 524 158 q 583 126 551 126 q 608 126 596 126 q 631 128 619 126 q 653 131 642 129 l 658 122 l 631 -8 q 521 -4 574 -7 q 430 -1 476 -3 q 354 0 383 0 q 274 -2 321 0 q 182 -7 226 -4 q 76 -12 131 -10 l 103 115 q 172 126 144 119 q 215 145 199 132 q 239 180 231 158 q 251 233 247 201 l 313 731 z "},"Ŧ":{"ha":803,"x_min":24,"x_max":867,"o":"m 264 335 l 156 335 l 140 349 l 151 429 l 275 428 l 313 731 q 271 723 288 731 q 242 694 254 715 q 219 637 229 674 q 199 542 210 600 l 24 531 q 43 653 33 590 q 61 770 51 706 q 79 894 71 835 l 100 914 l 260 899 l 683 899 l 851 914 l 867 894 q 853 770 860 832 q 840 657 846 708 q 829 542 835 597 l 656 531 q 659 634 658 594 q 653 695 660 674 q 633 724 647 717 q 594 731 619 731 q 574 596 586 678 q 550 431 561 514 l 651 433 l 672 413 l 665 336 l 538 336 q 527 246 531 283 q 524 196 524 208 q 538 142 524 158 q 583 126 551 126 q 608 126 596 126 q 631 128 619 126 q 653 131 642 129 l 658 122 l 631 -8 q 521 -4 574 -7 q 430 -1 476 -3 q 354 0 383 0 q 274 -2 321 0 q 182 -7 226 -4 q 76 -12 131 -10 l 103 115 q 172 126 144 119 q 215 145 199 132 q 239 180 231 158 q 251 233 247 201 l 264 335 z "},"Ť":{"ha":803,"x_min":24,"x_max":867,"o":"m 313 731 q 271 723 288 731 q 242 694 254 715 q 219 637 229 674 q 199 542 210 600 l 24 531 q 43 653 33 590 q 61 770 51 706 q 79 894 71 835 l 100 914 l 260 899 l 683 899 l 851 914 l 867 894 q 853 770 860 832 q 840 657 846 708 q 829 542 835 597 l 656 531 q 659 634 658 594 q 653 695 660 674 q 633 724 647 717 q 594 731 619 731 q 582 647 589 696 q 567 542 575 597 q 551 430 558 486 q 537 326 543 374 q 527 243 531 278 q 524 196 524 208 q 538 142 524 158 q 583 126 551 126 q 608 126 596 126 q 631 128 619 126 q 653 131 642 129 l 658 122 l 631 -8 q 521 -4 574 -7 q 430 -1 476 -3 q 354 0 383 0 q 274 -2 321 0 q 182 -7 226 -4 q 76 -12 131 -10 l 103 115 q 172 126 144 119 q 215 145 199 132 q 239 180 231 158 q 251 233 247 201 l 313 731 m 767 1147 q 672 1081 719 1115 q 588 1019 625 1047 q 501 956 542 986 l 464 956 q 394 1019 431 986 q 325 1081 363 1047 q 249 1147 288 1115 l 307 1233 l 340 1243 q 385 1223 361 1233 q 433 1203 410 1213 q 476 1186 456 1194 q 510 1172 496 1178 q 594 1203 542 1183 q 696 1243 646 1224 l 726 1233 l 767 1147 z "},"Ţ":{"ha":803,"x_min":24,"x_max":867,"o":"m 313 0 q 235 -3 276 -1 q 158 -7 194 -4 q 76 -12 117 -10 l 103 115 q 172 126 144 119 q 215 145 199 132 q 239 180 231 158 q 251 233 247 201 l 313 731 q 271 723 288 731 q 242 694 254 715 q 219 637 229 674 q 199 542 210 600 l 24 531 q 43 653 33 590 q 61 770 51 706 q 79 894 71 835 l 100 914 l 260 899 l 683 899 l 851 914 l 867 894 q 853 770 860 832 q 840 657 846 708 q 829 542 835 597 l 656 531 q 659 634 658 594 q 653 695 660 674 q 633 724 647 717 q 594 731 619 731 q 582 647 589 696 q 567 542 575 597 q 551 430 558 486 q 537 326 543 374 q 527 243 531 278 q 524 196 524 208 q 538 142 524 158 q 583 126 551 126 q 608 126 596 126 q 631 128 619 126 q 653 131 642 129 l 658 122 l 631 -8 q 550 -6 590 -7 q 476 -3 515 -4 q 401 0 436 -1 l 386 -51 q 428 -76 406 -61 q 472 -109 451 -90 q 506 -149 492 -128 q 519 -192 519 -169 q 501 -248 519 -221 q 453 -294 483 -275 q 383 -326 424 -314 q 296 -337 342 -337 q 256 -333 276 -337 q 219 -319 236 -328 q 192 -297 203 -310 q 182 -267 182 -283 q 190 -245 182 -258 q 212 -217 199 -232 q 240 -189 225 -203 q 267 -164 254 -175 l 278 -164 q 290 -222 275 -203 q 333 -242 306 -242 q 376 -208 376 -242 q 367 -187 376 -199 q 341 -164 357 -175 q 306 -142 325 -153 q 269 -121 288 -131 l 313 0 z "},"Þ":{"ha":819,"x_min":-24,"x_max":840,"o":"m 450 725 l 542 725 q 767 669 694 725 q 840 500 840 614 q 813 374 840 431 q 735 276 785 317 q 617 215 685 236 q 468 193 549 193 l 372 193 l 368 161 q 373 128 365 136 q 406 121 381 121 q 431 121 421 121 q 449 122 442 121 q 463 125 457 124 l 472 111 l 446 -6 q 347 -3 393 -4 q 267 -1 307 -1 q 204 0 228 0 q 133 -1 172 0 q 58 -4 93 -3 q -24 -7 18 -6 l 1 111 q 46 124 28 117 q 75 144 64 132 q 92 176 86 157 q 101 225 99 196 l 161 706 q 158 763 167 749 q 122 776 150 776 q 111 776 117 776 q 100 775 106 775 l 89 775 l 78 794 l 101 899 l 322 899 q 383 899 343 899 q 461 901 422 900 q 558 906 507 903 l 533 781 q 493 772 508 775 q 469 763 478 768 q 457 750 461 757 q 451 732 453 743 l 450 725 m 418 535 q 413 498 417 521 q 406 449 410 475 q 399 399 403 424 q 394 356 396 374 q 443 345 421 349 q 475 342 465 342 q 534 390 515 353 q 553 478 553 426 q 527 544 553 524 q 449 565 501 565 q 418 535 422 565 z "},"U":{"ha":840,"x_min":53,"x_max":915,"o":"m 349 306 q 347 285 347 296 q 346 267 346 274 q 428 160 343 160 q 500 188 476 160 q 533 282 524 215 q 538 325 535 299 q 546 383 542 351 q 554 451 550 415 q 563 524 558 488 q 583 701 572 607 q 583 761 589 746 q 558 776 578 776 q 548 776 553 776 q 539 775 543 775 q 529 774 533 774 l 525 779 l 556 903 q 618 900 588 901 q 671 899 644 899 q 717 899 697 899 q 783 899 749 899 q 847 900 818 899 q 915 903 882 901 l 889 778 q 853 765 867 771 q 833 752 840 758 q 823 738 826 746 q 818 717 819 729 l 769 325 q 651 67 746 151 q 381 -17 557 -17 q 142 41 219 -17 q 65 221 65 99 q 69 276 65 247 l 122 701 q 123 763 128 749 q 94 776 118 776 q 83 776 89 776 q 69 775 76 775 q 56 774 63 774 l 53 779 l 82 903 q 163 900 121 901 q 241 899 199 899 q 324 899 283 899 q 374 899 343 899 q 435 901 406 900 q 507 904 469 903 l 478 775 q 426 756 442 771 q 406 707 410 740 l 349 306 z "},"Ú":{"ha":840,"x_min":53,"x_max":915,"o":"m 349 306 q 347 285 347 296 q 346 267 346 274 q 428 160 343 160 q 500 188 476 160 q 533 282 524 215 q 538 325 535 299 q 546 383 542 351 q 554 451 550 415 q 563 524 558 488 q 583 701 572 607 q 583 761 589 746 q 558 776 578 776 q 548 776 553 776 q 539 775 543 775 q 529 774 533 774 l 525 779 l 556 903 q 618 900 588 901 q 671 899 644 899 q 717 899 697 899 q 783 899 749 899 q 847 900 818 899 q 915 903 882 901 l 889 778 q 853 765 867 771 q 833 752 840 758 q 823 738 826 746 q 818 717 819 729 l 769 325 q 651 67 746 151 q 381 -17 557 -17 q 142 41 219 -17 q 65 221 65 99 q 69 276 65 247 l 122 701 q 123 763 128 749 q 94 776 118 776 q 83 776 89 776 q 69 775 76 775 q 56 774 63 774 l 53 779 l 82 903 q 163 900 121 901 q 241 899 199 899 q 324 899 283 899 q 374 899 343 899 q 435 901 406 900 q 507 904 469 903 l 478 775 q 426 756 442 771 q 406 707 410 740 l 349 306 m 715 1036 q 603 1014 661 1026 q 490 989 553 1003 q 363 960 428 975 l 336 978 l 307 1076 q 433 1125 371 1100 q 544 1169 496 1150 q 653 1215 601 1193 l 675 1208 l 725 1058 l 715 1036 z "},"Û":{"ha":840,"x_min":53,"x_max":915,"o":"m 349 306 q 347 285 347 296 q 346 267 346 274 q 428 160 343 160 q 500 188 476 160 q 533 282 524 215 q 538 325 535 299 q 546 383 542 351 q 554 451 550 415 q 563 524 558 488 q 583 701 572 607 q 583 761 589 746 q 558 776 578 776 q 548 776 553 776 q 539 775 543 775 q 529 774 533 774 l 525 779 l 556 903 q 618 900 588 901 q 671 899 644 899 q 717 899 697 899 q 783 899 749 899 q 847 900 818 899 q 915 903 882 901 l 889 778 q 853 765 867 771 q 833 752 840 758 q 823 738 826 746 q 818 717 819 729 l 769 325 q 651 67 746 151 q 381 -17 557 -17 q 142 41 219 -17 q 65 221 65 99 q 69 276 65 247 l 122 701 q 123 763 128 749 q 94 776 118 776 q 83 776 89 776 q 69 775 76 775 q 56 774 63 774 l 53 779 l 82 903 q 163 900 121 901 q 241 899 199 899 q 324 899 283 899 q 374 899 343 899 q 435 901 406 900 q 507 904 469 903 l 478 775 q 426 756 442 771 q 406 707 410 740 l 349 306 m 285 1069 q 378 1135 331 1101 q 463 1197 425 1169 q 549 1261 507 1231 l 586 1261 q 606 1247 586 1264 q 656 1201 625 1229 q 726 1138 688 1172 q 803 1069 764 1103 l 743 983 l 710 974 q 618 1013 667 993 q 540 1044 569 1033 q 456 1013 508 1033 q 354 974 404 993 l 324 983 l 285 1069 z "},"Ü":{"ha":840,"x_min":53,"x_max":915,"o":"m 349 306 q 347 285 347 296 q 346 267 346 274 q 428 160 343 160 q 500 188 476 160 q 533 282 524 215 q 538 325 535 299 q 546 383 542 351 q 554 451 550 415 q 563 524 558 488 q 583 701 572 607 q 583 761 589 746 q 558 776 578 776 q 548 776 553 776 q 539 775 543 775 q 529 774 533 774 l 525 779 l 556 903 q 618 900 588 901 q 671 899 644 899 q 717 899 697 899 q 783 899 749 899 q 847 900 818 899 q 915 903 882 901 l 889 778 q 853 765 867 771 q 833 752 840 758 q 823 738 826 746 q 818 717 819 729 l 769 325 q 651 67 746 151 q 381 -17 557 -17 q 142 41 219 -17 q 65 221 65 99 q 69 276 65 247 l 122 701 q 123 763 128 749 q 94 776 118 776 q 83 776 89 776 q 69 775 76 775 q 56 774 63 774 l 53 779 l 82 903 q 163 900 121 901 q 241 899 199 899 q 324 899 283 899 q 374 899 343 899 q 435 901 406 900 q 507 904 469 903 l 478 775 q 426 756 442 771 q 406 707 410 740 l 349 306 m 657 965 q 558 1058 558 965 q 595 1159 558 1121 q 693 1197 632 1197 q 765 1172 740 1197 q 789 1103 789 1147 q 753 1003 789 1040 q 657 965 717 965 m 396 965 q 299 1058 299 965 q 335 1159 299 1121 q 433 1197 372 1197 q 504 1172 479 1197 q 529 1103 529 1147 q 493 1003 529 1040 q 396 965 457 965 z "},"Ù":{"ha":840,"x_min":53,"x_max":915,"o":"m 349 306 q 347 285 347 296 q 346 267 346 274 q 428 160 343 160 q 500 188 476 160 q 533 282 524 215 q 538 325 535 299 q 546 383 542 351 q 554 451 550 415 q 563 524 558 488 q 583 701 572 607 q 583 761 589 746 q 558 776 578 776 q 548 776 553 776 q 539 775 543 775 q 529 774 533 774 l 525 779 l 556 903 q 618 900 588 901 q 671 899 644 899 q 717 899 697 899 q 783 899 749 899 q 847 900 818 899 q 915 903 882 901 l 889 778 q 853 765 867 771 q 833 752 840 758 q 823 738 826 746 q 818 717 819 729 l 769 325 q 651 67 746 151 q 381 -17 557 -17 q 142 41 219 -17 q 65 221 65 99 q 69 276 65 247 l 122 701 q 123 763 128 749 q 94 776 118 776 q 83 776 89 776 q 69 775 76 775 q 56 774 63 774 l 53 779 l 82 903 q 163 900 121 901 q 241 899 199 899 q 324 899 283 899 q 374 899 343 899 q 435 901 406 900 q 507 904 469 903 l 478 775 q 426 756 442 771 q 406 707 410 740 l 349 306 m 306 1058 l 356 1208 l 378 1215 q 486 1169 429 1193 q 597 1125 535 1150 q 724 1076 658 1100 l 694 978 l 668 960 q 540 989 603 975 q 426 1014 476 1003 q 315 1036 368 1026 l 306 1058 z "},"Ű":{"ha":840,"x_min":53,"x_max":915,"o":"m 349 306 q 347 285 347 296 q 346 267 346 274 q 428 160 343 160 q 500 188 476 160 q 533 282 524 215 q 538 325 535 299 q 546 383 542 351 q 554 451 550 415 q 563 524 558 488 q 583 701 572 607 q 583 761 589 746 q 558 776 578 776 q 548 776 553 776 q 539 775 543 775 q 529 774 533 774 l 525 779 l 556 903 q 618 900 588 901 q 671 899 644 899 q 717 899 697 899 q 783 899 749 899 q 847 900 818 899 q 915 903 882 901 l 889 778 q 853 765 867 771 q 833 752 840 758 q 823 738 826 746 q 818 717 819 729 l 769 325 q 651 67 746 151 q 381 -17 557 -17 q 142 41 219 -17 q 65 221 65 99 q 69 276 65 247 l 122 701 q 123 763 128 749 q 94 776 118 776 q 83 776 89 776 q 69 775 76 775 q 56 774 63 774 l 53 779 l 82 903 q 163 900 121 901 q 241 899 199 899 q 324 899 283 899 q 374 899 343 899 q 435 901 406 900 q 507 904 469 903 l 478 775 q 426 756 442 771 q 406 707 410 740 l 349 306 m 558 1089 q 482 1042 522 1067 q 405 993 447 1021 q 318 936 363 965 l 292 943 l 239 1010 q 316 1086 279 1049 q 382 1154 353 1124 q 446 1221 417 1190 l 467 1222 l 558 1110 l 558 1089 m 833 1089 q 757 1042 797 1067 q 680 993 722 1021 q 593 936 638 965 l 567 943 l 514 1010 q 591 1086 554 1049 q 657 1154 628 1124 q 721 1221 692 1190 l 742 1222 l 833 1110 l 833 1089 z "},"Ū":{"ha":840,"x_min":53,"x_max":915,"o":"m 349 306 q 347 285 347 296 q 346 267 346 274 q 428 160 343 160 q 500 188 476 160 q 533 282 524 215 q 538 325 535 299 q 546 383 542 351 q 554 451 550 415 q 563 524 558 488 q 583 701 572 607 q 583 761 589 746 q 558 776 578 776 q 548 776 553 776 q 539 775 543 775 q 529 774 533 774 l 525 779 l 556 903 q 618 900 588 901 q 671 899 644 899 q 717 899 697 899 q 783 899 749 899 q 847 900 818 899 q 915 903 882 901 l 889 778 q 853 765 867 771 q 833 752 840 758 q 823 738 826 746 q 818 717 819 729 l 769 325 q 651 67 746 151 q 381 -17 557 -17 q 142 41 219 -17 q 65 221 65 99 q 69 276 65 247 l 122 701 q 123 763 128 749 q 94 776 118 776 q 83 776 89 776 q 69 775 76 775 q 56 774 63 774 l 53 779 l 82 903 q 163 900 121 901 q 241 899 199 899 q 324 899 283 899 q 374 899 343 899 q 435 901 406 900 q 507 904 469 903 l 478 775 q 426 756 442 771 q 406 707 410 740 l 349 306 m 765 1118 l 721 967 l 532 965 q 470 965 501 965 q 413 964 439 964 l 353 964 l 333 985 l 378 1136 q 451 1135 415 1135 l 585 1135 q 640 1135 610 1135 q 694 1139 669 1136 q 753 1143 724 1140 l 765 1118 z "},"Ų":{"ha":840,"x_min":53,"x_max":915,"o":"m 669 -236 q 618 -276 643 -257 q 568 -310 594 -293 q 517 -336 542 -326 q 396 -307 439 -336 q 353 -225 353 -278 q 380 -129 353 -176 q 478 -8 407 -82 q 381 -17 433 -17 q 142 41 219 -17 q 65 221 65 99 q 69 276 65 247 l 122 701 q 123 763 128 749 q 94 776 118 776 q 83 776 89 776 q 69 775 76 775 q 56 774 63 774 l 53 779 l 82 903 q 163 900 121 901 q 241 899 199 899 q 324 899 283 899 q 374 899 343 899 q 435 901 406 900 q 507 904 469 903 l 478 775 q 426 756 442 771 q 406 707 410 740 l 349 306 q 347 283 347 294 q 346 267 346 272 q 428 160 343 160 q 500 188 476 160 q 533 282 524 215 q 538 325 535 299 q 546 383 542 351 q 554 451 550 415 q 563 524 558 488 q 583 701 572 607 q 583 761 589 746 q 558 776 578 776 q 548 776 553 776 q 539 775 543 775 q 529 774 533 774 l 525 779 l 556 903 q 618 900 588 901 q 671 899 644 899 q 717 899 697 899 q 783 899 749 899 q 847 900 818 899 q 915 903 882 901 l 889 778 q 853 765 867 771 q 833 752 840 758 q 823 738 826 746 q 818 717 819 729 l 769 325 q 728 179 758 246 q 640 49 697 113 q 536 -84 569 -32 q 503 -168 503 -136 q 515 -202 503 -189 q 549 -215 528 -215 q 579 -210 564 -215 q 608 -199 594 -206 q 640 -181 624 -192 l 669 -236 z "},"Ů":{"ha":840,"x_min":53,"x_max":915,"o":"m 349 306 q 347 285 347 296 q 346 267 346 274 q 428 160 343 160 q 500 188 476 160 q 533 282 524 215 q 538 325 535 299 q 546 383 542 351 q 554 451 550 415 q 563 524 558 488 q 583 701 572 607 q 583 761 589 746 q 558 776 578 776 q 548 776 553 776 q 539 775 543 775 q 529 774 533 774 l 525 779 l 556 903 q 618 900 588 901 q 671 899 644 899 q 717 899 697 899 q 783 899 749 899 q 847 900 818 899 q 915 903 882 901 l 889 778 q 853 765 867 771 q 833 752 840 758 q 823 738 826 746 q 818 717 819 729 l 769 325 q 651 67 746 151 q 381 -17 557 -17 q 142 41 219 -17 q 65 221 65 99 q 69 276 65 247 l 122 701 q 123 763 128 749 q 94 776 118 776 q 83 776 89 776 q 69 775 76 775 q 56 774 63 774 l 53 779 l 82 903 q 163 900 121 901 q 241 899 199 899 q 324 899 283 899 q 374 899 343 899 q 435 901 406 900 q 507 904 469 903 l 478 775 q 426 756 442 771 q 406 707 410 740 l 349 306 m 547 1044 q 581 1055 561 1044 q 600 1097 600 1065 q 553 1139 600 1139 q 514 1124 526 1139 q 501 1088 501 1110 q 517 1053 501 1063 q 547 1044 532 1044 m 525 947 q 435 981 465 947 q 404 1071 404 1015 q 417 1137 404 1106 q 451 1190 429 1168 q 505 1226 474 1213 q 574 1239 536 1239 q 669 1203 642 1239 q 697 1121 697 1167 q 685 1056 697 1088 q 651 1001 674 1025 q 597 962 629 976 q 525 947 565 947 z "},"V":{"ha":865,"x_min":50,"x_max":944,"o":"m 118 685 q 99 753 111 732 q 58 778 86 774 l 50 792 l 75 901 q 140 900 107 900 q 201 899 168 899 q 261 899 233 899 q 357 899 310 899 q 440 901 404 900 q 522 906 483 903 l 531 893 l 508 776 q 434 755 451 769 q 417 704 417 740 q 417 650 417 682 q 417 581 417 618 q 419 504 418 544 q 421 425 419 464 q 425 233 422 335 l 456 233 q 478 295 463 253 q 512 390 493 338 q 550 501 531 443 q 586 609 569 558 q 613 697 603 660 q 624 746 624 735 q 616 767 624 760 q 588 774 608 774 l 554 774 l 544 788 l 569 903 q 643 900 607 901 q 710 899 675 899 q 778 899 746 899 l 890 899 q 944 900 918 899 l 921 779 q 885 758 897 772 q 857 703 874 743 l 581 6 l 192 -18 q 161 276 176 139 q 148 396 154 335 q 136 512 142 457 q 126 612 131 567 q 118 685 121 657 z "},"W":{"ha":1349,"x_min":50,"x_max":1428,"o":"m 706 -18 l 697 378 l 678 378 l 557 6 l 182 -18 q 154 276 168 139 q 142 396 149 335 q 131 512 136 457 q 122 612 126 567 q 115 685 118 657 q 94 753 106 733 q 58 778 82 772 l 50 792 l 76 901 q 139 900 107 900 q 197 899 167 899 q 254 899 226 899 q 345 899 300 899 q 426 901 390 900 q 506 906 468 903 l 514 893 l 490 776 q 419 753 439 768 q 400 706 400 738 q 400 651 400 683 q 401 582 400 619 q 402 504 401 544 q 403 425 403 464 q 407 233 404 335 l 436 233 q 476 347 453 281 q 521 480 499 413 q 563 606 543 547 q 592 697 582 665 q 601 735 599 728 q 592 770 604 763 q 533 778 579 778 l 525 792 l 551 901 q 632 900 592 900 q 703 899 665 899 q 772 899 742 899 q 864 899 819 899 q 944 901 908 900 q 1022 906 986 903 l 1032 893 l 1008 776 q 935 756 954 769 q 917 706 917 742 q 917 651 917 683 q 917 582 917 619 q 919 504 918 544 q 921 425 919 464 q 925 233 922 335 l 954 233 q 988 324 969 272 q 1024 431 1006 376 q 1058 540 1042 486 q 1088 638 1075 593 q 1110 712 1101 682 q 1118 750 1118 742 q 1112 769 1118 765 q 1083 774 1106 774 l 1051 774 l 1043 788 l 1068 903 q 1139 900 1103 901 q 1204 899 1169 899 q 1268 899 1239 899 l 1376 899 q 1428 900 1403 899 l 1404 779 q 1369 756 1381 771 q 1342 703 1357 740 l 1081 6 l 706 -18 z "},"Ẃ":{"ha":1349,"x_min":50,"x_max":1428,"o":"m 706 -18 l 697 378 l 678 378 l 557 6 l 182 -18 q 154 276 168 139 q 142 396 149 335 q 131 512 136 457 q 122 612 126 567 q 115 685 118 657 q 94 753 106 733 q 58 778 82 772 l 50 792 l 76 901 q 139 900 107 900 q 197 899 167 899 q 254 899 226 899 q 345 899 300 899 q 426 901 390 900 q 506 906 468 903 l 514 893 l 490 776 q 419 753 439 768 q 400 706 400 738 q 400 651 400 683 q 401 582 400 619 q 402 504 401 544 q 403 425 403 464 q 407 233 404 335 l 436 233 q 476 347 453 281 q 521 480 499 413 q 563 606 543 547 q 592 697 582 665 q 601 735 599 728 q 592 770 604 763 q 533 778 579 778 l 525 792 l 551 901 q 632 900 592 900 q 703 899 665 899 q 772 899 742 899 q 864 899 819 899 q 944 901 908 900 q 1022 906 986 903 l 1032 893 l 1008 776 q 935 756 954 769 q 917 706 917 742 q 917 651 917 683 q 917 582 917 619 q 919 504 918 544 q 921 425 919 464 q 925 233 922 335 l 954 233 q 988 324 969 272 q 1024 431 1006 376 q 1058 540 1042 486 q 1088 638 1075 593 q 1110 712 1101 682 q 1118 750 1118 742 q 1112 769 1118 765 q 1083 774 1106 774 l 1051 774 l 1043 788 l 1068 903 q 1139 900 1103 901 q 1204 899 1169 899 q 1268 899 1239 899 l 1376 899 q 1428 900 1403 899 l 1404 779 q 1369 756 1381 771 q 1342 703 1357 740 l 1081 6 l 706 -18 m 988 1036 q 875 1014 933 1026 q 763 989 825 1003 q 635 960 700 975 l 608 978 l 579 1076 q 706 1125 643 1100 q 817 1169 768 1150 q 925 1215 874 1193 l 947 1208 l 997 1058 l 988 1036 z "},"Ŵ":{"ha":1349,"x_min":50,"x_max":1428,"o":"m 706 -18 l 697 378 l 678 378 l 557 6 l 182 -18 q 154 276 168 139 q 142 396 149 335 q 131 512 136 457 q 122 612 126 567 q 115 685 118 657 q 94 753 106 733 q 58 778 82 772 l 50 792 l 76 901 q 139 900 107 900 q 197 899 167 899 q 254 899 226 899 q 345 899 300 899 q 426 901 390 900 q 506 906 468 903 l 514 893 l 490 776 q 419 753 439 768 q 400 706 400 738 q 400 651 400 683 q 401 582 400 619 q 402 504 401 544 q 403 425 403 464 q 407 233 404 335 l 436 233 q 476 347 453 281 q 521 480 499 413 q 563 606 543 547 q 592 697 582 665 q 601 735 599 728 q 592 770 604 763 q 533 778 579 778 l 525 792 l 551 901 q 632 900 592 900 q 703 899 665 899 q 772 899 742 899 q 864 899 819 899 q 944 901 908 900 q 1022 906 986 903 l 1032 893 l 1008 776 q 935 756 954 769 q 917 706 917 742 q 917 651 917 683 q 917 582 917 619 q 919 504 918 544 q 921 425 919 464 q 925 233 922 335 l 954 233 q 988 324 969 272 q 1024 431 1006 376 q 1058 540 1042 486 q 1088 638 1075 593 q 1110 712 1101 682 q 1118 750 1118 742 q 1112 769 1118 765 q 1083 774 1106 774 l 1051 774 l 1043 788 l 1068 903 q 1139 900 1103 901 q 1204 899 1169 899 q 1268 899 1239 899 l 1376 899 q 1428 900 1403 899 l 1404 779 q 1369 756 1381 771 q 1342 703 1357 740 l 1081 6 l 706 -18 m 543 1069 q 636 1135 589 1101 q 721 1197 683 1169 q 807 1261 765 1231 l 844 1261 q 864 1247 844 1264 q 915 1201 883 1229 q 984 1138 946 1172 q 1061 1069 1022 1103 l 1001 983 l 968 974 q 876 1013 925 993 q 799 1044 828 1033 q 715 1013 767 1033 q 613 974 663 993 l 582 983 l 543 1069 z "},"Ẅ":{"ha":1349,"x_min":50,"x_max":1428,"o":"m 706 -18 l 697 378 l 678 378 l 557 6 l 182 -18 q 154 276 168 139 q 142 396 149 335 q 131 512 136 457 q 122 612 126 567 q 115 685 118 657 q 94 753 106 733 q 58 778 82 772 l 50 792 l 76 901 q 139 900 107 900 q 197 899 167 899 q 254 899 226 899 q 345 899 300 899 q 426 901 390 900 q 506 906 468 903 l 514 893 l 490 776 q 419 753 439 768 q 400 706 400 738 q 400 651 400 683 q 401 582 400 619 q 402 504 401 544 q 403 425 403 464 q 407 233 404 335 l 436 233 q 476 347 453 281 q 521 480 499 413 q 563 606 543 547 q 592 697 582 665 q 601 735 599 728 q 592 770 604 763 q 533 778 579 778 l 525 792 l 551 901 q 632 900 592 900 q 703 899 665 899 q 772 899 742 899 q 864 899 819 899 q 944 901 908 900 q 1022 906 986 903 l 1032 893 l 1008 776 q 935 756 954 769 q 917 706 917 742 q 917 651 917 683 q 917 582 917 619 q 919 504 918 544 q 921 425 919 464 q 925 233 922 335 l 954 233 q 988 324 969 272 q 1024 431 1006 376 q 1058 540 1042 486 q 1088 638 1075 593 q 1110 712 1101 682 q 1118 750 1118 742 q 1112 769 1118 765 q 1083 774 1106 774 l 1051 774 l 1043 788 l 1068 903 q 1139 900 1103 901 q 1204 899 1169 899 q 1268 899 1239 899 l 1376 899 q 1428 900 1403 899 l 1404 779 q 1369 756 1381 771 q 1342 703 1357 740 l 1081 6 l 706 -18 m 915 951 q 817 1044 817 951 q 853 1145 817 1107 q 951 1183 890 1183 q 1023 1158 999 1183 q 1047 1089 1047 1133 q 1011 989 1047 1026 q 915 951 975 951 m 654 951 q 557 1044 557 951 q 594 1145 557 1107 q 692 1183 631 1183 q 763 1158 738 1183 q 788 1089 788 1133 q 751 989 788 1026 q 654 951 715 951 z "},"Ẁ":{"ha":1349,"x_min":50,"x_max":1428,"o":"m 706 -18 l 697 378 l 678 378 l 557 6 l 182 -18 q 154 276 168 139 q 142 396 149 335 q 131 512 136 457 q 122 612 126 567 q 115 685 118 657 q 94 753 106 733 q 58 778 82 772 l 50 792 l 76 901 q 139 900 107 900 q 197 899 167 899 q 254 899 226 899 q 345 899 300 899 q 426 901 390 900 q 506 906 468 903 l 514 893 l 490 776 q 419 753 439 768 q 400 706 400 738 q 400 651 400 683 q 401 582 400 619 q 402 504 401 544 q 403 425 403 464 q 407 233 404 335 l 436 233 q 476 347 453 281 q 521 480 499 413 q 563 606 543 547 q 592 697 582 665 q 601 735 599 728 q 592 770 604 763 q 533 778 579 778 l 525 792 l 551 901 q 632 900 592 900 q 703 899 665 899 q 772 899 742 899 q 864 899 819 899 q 944 901 908 900 q 1022 906 986 903 l 1032 893 l 1008 776 q 935 756 954 769 q 917 706 917 742 q 917 651 917 683 q 917 582 917 619 q 919 504 918 544 q 921 425 919 464 q 925 233 922 335 l 954 233 q 988 324 969 272 q 1024 431 1006 376 q 1058 540 1042 486 q 1088 638 1075 593 q 1110 712 1101 682 q 1118 750 1118 742 q 1112 769 1118 765 q 1083 774 1106 774 l 1051 774 l 1043 788 l 1068 903 q 1139 900 1103 901 q 1204 899 1169 899 q 1268 899 1239 899 l 1376 899 q 1428 900 1403 899 l 1404 779 q 1369 756 1381 771 q 1342 703 1357 740 l 1081 6 l 706 -18 m 564 1058 l 614 1208 l 636 1215 q 744 1169 688 1193 q 855 1125 793 1150 q 982 1076 917 1100 l 953 978 l 926 960 q 798 989 861 975 q 685 1014 735 1003 q 574 1036 626 1026 l 564 1058 z "},"X":{"ha":963,"x_min":-37,"x_max":1033,"o":"m 311 481 l 225 649 q 192 702 208 682 q 159 734 176 722 q 123 752 142 746 q 81 765 104 758 l 75 774 l 103 900 q 167 899 131 899 l 342 899 q 402 899 363 899 q 481 903 442 900 q 578 907 526 904 l 585 892 l 561 778 q 507 739 507 778 q 525 675 507 711 q 569 589 543 639 q 601 638 585 613 q 633 687 618 664 q 657 728 647 710 q 667 756 667 746 q 657 774 667 769 q 621 779 647 779 l 618 788 l 640 899 l 853 899 q 913 899 882 899 q 971 900 944 899 q 1029 903 1001 901 l 1033 892 l 1011 771 q 950 739 976 754 q 902 706 924 724 q 861 668 881 689 q 821 619 842 647 l 672 418 l 764 249 q 834 158 800 186 q 917 129 868 131 l 894 -1 q 822 0 857 -1 q 762 2 793 1 q 711 3 731 3 q 640 1 688 3 q 546 -3 593 0 q 428 -7 490 -6 l 419 3 l 443 119 q 483 151 483 122 q 472 185 483 165 l 408 307 l 351 219 q 332 185 340 201 q 324 157 324 169 q 369 122 324 122 l 376 107 l 356 -6 q 269 -1 310 -4 q 200 1 235 0 q 150 3 165 3 q 98 1 129 3 q 38 -1 67 0 q -33 -6 3 -4 l -37 14 l -17 125 q 22 151 -1 132 q 72 194 46 169 q 124 248 97 219 q 172 304 151 276 l 311 481 z "},"Y":{"ha":903,"x_min":56,"x_max":969,"o":"m 461 740 q 465 707 461 731 q 476 654 469 683 q 492 594 483 625 q 507 538 500 563 l 526 538 l 596 696 q 614 733 607 717 q 621 760 621 750 q 610 775 621 771 q 574 779 600 779 l 571 788 l 596 897 l 811 897 q 865 898 838 897 q 915 900 893 899 q 965 903 940 901 l 969 892 l 944 771 q 854 700 900 746 q 775 596 808 654 l 622 343 q 597 278 603 307 q 586 214 590 250 q 592 146 579 165 q 643 126 604 126 q 668 126 656 126 q 690 128 681 126 q 713 131 701 129 l 718 122 l 690 -8 q 578 -4 632 -7 q 484 -1 532 -3 q 407 0 436 0 q 326 -2 374 0 q 235 -7 279 -4 q 128 -12 183 -10 l 154 115 q 226 124 197 118 q 272 142 254 131 q 297 174 289 154 q 308 225 304 194 l 311 247 q 310 305 315 278 q 289 372 306 332 l 178 649 q 132 717 163 688 q 61 765 101 746 l 56 774 l 85 900 q 171 899 131 899 q 240 897 206 897 q 290 897 274 897 q 355 898 314 897 q 436 901 396 899 q 536 907 483 904 l 544 892 l 518 778 q 461 740 461 778 z "},"Ý":{"ha":903,"x_min":56,"x_max":969,"o":"m 461 740 q 465 707 461 731 q 476 654 469 683 q 492 594 483 625 q 507 538 500 563 l 526 538 l 596 696 q 614 733 607 717 q 621 760 621 750 q 610 775 621 771 q 574 779 600 779 l 571 788 l 596 897 l 811 897 q 865 898 838 897 q 915 900 893 899 q 965 903 940 901 l 969 892 l 944 771 q 854 700 900 746 q 775 596 808 654 l 622 343 q 597 278 603 307 q 586 214 590 250 q 592 146 579 165 q 643 126 604 126 q 668 126 656 126 q 690 128 681 126 q 713 131 701 129 l 718 122 l 690 -8 q 578 -4 632 -7 q 484 -1 532 -3 q 407 0 436 0 q 326 -2 374 0 q 235 -7 279 -4 q 128 -12 183 -10 l 154 115 q 226 124 197 118 q 272 142 254 131 q 297 174 289 154 q 308 225 304 194 l 311 247 q 310 305 315 278 q 289 372 306 332 l 178 649 q 132 717 163 688 q 61 765 101 746 l 56 774 l 85 900 q 171 899 131 899 q 240 897 206 897 q 290 897 274 897 q 355 898 314 897 q 436 901 396 899 q 536 907 483 904 l 544 892 l 518 778 q 461 740 461 778 m 760 1036 q 647 1014 706 1026 q 535 989 597 1003 q 407 960 472 975 l 381 978 l 351 1076 q 478 1125 415 1100 q 589 1169 540 1150 q 697 1215 646 1193 l 719 1208 l 769 1058 l 760 1036 z "},"Ŷ":{"ha":903,"x_min":56,"x_max":969,"o":"m 461 740 q 465 707 461 731 q 476 654 469 683 q 492 594 483 625 q 507 538 500 563 l 526 538 l 596 696 q 614 733 607 717 q 621 760 621 750 q 610 775 621 771 q 574 779 600 779 l 571 788 l 596 897 l 811 897 q 865 898 838 897 q 915 900 893 899 q 965 903 940 901 l 969 892 l 944 771 q 854 700 900 746 q 775 596 808 654 l 622 343 q 597 278 603 307 q 586 214 590 250 q 592 146 579 165 q 643 126 604 126 q 668 126 656 126 q 690 128 681 126 q 713 131 701 129 l 718 122 l 690 -8 q 578 -4 632 -7 q 484 -1 532 -3 q 407 0 436 0 q 326 -2 374 0 q 235 -7 279 -4 q 128 -12 183 -10 l 154 115 q 226 124 197 118 q 272 142 254 131 q 297 174 289 154 q 308 225 304 194 l 311 247 q 310 305 315 278 q 289 372 306 332 l 178 649 q 132 717 163 688 q 61 765 101 746 l 56 774 l 85 900 q 171 899 131 899 q 240 897 206 897 q 290 897 274 897 q 355 898 314 897 q 436 901 396 899 q 536 907 483 904 l 544 892 l 518 778 q 461 740 461 778 m 315 1069 q 408 1135 361 1101 q 493 1197 456 1169 q 579 1261 538 1231 l 617 1261 q 636 1247 617 1264 q 687 1201 656 1229 q 756 1138 718 1172 q 833 1069 794 1103 l 774 983 l 740 974 q 649 1013 697 993 q 571 1044 600 1033 q 487 1013 539 1033 q 385 974 435 993 l 354 983 l 315 1069 z "},"Ÿ":{"ha":903,"x_min":56,"x_max":969,"o":"m 461 740 q 465 707 461 731 q 476 654 469 683 q 492 594 483 625 q 507 538 500 563 l 526 538 l 596 696 q 614 733 607 717 q 621 760 621 750 q 610 775 621 771 q 574 779 600 779 l 571 788 l 596 897 l 811 897 q 865 898 838 897 q 915 900 893 899 q 965 903 940 901 l 969 892 l 944 771 q 854 700 900 746 q 775 596 808 654 l 622 343 q 597 278 603 307 q 586 214 590 250 q 592 146 579 165 q 643 126 604 126 q 668 126 656 126 q 690 128 681 126 q 713 131 701 129 l 718 122 l 690 -8 q 578 -4 632 -7 q 484 -1 532 -3 q 407 0 436 0 q 326 -2 374 0 q 235 -7 279 -4 q 128 -12 183 -10 l 154 115 q 226 124 197 118 q 272 142 254 131 q 297 174 289 154 q 308 225 304 194 l 311 247 q 310 305 315 278 q 289 372 306 332 l 178 649 q 132 717 163 688 q 61 765 101 746 l 56 774 l 85 900 q 171 899 131 899 q 240 897 206 897 q 290 897 274 897 q 355 898 314 897 q 436 901 396 899 q 536 907 483 904 l 544 892 l 518 778 q 461 740 461 778 m 688 951 q 589 1044 589 951 q 626 1145 589 1107 q 724 1183 663 1183 q 795 1158 771 1183 q 819 1089 819 1133 q 783 989 819 1026 q 688 951 747 951 m 426 951 q 329 1044 329 951 q 366 1145 329 1107 q 464 1183 403 1183 q 535 1158 510 1183 q 560 1089 560 1133 q 524 989 560 1026 q 426 951 488 951 z "},"Ỳ":{"ha":903,"x_min":56,"x_max":969,"o":"m 461 740 q 465 707 461 731 q 476 654 469 683 q 492 594 483 625 q 507 538 500 563 l 526 538 l 596 696 q 614 733 607 717 q 621 760 621 750 q 610 775 621 771 q 574 779 600 779 l 571 788 l 596 897 l 811 897 q 865 898 838 897 q 915 900 893 899 q 965 903 940 901 l 969 892 l 944 771 q 854 700 900 746 q 775 596 808 654 l 622 343 q 597 278 603 307 q 586 214 590 250 q 592 146 579 165 q 643 126 604 126 q 668 126 656 126 q 690 128 681 126 q 713 131 701 129 l 718 122 l 690 -8 q 578 -4 632 -7 q 484 -1 532 -3 q 407 0 436 0 q 326 -2 374 0 q 235 -7 279 -4 q 128 -12 183 -10 l 154 115 q 226 124 197 118 q 272 142 254 131 q 297 174 289 154 q 308 225 304 194 l 311 247 q 310 305 315 278 q 289 372 306 332 l 178 649 q 132 717 163 688 q 61 765 101 746 l 56 774 l 85 900 q 171 899 131 899 q 240 897 206 897 q 290 897 274 897 q 355 898 314 897 q 436 901 396 899 q 536 907 483 904 l 544 892 l 518 778 q 461 740 461 778 m 322 1058 l 372 1208 l 394 1215 q 503 1169 446 1193 q 613 1125 551 1150 q 740 1076 675 1100 l 711 978 l 685 960 q 556 989 619 975 q 443 1014 493 1003 q 332 1036 385 1026 l 322 1058 z "},"Z":{"ha":803,"x_min":-29,"x_max":871,"o":"m 706 -4 l 124 4 l 11 -10 l -29 71 l 490 753 l 392 739 q 327 724 351 733 q 288 698 303 715 q 266 653 274 681 q 251 581 258 625 l 74 568 q 97 686 86 628 q 117 794 107 736 q 135 901 128 853 l 151 917 l 394 901 l 846 901 l 871 826 q 703 621 783 722 q 553 430 622 519 q 431 268 485 340 q 343 151 376 196 l 481 172 q 581 227 546 182 q 635 369 615 272 l 813 382 q 782 256 797 318 q 757 140 769 201 q 738 26 744 79 l 706 -4 z "},"Ź":{"ha":803,"x_min":-29,"x_max":871,"o":"m 706 -4 l 124 4 l 11 -10 l -29 71 l 490 753 l 392 739 q 327 724 351 733 q 288 698 303 715 q 266 653 274 681 q 251 581 258 625 l 74 568 q 97 686 86 628 q 117 794 107 736 q 135 901 128 853 l 151 917 l 394 901 l 846 901 l 871 826 q 703 621 783 722 q 553 430 622 519 q 431 268 485 340 q 343 151 376 196 l 481 172 q 581 227 546 182 q 635 369 615 272 l 813 382 q 782 256 797 318 q 757 140 769 201 q 738 26 744 79 l 706 -4 m 714 1036 q 601 1014 660 1026 q 489 989 551 1003 q 361 960 426 975 l 335 978 l 306 1076 q 432 1125 369 1100 q 543 1169 494 1150 q 651 1215 600 1193 l 674 1208 l 724 1058 l 714 1036 z "},"Ž":{"ha":803,"x_min":-29,"x_max":871,"o":"m 706 -4 l 124 4 l 11 -10 l -29 71 l 490 753 l 392 739 q 327 724 351 733 q 288 698 303 715 q 266 653 274 681 q 251 581 258 625 l 74 568 q 97 686 86 628 q 117 794 107 736 q 135 901 128 853 l 151 917 l 394 901 l 846 901 l 871 826 q 703 621 783 722 q 553 430 622 519 q 431 268 485 340 q 343 151 376 196 l 481 172 q 581 227 546 182 q 635 369 615 272 l 813 382 q 782 256 797 318 q 757 140 769 201 q 738 26 744 79 l 706 -4 m 810 1147 q 715 1081 763 1115 q 631 1019 668 1047 q 544 956 585 986 l 507 956 q 438 1019 474 986 q 368 1081 406 1047 q 292 1147 331 1115 l 350 1233 l 383 1243 q 428 1223 404 1233 q 476 1203 453 1213 q 519 1186 499 1194 q 553 1172 539 1178 q 637 1203 585 1183 q 739 1243 689 1224 l 769 1233 l 810 1147 z "},"Ż":{"ha":803,"x_min":-29,"x_max":871,"o":"m 706 -4 l 124 4 l 11 -10 l -29 71 l 490 753 l 392 739 q 327 724 351 733 q 288 698 303 715 q 266 653 274 681 q 251 581 258 625 l 74 568 q 97 686 86 628 q 117 794 107 736 q 135 901 128 853 l 151 917 l 394 901 l 846 901 l 871 826 q 703 621 783 722 q 553 430 622 519 q 431 268 485 340 q 343 151 376 196 l 481 172 q 581 227 546 182 q 635 369 615 272 l 813 382 q 782 256 797 318 q 757 140 769 201 q 738 26 744 79 l 706 -4 m 525 949 q 439 978 468 949 q 410 1060 410 1007 q 453 1180 410 1135 q 569 1225 497 1225 q 654 1195 625 1225 q 683 1113 683 1165 q 640 993 683 1038 q 525 949 596 949 z "},"a":{"ha":733,"x_min":13,"x_max":751,"o":"m 619 214 q 641 226 626 214 q 692 271 656 238 l 724 265 l 751 199 q 652 93 694 135 q 576 27 610 51 q 515 -7 543 3 q 457 -17 486 -17 q 386 50 386 -17 q 388 68 386 57 q 393 99 389 79 q 403 147 397 118 q 421 219 410 176 l 407 219 q 355 133 379 171 q 308 67 331 96 q 265 19 286 39 q 222 -17 244 -1 q 67 40 122 -17 q 13 201 13 97 q 44 365 13 283 q 125 510 75 446 q 238 615 175 575 q 365 656 301 656 l 465 628 l 472 656 l 499 672 l 685 656 l 696 624 q 665 488 681 557 q 639 356 653 428 q 614 218 625 285 l 619 214 m 286 199 q 315 223 297 199 q 353 286 333 247 q 393 374 374 325 q 426 474 413 424 q 324 510 369 510 q 303 490 314 510 q 285 438 293 469 q 272 367 276 407 q 267 290 267 328 q 272 224 267 250 q 286 199 278 199 z "},"á":{"ha":733,"x_min":13,"x_max":751,"o":"m 619 214 q 641 226 626 214 q 692 271 656 238 l 724 265 l 751 199 q 652 93 694 135 q 576 27 610 51 q 515 -7 543 3 q 457 -17 486 -17 q 386 50 386 -17 q 388 68 386 57 q 393 99 389 79 q 403 147 397 118 q 421 219 410 176 l 407 219 q 355 133 379 171 q 308 67 331 96 q 265 19 286 39 q 222 -17 244 -1 q 67 40 122 -17 q 13 201 13 97 q 44 365 13 283 q 125 510 75 446 q 238 615 175 575 q 365 656 301 656 l 465 628 l 472 656 l 499 672 l 685 656 l 696 624 q 665 488 681 557 q 639 356 653 428 q 614 218 625 285 l 619 214 m 286 199 q 315 223 297 199 q 353 286 333 247 q 393 374 374 325 q 426 474 413 424 q 324 510 369 510 q 303 490 314 510 q 285 438 293 469 q 272 367 276 407 q 267 290 267 328 q 272 224 267 250 q 286 199 278 199 m 643 892 q 550 842 599 868 q 456 790 508 818 q 350 729 403 761 l 319 739 l 263 824 q 358 907 311 865 q 442 982 406 949 q 522 1056 485 1021 l 546 1056 l 646 915 l 643 892 z "},"´":{"ha":536,"x_min":97,"x_max":481,"o":"m 478 892 q 385 842 433 868 q 290 790 343 818 q 185 729 238 761 l 154 739 l 97 824 q 193 907 146 865 q 276 982 240 949 q 357 1056 319 1021 l 381 1056 l 481 915 l 478 892 z "},"ă":{"ha":733,"x_min":13,"x_max":751,"o":"m 619 214 q 641 226 626 214 q 692 271 656 238 l 724 265 l 751 199 q 652 93 694 135 q 576 27 610 51 q 515 -7 543 3 q 457 -17 486 -17 q 386 50 386 -17 q 388 68 386 57 q 393 99 389 79 q 403 147 397 118 q 421 219 410 176 l 407 219 q 355 133 379 171 q 308 67 331 96 q 265 19 286 39 q 222 -17 244 -1 q 67 40 122 -17 q 13 201 13 97 q 44 365 13 283 q 125 510 75 446 q 238 615 175 575 q 365 656 301 656 l 465 628 l 472 656 l 499 672 l 685 656 l 696 624 q 665 488 681 557 q 639 356 653 428 q 614 218 625 285 l 619 214 m 286 199 q 315 223 297 199 q 353 286 333 247 q 393 374 374 325 q 426 474 413 424 q 324 510 369 510 q 303 490 314 510 q 285 438 293 469 q 272 367 276 407 q 267 290 267 328 q 272 224 267 250 q 286 199 278 199 m 449 921 q 542 945 499 921 q 611 1018 585 969 l 649 1008 l 693 922 q 654 853 678 886 q 597 792 631 819 q 521 749 564 765 q 426 733 478 733 q 335 749 374 733 q 269 792 296 765 q 227 853 243 819 q 206 922 211 886 l 271 1008 l 310 1018 q 362 945 325 969 q 449 921 399 921 z "},"˘":{"ha":536,"x_min":99,"x_max":586,"o":"m 342 931 q 435 955 392 931 q 504 1028 478 979 l 542 1018 l 586 932 q 547 863 571 896 q 490 802 524 829 q 414 759 457 775 q 319 743 371 743 q 228 759 267 743 q 163 802 189 775 q 120 863 136 829 q 99 932 104 896 l 164 1018 l 203 1028 q 255 955 218 979 q 342 931 292 931 z "},"â":{"ha":733,"x_min":13,"x_max":751,"o":"m 619 214 q 641 226 626 214 q 692 271 656 238 l 724 265 l 751 199 q 652 93 694 135 q 576 27 610 51 q 515 -7 543 3 q 457 -17 486 -17 q 386 50 386 -17 q 388 68 386 57 q 393 99 389 79 q 403 147 397 118 q 421 219 410 176 l 407 219 q 355 133 379 171 q 308 67 331 96 q 265 19 286 39 q 222 -17 244 -1 q 67 40 122 -17 q 13 201 13 97 q 44 365 13 283 q 125 510 75 446 q 238 615 175 575 q 365 656 301 656 l 465 628 l 472 656 l 499 672 l 685 656 l 696 624 q 665 488 681 557 q 639 356 653 428 q 614 218 625 285 l 619 214 m 286 199 q 315 223 297 199 q 353 286 333 247 q 393 374 374 325 q 426 474 413 424 q 324 510 369 510 q 303 490 314 510 q 285 438 293 469 q 272 367 276 407 q 267 290 267 328 q 272 224 267 250 q 286 199 278 199 m 199 840 q 288 915 243 876 q 369 985 333 953 q 451 1057 413 1021 l 489 1057 q 553 985 518 1021 q 617 915 581 953 q 689 840 653 876 l 615 754 l 582 744 q 506 799 546 772 q 443 840 467 825 q 370 799 415 825 q 283 744 325 772 l 251 754 l 199 840 z "},"ˆ":{"ha":536,"x_min":85,"x_max":575,"o":"m 85 839 q 174 913 129 875 q 256 983 219 951 q 338 1056 299 1019 l 375 1056 q 439 983 404 1019 q 503 913 467 951 q 575 839 539 875 l 501 753 l 468 743 q 392 797 432 771 q 329 839 353 824 q 256 797 301 824 q 169 743 211 771 l 138 753 l 85 839 z "},"ä":{"ha":733,"x_min":13,"x_max":751,"o":"m 619 214 q 641 226 626 214 q 692 271 656 238 l 724 265 l 751 199 q 652 93 694 135 q 576 27 610 51 q 515 -7 543 3 q 457 -17 486 -17 q 386 50 386 -17 q 388 68 386 57 q 393 99 389 79 q 403 147 397 118 q 421 219 410 176 l 407 219 q 355 133 379 171 q 308 67 331 96 q 265 19 286 39 q 222 -17 244 -1 q 67 40 122 -17 q 13 201 13 97 q 44 365 13 283 q 125 510 75 446 q 238 615 175 575 q 365 656 301 656 l 465 628 l 472 656 l 499 672 l 685 656 l 696 624 q 665 488 681 557 q 639 356 653 428 q 614 218 625 285 l 619 214 m 286 199 q 315 223 297 199 q 353 286 333 247 q 393 374 374 325 q 426 474 413 424 q 324 510 369 510 q 303 490 314 510 q 285 438 293 469 q 272 367 276 407 q 267 290 267 328 q 272 224 267 250 q 286 199 278 199 m 574 779 q 475 872 475 779 q 512 973 475 935 q 610 1011 549 1011 q 682 986 657 1011 q 707 917 707 961 q 670 817 707 854 q 574 779 633 779 m 311 779 q 214 872 214 779 q 251 973 214 935 q 349 1011 288 1011 q 421 986 396 1011 q 446 917 446 961 q 409 817 446 854 q 311 779 372 779 z "},"¨":{"ha":536,"x_min":90,"x_max":583,"o":"m 450 776 q 351 869 351 776 q 388 970 351 932 q 486 1008 425 1008 q 558 983 533 1008 q 583 914 583 958 q 547 814 583 851 q 450 776 510 776 m 188 776 q 90 869 90 776 q 127 970 90 932 q 225 1008 164 1008 q 297 983 272 1008 q 322 914 322 958 q 285 814 322 851 q 188 776 249 776 z "},"à":{"ha":733,"x_min":13,"x_max":751,"o":"m 619 214 q 641 226 626 214 q 692 271 656 238 l 724 265 l 751 199 q 652 93 694 135 q 576 27 610 51 q 515 -7 543 3 q 457 -17 486 -17 q 386 50 386 -17 q 388 68 386 57 q 393 99 389 79 q 403 147 397 118 q 421 219 410 176 l 407 219 q 355 133 379 171 q 308 67 331 96 q 265 19 286 39 q 222 -17 244 -1 q 67 40 122 -17 q 13 201 13 97 q 44 365 13 283 q 125 510 75 446 q 238 615 175 575 q 365 656 301 656 l 465 628 l 472 656 l 499 672 l 685 656 l 696 624 q 665 488 681 557 q 639 356 653 428 q 614 218 625 285 l 619 214 m 286 199 q 315 223 297 199 q 353 286 333 247 q 393 374 374 325 q 426 474 413 424 q 324 510 369 510 q 303 490 314 510 q 285 438 293 469 q 272 367 276 407 q 267 290 267 328 q 272 224 267 250 q 286 199 278 199 m 225 918 l 325 1058 l 349 1058 q 429 985 386 1024 q 513 910 465 951 q 608 826 560 868 l 551 742 l 521 732 q 415 792 467 764 q 321 844 363 821 q 228 894 272 871 l 225 918 z "},"`":{"ha":536,"x_min":40,"x_max":424,"o":"m 40 915 l 140 1056 l 164 1056 q 244 982 201 1021 q 328 907 281 949 q 424 824 375 865 l 367 739 l 336 729 q 230 790 282 761 q 136 842 178 818 q 43 892 88 868 l 40 915 z "},"ā":{"ha":733,"x_min":13,"x_max":751,"o":"m 619 214 q 641 226 626 214 q 692 271 656 238 l 724 265 l 751 199 q 652 93 694 135 q 576 27 610 51 q 515 -7 543 3 q 457 -17 486 -17 q 386 50 386 -17 q 388 68 386 57 q 393 99 389 79 q 403 147 397 118 q 421 219 410 176 l 407 219 q 355 133 379 171 q 308 67 331 96 q 265 19 286 39 q 222 -17 244 -1 q 67 40 122 -17 q 13 201 13 97 q 44 365 13 283 q 125 510 75 446 q 238 615 175 575 q 365 656 301 656 l 465 628 l 472 656 l 499 672 l 685 656 l 696 624 q 665 488 681 557 q 639 356 653 428 q 614 218 625 285 l 619 214 m 286 199 q 315 223 297 199 q 353 286 333 247 q 393 374 374 325 q 426 474 413 424 q 324 510 369 510 q 303 490 314 510 q 285 438 293 469 q 272 367 276 407 q 267 290 267 328 q 272 224 267 250 q 286 199 278 199 m 650 940 l 606 789 l 417 788 q 355 787 386 788 q 297 786 324 786 l 238 786 l 218 807 l 263 958 q 336 957 300 957 l 469 957 q 524 958 494 957 q 579 961 554 958 q 638 965 608 963 l 650 940 z "},"¯":{"ha":536,"x_min":126,"x_max":558,"o":"m 558 938 l 514 786 l 325 785 q 263 784 294 785 q 206 783 232 783 l 146 783 l 126 804 l 171 956 q 244 954 208 954 l 378 954 q 433 955 403 954 q 488 958 463 956 q 546 963 517 960 l 558 938 z "},"ą":{"ha":733,"x_min":13,"x_max":751,"o":"m 642 -235 q 590 -275 615 -256 q 540 -308 567 -292 q 489 -335 514 -325 q 368 -306 411 -335 q 325 -224 325 -276 q 331 -182 325 -203 q 350 -137 336 -161 q 388 -83 364 -112 q 446 -15 411 -54 q 386 50 386 -11 q 388 69 386 57 q 393 99 389 81 q 403 147 397 118 q 421 219 410 176 l 407 219 q 355 133 379 171 q 308 67 331 96 q 265 19 286 39 q 222 -17 244 -1 q 67 40 122 -17 q 13 201 13 97 q 44 365 13 283 q 125 510 75 446 q 238 615 175 575 q 365 656 301 656 l 465 628 l 472 656 l 499 672 l 685 656 l 696 624 q 665 488 681 557 q 639 356 653 428 q 614 218 625 285 l 619 214 q 641 226 626 214 q 692 271 656 239 l 724 265 l 751 197 q 617 56 671 115 q 533 -44 564 -3 q 488 -115 501 -86 q 475 -167 475 -144 q 488 -201 475 -187 q 521 -214 500 -214 q 551 -209 536 -214 q 581 -197 567 -204 q 613 -179 596 -190 l 642 -235 m 286 199 q 315 223 297 199 q 353 286 333 247 q 393 374 374 325 q 426 474 413 424 q 324 510 369 510 q 303 490 314 510 q 285 438 293 469 q 272 367 276 407 q 267 290 267 328 q 272 224 267 250 q 286 199 278 199 z "},"å":{"ha":733,"x_min":13,"x_max":751,"o":"m 619 214 q 641 226 626 214 q 692 271 656 238 l 724 265 l 751 199 q 652 93 694 135 q 576 27 610 51 q 515 -7 543 3 q 457 -17 486 -17 q 386 50 386 -17 q 388 68 386 57 q 393 99 389 79 q 403 147 397 118 q 421 219 410 176 l 407 219 q 355 133 379 171 q 308 67 331 96 q 265 19 286 39 q 222 -17 244 -1 q 67 40 122 -17 q 13 201 13 97 q 44 365 13 283 q 125 510 75 446 q 238 615 175 575 q 365 656 301 656 l 465 628 l 472 656 l 499 672 l 685 656 l 696 624 q 665 488 681 557 q 639 356 653 428 q 614 218 625 285 l 619 214 m 286 199 q 315 223 297 199 q 353 286 333 247 q 393 374 374 325 q 426 474 413 424 q 324 510 369 510 q 303 490 314 510 q 285 438 293 469 q 272 367 276 407 q 267 290 267 328 q 272 224 267 250 q 286 199 278 199 m 421 850 q 455 860 436 850 q 474 903 474 871 q 428 944 474 944 q 388 930 400 944 q 375 893 375 915 q 390 859 375 868 q 421 850 406 850 m 400 753 q 308 787 339 753 q 278 876 278 821 q 290 942 278 911 q 326 996 303 974 q 379 1031 349 1018 q 447 1044 410 1044 q 543 1008 515 1044 q 571 926 571 972 q 559 862 571 893 q 525 806 547 831 q 471 767 503 782 q 400 753 439 753 z "},"˚":{"ha":536,"x_min":192,"x_max":485,"o":"m 335 850 q 369 860 350 850 q 388 903 388 871 q 342 944 388 944 q 301 930 314 944 q 289 893 289 915 q 304 859 289 868 q 335 850 319 850 m 314 753 q 222 787 253 753 q 192 876 192 821 q 204 942 192 911 q 240 996 217 974 q 293 1031 263 1018 q 361 1044 324 1044 q 457 1008 429 1044 q 485 926 485 972 q 473 862 485 893 q 439 806 461 831 q 385 767 417 782 q 314 753 353 753 z "},"ã":{"ha":733,"x_min":13,"x_max":751,"o":"m 619 214 q 641 226 626 214 q 692 271 656 238 l 724 265 l 751 199 q 652 93 694 135 q 576 27 610 51 q 515 -7 543 3 q 457 -17 486 -17 q 386 50 386 -17 q 388 68 386 57 q 393 99 389 79 q 403 147 397 118 q 421 219 410 176 l 407 219 q 355 133 379 171 q 308 67 331 96 q 265 19 286 39 q 222 -17 244 -1 q 67 40 122 -17 q 13 201 13 97 q 44 365 13 283 q 125 510 75 446 q 238 615 175 575 q 365 656 301 656 l 465 628 l 472 656 l 499 672 l 685 656 l 696 624 q 665 488 681 557 q 639 356 653 428 q 614 218 625 285 l 619 214 m 286 199 q 315 223 297 199 q 353 286 333 247 q 393 374 374 325 q 426 474 413 424 q 324 510 369 510 q 303 490 314 510 q 285 438 293 469 q 272 367 276 407 q 267 290 267 328 q 272 224 267 250 q 286 199 278 199 m 222 732 l 149 807 l 151 829 l 281 989 l 304 994 q 350 987 322 994 q 408 971 378 979 q 465 955 438 963 q 507 947 492 947 q 536 960 518 947 q 569 988 554 972 q 607 1028 588 1004 l 629 1028 l 703 953 l 700 931 l 571 771 l 547 765 q 501 773 529 765 q 444 789 474 781 q 387 805 414 797 q 344 813 360 813 q 315 800 332 813 q 282 772 297 788 q 244 732 264 754 l 222 732 z "},"˜":{"ha":536,"x_min":58,"x_max":613,"o":"m 132 729 l 58 804 l 61 826 l 190 986 l 214 992 q 260 984 232 992 q 317 968 288 976 q 374 952 347 960 q 417 944 401 944 q 446 957 428 944 q 479 985 464 969 q 517 1025 497 1001 l 539 1025 l 613 950 l 610 928 l 481 768 l 457 763 q 411 770 439 763 q 353 786 383 778 q 297 802 324 794 q 254 810 269 810 q 224 797 242 810 q 192 769 207 785 q 154 729 174 751 l 132 729 z "},"b":{"ha":729,"x_min":22,"x_max":713,"o":"m 22 103 q 81 463 56 303 q 102 597 92 531 q 121 718 113 664 q 135 809 129 772 q 140 854 140 846 q 94 900 140 900 l 56 900 l 72 1014 q 175 1017 119 1014 q 278 1022 231 1019 q 388 1031 333 1026 l 410 1003 q 369 806 389 906 q 333 617 353 719 q 297 419 314 514 l 311 419 q 363 507 339 469 q 408 572 386 544 q 450 620 429 600 q 492 656 471 640 q 655 595 597 656 q 713 426 713 535 q 681 258 713 338 q 598 117 650 178 q 476 19 546 56 q 331 -17 407 -17 q 207 -3 261 -17 q 117 25 153 10 q 42 67 72 43 l 22 103 m 444 464 q 413 439 432 464 q 374 374 394 414 q 335 285 354 335 q 304 189 317 236 q 329 171 315 178 q 354 158 340 164 q 383 153 368 153 q 415 169 400 153 q 440 215 429 186 q 456 284 450 244 q 463 369 463 324 q 458 437 463 410 q 444 464 453 464 z "},"c":{"ha":546,"x_min":18,"x_max":565,"o":"m 351 504 q 315 488 332 504 q 287 443 299 472 q 268 374 275 414 q 261 286 261 333 q 328 178 261 178 q 432 281 385 178 l 461 276 l 533 196 q 485 113 517 151 q 415 46 454 75 q 331 0 375 17 q 243 -17 286 -17 q 78 51 139 -17 q 18 232 18 118 q 49 402 18 322 q 133 542 79 482 q 257 636 186 601 q 408 671 328 671 q 491 662 450 671 q 560 638 532 653 l 565 613 l 494 433 l 435 432 q 351 504 400 504 z "},"ć":{"ha":546,"x_min":18,"x_max":597,"o":"m 351 504 q 315 488 332 504 q 287 443 299 472 q 268 374 275 414 q 261 286 261 333 q 328 178 261 178 q 432 281 385 178 l 461 276 l 533 196 q 485 113 517 151 q 415 46 454 75 q 331 0 375 17 q 243 -17 286 -17 q 78 51 139 -17 q 18 232 18 118 q 49 402 18 322 q 133 542 79 482 q 257 636 186 601 q 408 671 328 671 q 491 662 450 671 q 560 638 532 653 l 565 613 l 494 433 l 435 432 q 351 504 400 504 m 594 892 q 501 842 550 868 q 407 790 460 818 q 301 729 354 761 l 271 739 l 214 824 q 310 907 263 865 q 393 982 357 949 q 474 1056 436 1021 l 497 1056 l 597 915 l 594 892 z "},"č":{"ha":546,"x_min":18,"x_max":646,"o":"m 351 504 q 315 488 332 504 q 287 443 299 472 q 268 374 275 414 q 261 286 261 333 q 328 178 261 178 q 432 281 385 178 l 461 276 l 533 196 q 485 113 517 151 q 415 46 454 75 q 331 0 375 17 q 243 -17 286 -17 q 78 51 139 -17 q 18 232 18 118 q 49 402 18 322 q 133 542 79 482 q 257 636 186 601 q 408 671 328 671 q 491 662 450 671 q 560 638 532 653 l 565 613 l 494 433 l 435 432 q 351 504 400 504 m 231 1018 l 264 1028 q 339 974 300 1000 q 401 932 378 947 q 474 974 429 947 q 563 1028 519 1000 l 593 1018 l 646 932 q 556 858 601 896 q 475 788 511 819 q 393 715 432 751 l 356 715 q 292 788 325 751 q 228 858 264 819 q 157 932 193 896 l 231 1018 z "},"ˇ":{"ha":536,"x_min":96,"x_max":585,"o":"m 169 1018 l 203 1028 q 278 974 239 1000 q 340 932 317 947 q 413 974 368 947 q 501 1028 458 1000 l 532 1018 l 585 932 q 495 858 540 896 q 414 788 450 819 q 332 715 371 751 l 294 715 q 231 788 264 751 q 167 858 203 819 q 96 932 132 896 l 169 1018 z "},"ç":{"ha":546,"x_min":18,"x_max":565,"o":"m 218 -15 q 72 58 125 -7 q 18 232 18 124 q 49 402 18 322 q 133 542 79 482 q 257 636 186 601 q 408 671 328 671 q 491 662 450 671 q 560 638 532 653 l 565 613 l 494 433 l 435 432 q 351 504 400 504 q 315 488 332 504 q 287 443 299 472 q 268 374 275 414 q 261 286 261 333 q 328 178 261 178 q 432 281 385 178 l 461 276 l 533 196 q 497 128 519 160 q 444 69 474 96 q 381 24 415 43 q 311 -6 346 4 l 297 -51 q 340 -76 317 -61 q 383 -109 363 -90 q 417 -149 403 -128 q 431 -192 431 -169 q 413 -248 431 -221 q 365 -294 394 -275 q 294 -326 335 -314 q 207 -337 253 -337 q 167 -333 188 -337 q 131 -319 147 -328 q 103 -297 114 -310 q 93 -267 93 -283 q 101 -245 93 -258 q 123 -217 110 -232 q 151 -189 136 -203 q 178 -164 165 -175 l 189 -164 q 201 -222 186 -203 q 244 -242 217 -242 q 288 -208 288 -242 q 278 -187 288 -199 q 252 -164 268 -175 q 217 -142 236 -153 q 181 -121 199 -131 l 218 -15 z "},"ċ":{"ha":546,"x_min":18,"x_max":565,"o":"m 351 504 q 315 488 332 504 q 287 443 299 472 q 268 374 275 414 q 261 286 261 333 q 328 178 261 178 q 432 281 385 178 l 461 276 l 533 196 q 485 113 517 151 q 415 46 454 75 q 331 0 375 17 q 243 -17 286 -17 q 78 51 139 -17 q 18 232 18 118 q 49 402 18 322 q 133 542 79 482 q 257 636 186 601 q 408 671 328 671 q 491 662 450 671 q 560 638 532 653 l 565 613 l 494 433 l 435 432 q 351 504 400 504 m 375 754 q 289 783 318 754 q 260 865 260 813 q 303 985 260 940 q 419 1031 347 1031 q 504 1001 475 1031 q 533 918 533 971 q 490 799 533 843 q 375 754 446 754 z "},"˙":{"ha":536,"x_min":200,"x_max":474,"o":"m 315 754 q 229 783 258 754 q 200 865 200 813 q 244 985 200 940 q 360 1031 288 1031 q 444 1001 415 1031 q 474 918 474 971 q 430 799 474 843 q 315 754 386 754 z "},"d":{"ha":735,"x_min":13,"x_max":760,"o":"m 619 214 q 624 214 622 214 q 631 219 625 214 q 651 236 638 225 q 692 271 665 247 l 724 265 l 751 199 q 652 93 694 135 q 576 27 610 51 q 515 -7 543 3 q 457 -17 486 -17 q 386 50 386 -17 q 388 67 386 57 q 392 97 389 78 q 403 144 396 115 q 421 219 410 174 l 407 219 q 310 70 353 125 q 222 -17 267 15 q 67 40 122 -17 q 13 201 13 97 q 44 365 13 283 q 125 510 75 446 q 238 615 175 575 q 365 656 301 656 l 458 629 l 489 840 q 483 887 493 874 q 444 900 472 900 l 406 900 l 422 1014 q 525 1017 469 1014 q 628 1022 581 1019 q 738 1031 683 1026 l 760 1003 q 704 706 731 850 q 681 577 693 643 q 656 447 668 511 q 633 324 644 383 q 614 218 622 265 l 619 214 m 286 199 q 315 223 297 199 q 353 286 333 247 q 392 374 372 325 q 426 474 411 424 q 393 492 410 483 q 360 504 378 499 q 324 510 343 510 q 303 490 314 510 q 285 438 293 469 q 272 367 276 406 q 267 289 267 328 q 272 224 267 249 q 286 199 278 199 z "},"ı":{"ha":422,"x_min":26,"x_max":432,"o":"m 300 214 q 306 215 303 214 q 317 222 310 217 q 337 240 324 228 q 372 271 350 251 l 404 265 l 432 199 q 335 94 376 136 q 260 28 293 53 q 198 -7 226 3 q 140 -17 169 -17 q 49 76 49 -17 q 79 264 65 179 q 90 335 85 300 q 101 401 96 371 q 108 451 106 431 q 111 481 111 472 q 65 526 111 526 l 26 526 l 43 640 q 143 643 89 640 q 244 649 197 646 q 353 657 300 653 l 375 629 q 346 503 361 569 q 319 371 333 444 q 294 218 306 297 l 300 214 z "},"e":{"ha":596,"x_min":19,"x_max":603,"o":"m 603 515 q 584 428 603 467 q 524 358 565 390 q 416 299 482 326 q 257 243 350 271 q 333 175 268 175 q 460 274 403 175 l 490 269 l 563 189 q 511 108 544 146 q 435 43 478 71 q 344 -1 393 15 q 247 -17 296 -17 q 81 53 143 -17 q 19 240 19 122 q 51 408 19 329 q 135 544 82 486 q 260 637 189 603 q 411 671 331 671 q 551 629 500 671 q 603 515 603 588 m 360 504 q 261 357 282 504 q 394 472 394 408 q 360 504 394 504 z "},"ě":{"ha":596,"x_min":19,"x_max":667,"o":"m 603 515 q 584 428 603 467 q 524 358 565 390 q 416 299 482 326 q 257 243 350 271 q 333 175 268 175 q 460 274 403 175 l 490 269 l 563 189 q 511 108 544 146 q 435 43 478 71 q 344 -1 393 15 q 247 -17 296 -17 q 81 53 143 -17 q 19 240 19 122 q 51 408 19 329 q 135 544 82 486 q 260 637 189 603 q 411 671 331 671 q 551 629 500 671 q 603 515 603 588 m 360 504 q 261 357 282 504 q 394 472 394 408 q 360 504 394 504 m 251 1018 l 285 1028 q 360 974 321 1000 q 422 932 399 947 q 495 974 450 947 q 583 1028 540 1000 l 614 1018 l 667 932 q 577 858 622 896 q 496 788 532 819 q 414 715 453 751 l 376 715 q 313 788 346 751 q 249 858 285 819 q 178 932 214 896 l 251 1018 z "},"ê":{"ha":596,"x_min":19,"x_max":661,"o":"m 603 515 q 584 428 603 467 q 524 358 565 390 q 416 299 482 326 q 257 243 350 271 q 333 175 268 175 q 460 274 403 175 l 490 269 l 563 189 q 511 108 544 146 q 435 43 478 71 q 344 -1 393 15 q 247 -17 296 -17 q 81 53 143 -17 q 19 240 19 122 q 51 408 19 329 q 135 544 82 486 q 260 637 189 603 q 411 671 331 671 q 551 629 500 671 q 603 515 603 588 m 360 504 q 261 357 282 504 q 394 472 394 408 q 360 504 394 504 m 171 839 q 260 913 215 875 q 342 983 306 951 q 424 1056 385 1019 l 461 1056 q 525 983 490 1019 q 589 913 553 951 q 661 839 625 875 l 588 753 l 554 743 q 478 797 518 771 q 415 839 439 824 q 342 797 388 824 q 256 743 297 771 l 224 753 l 171 839 z "},"ë":{"ha":596,"x_min":19,"x_max":660,"o":"m 603 515 q 584 428 603 467 q 524 358 565 390 q 416 299 482 326 q 257 243 350 271 q 333 175 268 175 q 460 274 403 175 l 490 269 l 563 189 q 511 108 544 146 q 435 43 478 71 q 344 -1 393 15 q 247 -17 296 -17 q 81 53 143 -17 q 19 240 19 122 q 51 408 19 329 q 135 544 82 486 q 260 637 189 603 q 411 671 331 671 q 551 629 500 671 q 603 515 603 588 m 360 504 q 261 357 282 504 q 394 472 394 408 q 360 504 394 504 m 526 776 q 428 869 428 776 q 465 970 428 932 q 563 1008 501 1008 q 635 983 610 1008 q 660 914 660 958 q 623 814 660 851 q 526 776 586 776 m 264 776 q 167 869 167 776 q 203 970 167 932 q 301 1008 240 1008 q 374 983 349 1008 q 399 914 399 958 q 362 814 399 851 q 264 776 325 776 z "},"ė":{"ha":596,"x_min":19,"x_max":603,"o":"m 603 515 q 584 428 603 467 q 524 358 565 390 q 416 299 482 326 q 257 243 350 271 q 333 175 268 175 q 460 274 403 175 l 490 269 l 563 189 q 511 108 544 146 q 435 43 478 71 q 344 -1 393 15 q 247 -17 296 -17 q 81 53 143 -17 q 19 240 19 122 q 51 408 19 329 q 135 544 82 486 q 260 637 189 603 q 411 671 331 671 q 551 629 500 671 q 603 515 603 588 m 360 504 q 261 357 282 504 q 394 472 394 408 q 360 504 394 504 m 396 754 q 310 783 339 754 q 281 865 281 813 q 324 985 281 940 q 440 1031 368 1031 q 525 1001 496 1031 q 554 918 554 971 q 510 799 554 843 q 396 754 467 754 z "},"è":{"ha":596,"x_min":19,"x_max":603,"o":"m 603 515 q 584 428 603 467 q 524 358 565 390 q 416 299 482 326 q 257 243 350 271 q 333 175 268 175 q 460 274 403 175 l 490 269 l 563 189 q 511 108 544 146 q 435 43 478 71 q 344 -1 393 15 q 247 -17 296 -17 q 81 53 143 -17 q 19 240 19 122 q 51 408 19 329 q 135 544 82 486 q 260 637 189 603 q 411 671 331 671 q 551 629 500 671 q 603 515 603 588 m 360 504 q 261 357 282 504 q 394 472 394 408 q 360 504 394 504 m 183 915 l 283 1056 l 307 1056 q 388 982 344 1021 q 471 907 424 949 q 567 824 518 865 l 510 739 l 479 729 q 373 790 425 761 q 279 842 321 818 q 186 892 231 868 l 183 915 z "},"ē":{"ha":596,"x_min":19,"x_max":636,"o":"m 603 515 q 584 428 603 467 q 524 358 565 390 q 416 299 482 326 q 257 243 350 271 q 333 175 268 175 q 460 274 403 175 l 490 269 l 563 189 q 511 108 544 146 q 435 43 478 71 q 344 -1 393 15 q 247 -17 296 -17 q 81 53 143 -17 q 19 240 19 122 q 51 408 19 329 q 135 544 82 486 q 260 637 189 603 q 411 671 331 671 q 551 629 500 671 q 603 515 603 588 m 360 504 q 261 357 282 504 q 394 472 394 408 q 360 504 394 504 m 636 938 l 592 786 l 403 785 q 341 784 372 785 q 283 783 310 783 l 224 783 l 204 804 l 249 956 q 322 954 286 954 l 456 954 q 510 955 481 954 q 565 958 540 956 q 624 963 594 960 l 636 938 z "},"ę":{"ha":596,"x_min":19,"x_max":603,"o":"m 506 -235 q 454 -275 479 -256 q 404 -308 431 -292 q 353 -335 378 -325 q 232 -306 275 -335 q 189 -224 189 -276 q 197 -175 189 -199 q 222 -124 204 -151 q 270 -65 240 -97 q 344 10 300 -32 q 297 -11 318 -6 q 247 -17 275 -17 q 81 53 143 -17 q 19 240 19 122 q 51 408 19 329 q 135 544 82 486 q 260 637 189 603 q 411 671 331 671 q 551 629 500 671 q 603 515 603 588 q 585 431 603 468 q 526 361 567 393 q 419 301 486 329 q 257 243 353 272 q 333 175 268 175 q 460 274 403 175 l 490 269 l 563 189 q 474 55 515 111 q 403 -43 433 -1 q 356 -115 374 -85 q 339 -167 339 -144 q 351 -201 339 -187 q 385 -214 364 -214 q 415 -209 400 -214 q 444 -197 431 -204 q 476 -179 460 -190 l 506 -235 m 360 504 q 261 357 282 504 q 360 410 326 381 q 394 472 394 440 q 360 504 394 504 z "},"ð":{"ha":685,"x_min":8,"x_max":676,"o":"m 597 1025 l 625 896 l 497 832 q 631 633 585 742 q 676 411 676 525 q 649 235 676 314 q 572 100 622 156 q 450 14 522 44 q 288 -17 378 -17 q 80 53 151 -17 q 8 250 8 122 q 31 408 8 333 q 94 538 54 482 q 187 625 133 593 q 300 657 240 657 q 323 642 311 650 q 347 626 335 633 l 354 639 q 292 732 332 685 l 113 643 l 100 646 l 72 776 l 182 833 q 140 869 163 851 q 94 907 118 888 l 179 1019 l 203 1031 q 295 981 251 1007 q 379 928 339 956 l 586 1031 l 597 1025 m 403 394 q 403 435 403 411 q 401 471 403 458 q 384 481 393 478 q 360 485 375 485 q 323 466 339 485 q 295 414 307 447 q 277 335 283 381 q 271 235 271 289 q 284 154 271 176 q 326 132 297 132 q 354 158 340 132 q 378 222 368 183 q 396 306 389 260 q 403 394 403 353 z "},"f":{"ha":453,"x_min":-219,"x_max":714,"o":"m 8 533 l 19 625 l 142 643 l 149 710 q 194 827 154 769 q 291 930 233 885 q 418 1003 349 975 q 554 1031 488 1031 q 638 1025 594 1031 q 708 1010 681 1019 l 714 994 l 632 813 l 604 808 q 534 855 561 842 q 482 868 507 868 q 416 842 438 868 q 386 751 394 817 l 374 640 l 547 640 l 557 631 l 540 526 l 371 528 l 360 521 l 303 -8 q 263 -126 296 -67 q 181 -231 229 -185 q 76 -307 133 -278 q -33 -336 19 -336 q -153 -311 -100 -336 q -219 -250 -206 -286 q -202 -203 -214 -229 q -176 -152 -190 -178 q -149 -104 -162 -126 q -122 -67 -135 -82 l -94 -67 q -67 -152 -89 -128 q 6 -176 -44 -176 q 71 -149 46 -176 q 96 -64 96 -121 q 95 -22 96 -44 q 96 11 94 0 l 131 513 l 115 526 l 13 526 l 8 533 z "},"g":{"ha":696,"x_min":-108,"x_max":711,"o":"m 293 199 q 322 223 304 199 q 360 287 340 247 q 399 376 379 326 q 432 475 418 425 q 400 492 417 485 q 367 504 385 499 q 331 510 349 510 q 309 490 319 510 q 290 440 299 471 q 276 369 282 408 q 271 290 271 329 q 276 224 271 249 q 293 199 282 199 m 233 -11 q 195 -37 215 -22 q 158 -64 175 -51 q 131 -87 142 -76 q 121 -100 121 -97 q 158 -144 121 -126 q 247 -162 194 -162 q 362 -121 318 -162 q 415 0 406 -79 l 444 242 l 431 246 q 356 133 386 178 q 304 60 326 89 q 266 16 282 32 q 233 -11 250 0 m 626 49 q 598 -33 622 10 q 537 -119 574 -76 q 453 -201 500 -162 q 358 -270 407 -240 q 259 -318 308 -300 q 168 -336 210 -336 q 52 -322 104 -336 q -36 -280 0 -307 q -90 -215 -72 -253 q -103 -132 -108 -176 l -97 -114 q -54 -91 -81 -104 q 2 -63 -28 -78 q 63 -34 32 -49 q 121 -7 94 -19 l 122 3 q 45 76 72 25 q 18 200 18 126 q 49 364 18 282 q 131 511 81 446 q 244 617 181 576 q 371 657 307 657 l 471 628 l 478 657 l 506 672 l 690 657 l 711 618 q 694 567 703 597 q 676 506 685 538 q 663 444 668 475 q 654 390 657 414 q 649 331 651 374 q 642 237 646 289 q 635 133 639 185 q 626 49 631 82 z "},"ğ":{"ha":696,"x_min":-108,"x_max":722,"o":"m 293 199 q 322 223 304 199 q 360 287 340 247 q 399 376 379 326 q 432 475 418 425 q 400 492 417 485 q 367 504 385 499 q 331 510 349 510 q 309 490 319 510 q 290 440 299 471 q 276 369 282 408 q 271 290 271 329 q 276 224 271 249 q 293 199 282 199 m 233 -11 q 195 -37 215 -22 q 158 -64 175 -51 q 131 -87 142 -76 q 121 -100 121 -97 q 158 -144 121 -126 q 247 -162 194 -162 q 362 -121 318 -162 q 415 0 406 -79 l 444 242 l 431 246 q 356 133 386 178 q 304 60 326 89 q 266 16 282 32 q 233 -11 250 0 m 626 49 q 598 -33 622 10 q 537 -119 574 -76 q 453 -201 500 -162 q 358 -270 407 -240 q 259 -318 308 -300 q 168 -336 210 -336 q 52 -322 104 -336 q -36 -280 0 -307 q -90 -215 -72 -253 q -103 -132 -108 -176 l -97 -114 q -54 -91 -81 -104 q 2 -63 -28 -78 q 63 -34 32 -49 q 121 -7 94 -19 l 122 3 q 45 76 72 25 q 18 200 18 126 q 49 364 18 282 q 131 511 81 446 q 244 617 181 576 q 371 657 307 657 l 471 628 l 478 657 l 506 672 l 690 657 l 711 618 q 694 567 703 597 q 676 506 685 538 q 663 444 668 475 q 654 390 657 414 q 649 331 651 374 q 642 237 646 289 q 635 133 639 185 q 626 49 631 82 m 478 918 q 571 942 528 918 q 640 1015 614 967 l 678 1006 l 722 919 q 683 850 707 883 q 626 790 660 817 q 550 747 593 763 q 456 731 507 731 q 364 747 403 731 q 299 790 325 763 q 256 850 272 817 q 235 919 240 883 l 300 1006 l 339 1015 q 391 942 354 967 q 478 918 428 918 z "},"ģ":{"ha":696,"x_min":-108,"x_max":711,"o":"m 293 199 q 322 223 304 199 q 360 287 340 247 q 399 376 379 326 q 432 475 418 425 q 400 492 417 485 q 367 504 385 499 q 331 510 349 510 q 309 490 319 510 q 290 440 299 471 q 276 369 282 408 q 271 290 271 329 q 276 224 271 249 q 293 199 282 199 m 233 -11 q 195 -37 215 -22 q 158 -64 175 -51 q 131 -87 142 -76 q 121 -100 121 -97 q 158 -144 121 -126 q 247 -162 194 -162 q 362 -121 318 -162 q 415 0 406 -79 l 444 242 l 431 246 q 356 133 386 178 q 304 60 326 89 q 266 16 282 32 q 233 -11 250 0 m 626 49 q 598 -33 622 10 q 537 -119 574 -76 q 453 -201 500 -162 q 358 -270 407 -240 q 259 -318 308 -300 q 168 -336 210 -336 q 52 -322 104 -336 q -36 -280 0 -307 q -90 -215 -72 -253 q -103 -132 -108 -176 l -97 -114 q -54 -91 -81 -104 q 2 -63 -28 -78 q 63 -34 32 -49 q 121 -7 94 -19 l 122 3 q 45 76 72 25 q 18 200 18 126 q 49 364 18 282 q 131 511 81 446 q 244 617 181 576 q 371 657 307 657 l 471 628 l 478 657 l 506 672 l 690 657 l 711 618 q 694 567 703 597 q 676 506 685 538 q 663 444 668 475 q 654 390 657 414 q 649 331 651 374 q 642 237 646 289 q 635 133 639 185 q 626 49 631 82 m 564 793 q 489 748 526 764 q 422 732 451 732 q 337 770 369 732 q 304 872 304 808 q 366 1024 304 946 q 536 1164 428 1101 l 617 1100 l 617 1065 q 552 996 576 1036 q 528 918 528 956 q 539 861 528 890 q 568 812 550 832 l 564 793 z "},"ġ":{"ha":696,"x_min":-108,"x_max":711,"o":"m 293 199 q 322 223 304 199 q 360 287 340 247 q 399 376 379 326 q 432 475 418 425 q 400 492 417 485 q 367 504 385 499 q 331 510 349 510 q 309 490 319 510 q 290 440 299 471 q 276 369 282 408 q 271 290 271 329 q 276 224 271 249 q 293 199 282 199 m 233 -11 q 195 -37 215 -22 q 158 -64 175 -51 q 131 -87 142 -76 q 121 -100 121 -97 q 158 -144 121 -126 q 247 -162 194 -162 q 362 -121 318 -162 q 415 0 406 -79 l 444 242 l 431 246 q 356 133 386 178 q 304 60 326 89 q 266 16 282 32 q 233 -11 250 0 m 626 49 q 598 -33 622 10 q 537 -119 574 -76 q 453 -201 500 -162 q 358 -270 407 -240 q 259 -318 308 -300 q 168 -336 210 -336 q 52 -322 104 -336 q -36 -280 0 -307 q -90 -215 -72 -253 q -103 -132 -108 -176 l -97 -114 q -54 -91 -81 -104 q 2 -63 -28 -78 q 63 -34 32 -49 q 121 -7 94 -19 l 122 3 q 45 76 72 25 q 18 200 18 126 q 49 364 18 282 q 131 511 81 446 q 244 617 181 576 q 371 657 307 657 l 471 628 l 478 657 l 506 672 l 690 657 l 711 618 q 694 567 703 597 q 676 506 685 538 q 663 444 668 475 q 654 390 657 414 q 649 331 651 374 q 642 237 646 289 q 635 133 639 185 q 626 49 631 82 m 453 754 q 367 783 396 754 q 338 865 338 813 q 381 985 338 940 q 497 1031 425 1031 q 582 1001 553 1031 q 611 918 611 971 q 567 799 611 843 q 453 754 524 754 z "},"ß":{"ha":939,"x_min":-219,"x_max":931,"o":"m 8 533 l 19 625 l 142 643 l 149 710 q 192 827 154 769 q 287 930 231 885 q 413 1003 343 975 q 551 1031 482 1031 q 665 1017 614 1031 q 753 977 717 1003 q 811 915 790 951 q 832 831 832 878 q 809 738 832 776 q 758 669 786 700 q 708 610 731 638 q 685 549 685 582 q 703 507 685 525 q 749 473 721 489 q 808 440 776 457 q 867 398 839 422 q 913 339 894 374 q 931 254 931 304 q 905 146 931 196 q 834 60 879 96 q 727 3 789 24 q 594 -17 665 -17 q 466 9 522 -17 q 397 74 410 35 q 411 121 401 94 q 433 174 421 147 q 460 224 446 200 q 488 264 474 247 l 525 261 q 548 180 524 213 q 608 147 572 147 q 652 163 636 147 q 668 206 668 179 q 651 245 668 229 q 607 276 633 261 q 551 308 581 292 q 494 346 521 324 q 451 399 468 368 q 433 475 433 429 q 456 567 433 529 q 508 637 479 606 q 559 699 536 668 q 582 771 582 731 q 565 838 582 807 q 504 868 549 868 q 426 842 456 868 q 386 751 396 817 l 303 -8 q 263 -126 296 -67 q 181 -231 229 -185 q 76 -307 133 -278 q -33 -336 19 -336 q -153 -311 -100 -336 q -219 -250 -206 -286 q -202 -203 -214 -229 q -176 -152 -190 -178 q -149 -104 -162 -126 q -122 -67 -135 -82 l -94 -67 q -67 -152 -89 -128 q 6 -176 -44 -176 q 71 -149 46 -176 q 96 -64 96 -121 q 95 -22 96 -44 q 96 11 94 0 l 131 513 l 115 526 l 13 526 l 8 533 z "},"h":{"ha":728,"x_min":21,"x_max":744,"o":"m 613 218 q 619 219 615 218 q 630 227 622 221 q 651 244 638 233 q 685 275 664 256 l 718 269 l 744 203 q 649 100 690 142 q 573 33 607 58 q 510 -2 539 8 q 453 -12 482 -12 q 383 7 404 -12 q 361 69 361 26 q 374 139 361 92 q 403 239 388 186 q 433 338 419 292 q 446 404 446 385 q 421 443 446 443 q 392 421 410 443 q 354 359 375 399 q 310 265 333 319 q 264 144 286 210 l 254 63 q 234 35 251 47 q 189 12 217 22 q 124 -4 161 1 q 49 -10 88 -10 l 21 22 q 79 389 53 221 q 102 531 90 460 q 124 665 114 603 q 140 773 133 726 q 151 840 147 819 q 145 887 156 874 q 107 900 135 900 l 68 900 l 85 1014 q 187 1017 132 1014 q 290 1022 242 1019 q 401 1031 346 1026 l 422 1001 q 382 806 401 906 q 344 617 364 719 q 310 419 325 515 l 319 421 q 483 674 407 622 q 635 635 581 674 q 690 525 690 596 q 679 462 690 504 q 653 374 668 419 q 626 286 639 328 q 608 222 613 244 l 613 218 z "},"ħ":{"ha":728,"x_min":7,"x_max":744,"o":"m 613 218 q 619 219 615 218 q 630 227 622 221 q 651 244 638 233 q 685 275 664 256 l 718 269 l 744 203 q 649 100 690 142 q 573 33 607 58 q 510 -2 539 8 q 453 -12 482 -12 q 383 7 404 -12 q 361 69 361 26 q 374 139 361 92 q 403 239 388 186 q 433 338 419 292 q 446 404 446 385 q 421 443 446 443 q 392 421 410 443 q 354 359 375 399 q 310 265 333 319 q 264 144 286 210 l 254 63 q 234 35 251 47 q 189 12 217 22 q 124 -4 161 1 q 49 -10 88 -10 l 21 22 q 61 274 42 149 q 78 383 69 326 q 97 497 88 440 q 114 608 106 554 q 129 706 122 661 l 22 706 l 7 719 l 18 800 l 144 799 l 151 840 q 145 887 156 874 q 107 900 135 900 l 68 900 l 85 1014 q 187 1017 132 1014 q 290 1022 242 1019 q 401 1031 346 1026 l 422 1001 q 410 944 415 976 q 397 881 404 917 q 381 800 389 844 l 490 804 l 511 783 l 504 707 l 361 707 q 334 563 347 636 q 310 419 321 489 l 319 421 q 483 674 407 622 q 635 635 581 674 q 690 525 690 596 q 679 462 690 504 q 653 374 668 419 q 626 286 639 328 q 608 222 613 244 l 613 218 z "},"i":{"ha":422,"x_min":26,"x_max":432,"o":"m 253 760 q 172 788 200 760 q 144 868 144 817 q 188 988 144 944 q 306 1031 232 1031 q 411 926 411 1031 q 367 804 411 849 q 253 760 324 760 m 300 214 q 306 215 303 214 q 317 222 310 217 q 337 240 324 228 q 372 271 350 251 l 404 265 l 432 199 q 335 94 376 136 q 260 28 293 53 q 198 -7 226 3 q 140 -17 169 -17 q 49 76 49 -17 q 79 264 65 179 q 90 335 85 300 q 101 401 96 371 q 108 451 106 431 q 111 481 111 472 q 65 526 111 526 l 26 526 l 43 640 q 143 643 89 640 q 244 649 197 646 q 353 657 300 653 l 375 629 q 346 503 361 569 q 319 371 333 444 q 294 218 306 297 l 300 214 z "},"j":{"ha":417,"x_min":-89,"x_max":438,"o":"m 289 19 q 256 -85 282 -33 q 189 -185 231 -137 q 92 -274 147 -233 q -31 -344 36 -314 l -89 -285 l -83 -264 q -20 -206 -46 -235 q 23 -142 6 -178 q 51 -62 40 -107 q 69 46 61 -17 q 103 249 88 157 q 115 326 108 288 q 126 396 121 364 q 135 450 132 428 q 138 481 138 472 q 92 526 138 526 l 53 526 l 69 640 q 169 643 115 640 q 271 649 224 646 q 379 657 326 653 l 401 629 q 368 476 386 565 q 333 286 353 400 q 289 19 313 172 m 279 760 q 199 788 226 760 q 171 868 171 817 q 215 988 171 944 q 332 1031 258 1031 q 438 926 438 1031 q 394 804 438 849 q 279 760 350 760 z "},"į":{"ha":424,"x_min":26,"x_max":432,"o":"m 358 -224 q 307 -264 332 -244 q 257 -297 283 -281 q 206 -324 231 -314 q 84 -294 126 -324 q 42 -212 42 -264 q 47 -172 42 -192 q 64 -128 51 -151 q 99 -78 76 -106 q 158 -15 122 -51 q 149 -16 154 -15 q 140 -17 144 -17 q 49 76 49 -17 q 79 264 65 179 q 90 335 85 300 q 101 401 96 371 q 108 451 106 431 q 111 481 111 472 q 65 526 111 526 l 26 526 l 43 640 q 143 643 89 640 q 244 649 197 646 q 353 657 300 653 l 375 629 q 346 503 361 569 q 319 371 333 444 q 294 218 306 297 l 300 214 q 306 215 303 214 q 317 222 310 217 q 337 240 324 228 q 372 271 350 251 l 404 265 l 432 199 q 324 63 369 119 q 249 -35 278 7 q 206 -105 219 -76 q 192 -156 192 -133 q 204 -190 192 -176 q 238 -203 217 -203 q 268 -198 253 -203 q 297 -186 283 -193 q 329 -168 313 -179 l 358 -224 m 253 760 q 172 788 200 760 q 144 868 144 817 q 188 988 144 944 q 306 1031 232 1031 q 411 926 411 1031 q 367 804 411 849 q 253 760 324 760 z "},"k":{"ha":682,"x_min":21,"x_max":703,"o":"m 340 274 l 354 300 q 407 329 383 313 q 444 365 426 344 q 461 413 461 385 q 435 443 461 443 q 403 421 422 443 q 360 359 383 399 q 313 265 338 319 q 264 144 289 210 l 254 63 q 234 35 251 47 q 189 12 217 22 q 124 -4 161 1 q 49 -10 88 -10 l 21 22 q 86 421 57 243 q 110 570 99 496 q 132 704 122 644 q 147 805 142 764 q 153 854 153 846 q 107 900 153 900 l 68 900 l 85 1014 q 187 1017 132 1014 q 290 1022 242 1019 q 401 1031 346 1026 l 422 1001 q 382 806 401 906 q 344 617 364 719 q 310 419 325 515 l 319 421 q 403 585 363 521 q 483 674 444 649 q 645 633 588 674 q 703 519 703 592 q 663 392 703 454 q 547 274 624 331 q 582 199 563 239 q 619 124 601 160 q 661 42 640 82 l 656 13 l 431 -18 l 413 -8 l 340 274 z "},"ķ":{"ha":682,"x_min":21,"x_max":703,"o":"m 340 274 l 354 300 q 407 329 383 313 q 444 365 426 344 q 461 413 461 385 q 435 443 461 443 q 403 421 422 443 q 360 359 383 399 q 313 265 338 319 q 264 144 289 210 l 254 63 q 234 35 251 47 q 189 12 217 22 q 124 -4 161 1 q 49 -10 88 -10 l 21 22 q 86 421 57 243 q 110 570 99 496 q 132 704 122 644 q 147 805 142 764 q 153 854 153 846 q 107 900 153 900 l 68 900 l 85 1014 q 187 1017 132 1014 q 290 1022 242 1019 q 401 1031 346 1026 l 422 1001 q 382 806 401 906 q 344 617 364 719 q 310 419 325 515 l 319 421 q 403 585 363 521 q 483 674 444 649 q 645 633 588 674 q 703 519 703 592 q 663 392 703 454 q 547 274 624 331 q 582 199 563 239 q 619 124 601 160 q 661 42 640 82 l 656 13 l 431 -18 l 413 -8 l 340 274 m 181 -108 q 256 -63 218 -79 q 322 -47 293 -47 q 408 -85 375 -47 q 440 -187 440 -124 q 378 -339 440 -261 q 208 -479 317 -417 l 128 -415 l 128 -381 q 192 -311 168 -351 q 217 -233 217 -271 q 206 -176 217 -206 q 176 -128 194 -147 l 181 -108 z "},"l":{"ha":404,"x_min":31,"x_max":422,"o":"m 282 214 q 288 215 285 214 q 299 222 292 217 q 319 240 306 228 q 354 271 332 251 l 386 265 l 414 199 q 317 94 358 136 q 242 28 275 53 q 180 -7 208 3 q 122 -17 151 -17 q 31 76 31 -17 q 40 149 31 89 q 63 292 49 208 q 92 469 76 375 q 121 647 107 564 q 144 787 135 729 q 153 854 153 844 q 107 900 153 900 l 68 900 l 85 1014 q 188 1017 132 1014 q 290 1022 243 1019 q 400 1031 346 1026 l 422 1003 q 360 689 389 838 q 335 558 347 625 q 311 429 322 492 q 291 312 300 367 q 276 218 282 257 l 282 214 z "},"ĺ":{"ha":404,"x_min":31,"x_max":481,"o":"m 282 214 q 288 215 285 214 q 299 222 292 217 q 319 240 306 228 q 354 271 332 251 l 386 265 l 414 199 q 317 94 358 136 q 242 28 275 53 q 180 -7 208 3 q 122 -17 151 -17 q 31 76 31 -17 q 40 149 31 89 q 63 292 49 208 q 92 469 76 375 q 121 647 107 564 q 144 787 135 729 q 153 854 153 844 q 107 900 153 900 l 68 900 l 85 1014 q 188 1017 132 1014 q 290 1022 243 1019 q 400 1031 346 1026 l 422 1003 q 360 689 389 838 q 335 558 347 625 q 311 429 322 492 q 291 312 300 367 q 276 218 282 257 l 282 214 m 478 1236 q 385 1186 433 1213 q 290 1134 343 1163 q 185 1074 238 1106 l 154 1083 l 97 1168 q 193 1251 146 1210 q 276 1326 240 1293 q 357 1400 319 1365 l 381 1400 l 481 1260 l 478 1236 z "},"ľ":{"ha":588,"x_min":31,"x_max":657,"o":"m 282 214 q 288 215 285 214 q 299 222 292 217 q 319 240 306 228 q 354 271 332 251 l 386 265 l 414 199 q 317 94 358 136 q 242 28 275 53 q 180 -7 208 3 q 122 -17 151 -17 q 31 76 31 -17 q 40 149 31 89 q 63 292 49 208 q 92 469 76 375 q 121 647 107 564 q 144 787 135 729 q 153 854 153 844 q 107 900 153 900 l 68 900 l 85 1014 q 188 1017 132 1014 q 290 1022 243 1019 q 400 1031 346 1026 l 422 1003 q 360 689 389 838 q 335 558 347 625 q 311 429 322 492 q 291 312 300 367 q 276 218 282 257 l 282 214 m 657 929 q 631 833 646 883 q 600 735 618 790 q 563 622 582 681 l 457 588 l 431 596 q 445 717 439 658 q 454 824 451 776 q 460 926 458 878 l 647 946 l 657 929 z "},"ļ":{"ha":404,"x_min":-56,"x_max":422,"o":"m 282 214 q 288 215 285 214 q 299 222 292 217 q 319 240 306 228 q 354 271 332 251 l 386 265 l 414 199 q 317 94 358 136 q 242 28 275 53 q 180 -7 208 3 q 122 -17 151 -17 q 31 76 31 -17 q 40 149 31 89 q 63 292 49 208 q 92 469 76 375 q 121 647 107 564 q 144 787 135 729 q 153 854 153 844 q 107 900 153 900 l 68 900 l 85 1014 q 188 1017 132 1014 q 290 1022 243 1019 q 400 1031 346 1026 l 422 1003 q 360 689 389 838 q 335 558 347 625 q 311 429 322 492 q 291 312 300 367 q 276 218 282 257 l 282 214 m -3 -108 q 72 -63 35 -79 q 139 -47 110 -47 q 224 -85 192 -47 q 257 -187 257 -124 q 195 -339 257 -261 q 25 -479 133 -417 l -56 -415 l -56 -381 q 9 -311 -15 -351 q 33 -233 33 -271 q 22 -176 33 -206 q -7 -128 11 -147 l -3 -108 z "},"ŀ":{"ha":617,"x_min":31,"x_max":644,"o":"m 282 214 q 288 215 285 214 q 299 222 292 217 q 319 240 306 228 q 354 271 332 251 l 386 265 l 414 199 q 317 94 358 136 q 242 28 275 53 q 180 -7 208 3 q 122 -17 151 -17 q 31 76 31 -17 q 40 149 31 89 q 63 292 49 208 q 92 469 76 375 q 121 647 107 564 q 144 787 135 729 q 153 854 153 844 q 107 900 153 900 l 68 900 l 85 1014 q 188 1017 132 1014 q 290 1022 243 1019 q 400 1031 346 1026 l 422 1003 q 360 689 389 838 q 335 558 347 625 q 311 429 322 492 q 291 312 300 367 q 276 218 282 257 l 282 214 m 486 285 q 401 314 429 285 q 372 396 372 343 q 416 516 372 471 q 532 561 460 561 q 615 531 586 561 q 644 449 644 501 q 601 329 644 374 q 486 285 557 285 z "},"ł":{"ha":404,"x_min":-39,"x_max":460,"o":"m 282 214 q 288 215 285 214 q 299 222 292 217 q 319 240 306 228 q 354 271 332 251 l 386 265 l 414 199 q 317 94 358 136 q 242 28 275 53 q 180 -7 208 3 q 122 -17 151 -17 q 31 76 31 -17 q 34 109 31 83 q 43 174 38 135 q 57 261 49 213 q 74 364 65 310 l 18 336 l 4 339 l -39 469 l 103 540 q 122 653 113 599 q 138 750 131 707 q 149 820 144 793 q 153 854 153 847 q 107 900 153 900 l 68 900 l 85 1014 q 188 1017 132 1014 q 290 1022 243 1019 q 400 1031 346 1026 l 422 1003 q 400 890 413 950 q 376 772 389 839 q 349 633 363 706 l 404 661 l 417 656 l 460 526 l 315 454 q 293 322 303 383 q 276 218 283 261 l 282 214 z "},"m":{"ha":1104,"x_min":29,"x_max":1121,"o":"m 989 218 q 1007 228 994 218 q 1061 275 1019 239 l 1094 269 l 1121 203 q 1024 99 1065 140 q 949 33 982 58 q 887 -2 915 8 q 829 -12 858 -12 q 759 7 781 -12 q 738 69 738 26 q 751 139 738 92 q 780 239 764 186 q 809 338 796 292 q 822 404 822 385 q 797 443 822 443 q 765 419 785 443 q 721 354 744 396 q 671 255 697 313 q 618 129 644 197 l 611 63 q 592 35 610 47 q 547 12 575 22 q 481 -4 518 1 q 406 -10 444 -10 l 378 22 q 422 197 403 118 q 438 265 431 231 q 452 328 446 299 q 463 379 458 357 q 467 411 467 401 q 440 443 467 443 q 412 421 429 443 q 374 359 394 399 q 329 265 353 319 q 283 144 306 210 l 274 63 q 253 35 271 47 q 208 12 236 22 q 144 -4 181 1 q 68 -10 107 -10 l 40 22 q 72 214 57 125 q 84 290 78 251 q 96 363 90 329 q 106 424 101 397 q 113 467 110 451 q 106 513 117 500 q 68 526 96 526 l 29 526 l 46 640 q 146 643 92 640 q 247 649 200 646 q 356 657 303 653 l 375 628 l 358 561 q 343 494 351 532 q 329 419 335 457 l 339 421 q 423 585 382 521 q 503 674 464 649 q 652 635 599 674 q 706 526 706 596 q 702 494 706 513 q 696 460 699 476 q 686 419 690 440 l 696 421 q 780 585 739 521 q 860 674 821 649 q 1012 635 957 674 q 1067 525 1067 596 q 1056 462 1067 504 q 1030 374 1044 419 q 1002 286 1015 328 q 985 222 989 244 l 989 218 z "},"n":{"ha":747,"x_min":29,"x_max":764,"o":"m 632 218 q 638 219 635 218 q 649 227 642 221 q 670 244 657 233 q 704 275 683 256 l 738 269 l 764 203 q 668 100 710 142 q 592 33 626 58 q 530 -2 558 8 q 472 -12 501 -12 q 402 7 424 -12 q 381 69 381 26 q 394 139 381 92 q 423 239 407 186 q 452 338 439 292 q 465 404 465 385 q 440 443 465 443 q 412 421 429 443 q 374 359 394 399 q 329 265 353 319 q 283 144 306 210 l 274 63 q 253 35 271 47 q 208 12 236 22 q 144 -4 181 1 q 68 -10 107 -10 l 40 22 q 72 214 57 125 q 84 290 78 251 q 96 363 90 329 q 106 424 101 397 q 113 467 110 451 q 106 513 117 500 q 68 526 96 526 l 29 526 l 46 640 q 146 643 92 640 q 247 649 200 646 q 356 657 303 653 l 375 628 l 358 561 q 343 494 351 532 q 329 419 335 457 l 339 421 q 503 674 426 622 q 655 635 600 674 q 710 525 710 596 q 699 462 710 504 q 673 374 688 419 q 645 286 658 328 q 628 222 632 244 l 632 218 z "},"ń":{"ha":747,"x_min":29,"x_max":764,"o":"m 632 218 q 638 219 635 218 q 649 227 642 221 q 670 244 657 233 q 704 275 683 256 l 738 269 l 764 203 q 668 100 710 142 q 592 33 626 58 q 530 -2 558 8 q 472 -12 501 -12 q 402 7 424 -12 q 381 69 381 26 q 394 139 381 92 q 423 239 407 186 q 452 338 439 292 q 465 404 465 385 q 440 443 465 443 q 412 421 429 443 q 374 359 394 399 q 329 265 353 319 q 283 144 306 210 l 274 63 q 253 35 271 47 q 208 12 236 22 q 144 -4 181 1 q 68 -10 107 -10 l 40 22 q 72 214 57 125 q 84 290 78 251 q 96 363 90 329 q 106 424 101 397 q 113 467 110 451 q 106 513 117 500 q 68 526 96 526 l 29 526 l 46 640 q 146 643 92 640 q 247 649 200 646 q 356 657 303 653 l 375 628 l 358 561 q 343 494 351 532 q 329 419 335 457 l 339 421 q 503 674 426 622 q 655 635 600 674 q 710 525 710 596 q 699 462 710 504 q 673 374 688 419 q 645 286 658 328 q 628 222 632 244 l 632 218 m 647 892 q 554 842 603 868 q 460 790 513 818 q 354 729 407 761 l 324 739 l 267 824 q 363 907 315 865 q 446 982 410 949 q 526 1056 489 1021 l 550 1056 l 650 915 l 647 892 z "},"ň":{"ha":747,"x_min":29,"x_max":764,"o":"m 632 218 q 638 219 635 218 q 649 227 642 221 q 670 244 657 233 q 704 275 683 256 l 738 269 l 764 203 q 668 100 710 142 q 592 33 626 58 q 530 -2 558 8 q 472 -12 501 -12 q 402 7 424 -12 q 381 69 381 26 q 394 139 381 92 q 423 239 407 186 q 452 338 439 292 q 465 404 465 385 q 440 443 465 443 q 412 421 429 443 q 374 359 394 399 q 329 265 353 319 q 283 144 306 210 l 274 63 q 253 35 271 47 q 208 12 236 22 q 144 -4 181 1 q 68 -10 107 -10 l 40 22 q 72 214 57 125 q 84 290 78 251 q 96 363 90 329 q 106 424 101 397 q 113 467 110 451 q 106 513 117 500 q 68 526 96 526 l 29 526 l 46 640 q 146 643 92 640 q 247 649 200 646 q 356 657 303 653 l 375 628 l 358 561 q 343 494 351 532 q 329 419 335 457 l 339 421 q 503 674 426 622 q 655 635 600 674 q 710 525 710 596 q 699 462 710 504 q 673 374 688 419 q 645 286 658 328 q 628 222 632 244 l 632 218 m 297 1018 l 331 1028 q 406 974 367 1000 q 468 932 444 947 q 541 974 496 947 q 629 1028 586 1000 l 660 1018 l 713 932 q 623 858 668 896 q 542 788 578 819 q 460 715 499 751 l 422 715 q 358 788 392 751 q 295 858 331 819 q 224 932 260 896 l 297 1018 z "},"ņ":{"ha":747,"x_min":29,"x_max":764,"o":"m 632 218 q 638 219 635 218 q 649 227 642 221 q 670 244 657 233 q 704 275 683 256 l 738 269 l 764 203 q 668 100 710 142 q 592 33 626 58 q 530 -2 558 8 q 472 -12 501 -12 q 402 7 424 -12 q 381 69 381 26 q 394 139 381 92 q 423 239 407 186 q 452 338 439 292 q 465 404 465 385 q 440 443 465 443 q 412 421 429 443 q 374 359 394 399 q 329 265 353 319 q 283 144 306 210 l 274 63 q 253 35 271 47 q 208 12 236 22 q 144 -4 181 1 q 68 -10 107 -10 l 40 22 q 72 214 57 125 q 84 290 78 251 q 96 363 90 329 q 106 424 101 397 q 113 467 110 451 q 106 513 117 500 q 68 526 96 526 l 29 526 l 46 640 q 146 643 92 640 q 247 649 200 646 q 356 657 303 653 l 375 628 l 358 561 q 343 494 351 532 q 329 419 335 457 l 339 421 q 503 674 426 622 q 655 635 600 674 q 710 525 710 596 q 699 462 710 504 q 673 374 688 419 q 645 286 658 328 q 628 222 632 244 l 632 218 m 193 -108 q 268 -63 231 -79 q 335 -47 306 -47 q 420 -85 388 -47 q 453 -187 453 -124 q 391 -339 453 -261 q 221 -479 329 -417 l 140 -415 l 140 -381 q 205 -311 181 -351 q 229 -233 229 -271 q 218 -176 229 -206 q 189 -128 207 -147 l 193 -108 z "},"ñ":{"ha":747,"x_min":29,"x_max":764,"o":"m 632 218 q 638 219 635 218 q 649 227 642 221 q 670 244 657 233 q 704 275 683 256 l 738 269 l 764 203 q 668 100 710 142 q 592 33 626 58 q 530 -2 558 8 q 472 -12 501 -12 q 402 7 424 -12 q 381 69 381 26 q 394 139 381 92 q 423 239 407 186 q 452 338 439 292 q 465 404 465 385 q 440 443 465 443 q 412 421 429 443 q 374 359 394 399 q 329 265 353 319 q 283 144 306 210 l 274 63 q 253 35 271 47 q 208 12 236 22 q 144 -4 181 1 q 68 -10 107 -10 l 40 22 q 72 214 57 125 q 84 290 78 251 q 96 363 90 329 q 106 424 101 397 q 113 467 110 451 q 106 513 117 500 q 68 526 96 526 l 29 526 l 46 640 q 146 643 92 640 q 247 649 200 646 q 356 657 303 653 l 375 628 l 358 561 q 343 494 351 532 q 329 419 335 457 l 339 421 q 503 674 426 622 q 655 635 600 674 q 710 525 710 596 q 699 462 710 504 q 673 374 688 419 q 645 286 658 328 q 628 222 632 244 l 632 218 m 254 729 l 181 804 l 183 826 l 313 986 l 336 992 q 382 984 354 992 q 440 968 410 976 q 497 952 469 960 q 539 944 524 944 q 568 957 550 944 q 601 985 586 969 q 639 1025 619 1001 l 661 1025 l 735 950 l 732 928 l 603 768 l 579 763 q 533 770 561 763 q 476 786 506 778 q 419 802 446 794 q 376 810 392 810 q 347 797 364 810 q 314 769 329 785 q 276 729 296 751 l 254 729 z "},"o":{"ha":675,"x_min":26,"x_max":650,"o":"m 328 132 q 382 188 365 132 q 399 371 399 244 q 387 476 399 446 q 346 506 375 506 q 293 442 313 506 q 274 271 274 379 q 287 165 274 199 q 328 132 300 132 m 275 -17 q 91 54 156 -17 q 26 256 26 125 q 53 427 26 350 q 129 558 81 504 q 247 642 178 613 q 401 672 317 672 q 587 605 524 672 q 650 410 650 538 q 623 235 650 314 q 547 100 596 156 q 429 14 499 44 q 275 -17 360 -17 z "},"ó":{"ha":675,"x_min":26,"x_max":650,"o":"m 328 132 q 382 188 365 132 q 399 371 399 244 q 387 476 399 446 q 346 506 375 506 q 293 442 313 506 q 274 271 274 379 q 287 165 274 199 q 328 132 300 132 m 275 -17 q 91 54 156 -17 q 26 256 26 125 q 53 427 26 350 q 129 558 81 504 q 247 642 178 613 q 401 672 317 672 q 587 605 524 672 q 650 410 650 538 q 623 235 650 314 q 547 100 596 156 q 429 14 499 44 q 275 -17 360 -17 m 599 892 q 506 842 554 868 q 411 790 464 818 q 306 729 358 761 l 275 739 l 218 824 q 314 907 267 865 q 397 982 361 949 q 478 1056 440 1021 l 501 1056 l 601 915 l 599 892 z "},"ô":{"ha":675,"x_min":26,"x_max":650,"o":"m 328 132 q 382 188 365 132 q 399 371 399 244 q 387 476 399 446 q 346 506 375 506 q 293 442 313 506 q 274 271 274 379 q 287 165 274 199 q 328 132 300 132 m 275 -17 q 91 54 156 -17 q 26 256 26 125 q 53 427 26 350 q 129 558 81 504 q 247 642 178 613 q 401 672 317 672 q 587 605 524 672 q 650 410 650 538 q 623 235 650 314 q 547 100 596 156 q 429 14 499 44 q 275 -17 360 -17 m 154 839 q 244 913 199 875 q 325 983 289 951 q 407 1056 368 1019 l 444 1056 q 508 983 474 1019 q 572 913 536 951 q 644 839 608 875 l 571 753 l 538 743 q 462 797 501 771 q 399 839 422 824 q 326 797 371 824 q 239 743 281 771 l 207 753 l 154 839 z "},"ö":{"ha":675,"x_min":26,"x_max":650,"o":"m 328 132 q 382 188 365 132 q 399 371 399 244 q 387 476 399 446 q 346 506 375 506 q 293 442 313 506 q 274 271 274 379 q 287 165 274 199 q 328 132 300 132 m 275 -17 q 91 54 156 -17 q 26 256 26 125 q 53 427 26 350 q 129 558 81 504 q 247 642 178 613 q 401 672 317 672 q 587 605 524 672 q 650 410 650 538 q 623 235 650 314 q 547 100 596 156 q 429 14 499 44 q 275 -17 360 -17 m 515 776 q 417 869 417 776 q 453 970 417 932 q 551 1008 490 1008 q 624 983 599 1008 q 649 914 649 958 q 612 814 649 851 q 515 776 575 776 m 253 776 q 156 869 156 776 q 192 970 156 932 q 290 1008 229 1008 q 363 983 338 1008 q 388 914 388 958 q 351 814 388 851 q 253 776 314 776 z "},"ò":{"ha":675,"x_min":26,"x_max":650,"o":"m 328 132 q 382 188 365 132 q 399 371 399 244 q 387 476 399 446 q 346 506 375 506 q 293 442 313 506 q 274 271 274 379 q 287 165 274 199 q 328 132 300 132 m 275 -17 q 91 54 156 -17 q 26 256 26 125 q 53 427 26 350 q 129 558 81 504 q 247 642 178 613 q 401 672 317 672 q 587 605 524 672 q 650 410 650 538 q 623 235 650 314 q 547 100 596 156 q 429 14 499 44 q 275 -17 360 -17 m 153 915 l 253 1056 l 276 1056 q 357 982 314 1021 q 440 907 393 949 q 536 824 488 865 l 479 739 l 449 729 q 342 790 394 761 q 249 842 290 818 q 156 892 200 868 l 153 915 z "},"ő":{"ha":675,"x_min":26,"x_max":681,"o":"m 328 132 q 382 188 365 132 q 399 371 399 244 q 387 476 399 446 q 346 506 375 506 q 293 442 313 506 q 274 271 274 379 q 287 165 274 199 q 328 132 300 132 m 275 -17 q 91 54 156 -17 q 26 256 26 125 q 53 427 26 350 q 129 558 81 504 q 247 642 178 613 q 401 672 317 672 q 587 605 524 672 q 650 410 650 538 q 623 235 650 314 q 547 100 596 156 q 429 14 499 44 q 275 -17 360 -17 m 454 940 q 392 876 425 911 q 329 810 364 847 q 258 733 294 774 l 232 733 l 164 786 q 219 878 192 833 q 268 960 247 924 q 314 1040 293 1001 l 333 1047 l 450 960 l 454 940 m 681 940 q 618 876 651 911 q 556 810 590 847 q 485 733 521 774 l 458 733 l 390 786 q 446 878 418 833 q 494 960 474 924 q 540 1040 519 1001 l 560 1047 l 676 960 l 681 940 z "},"˝":{"ha":536,"x_min":-11,"x_max":506,"o":"m 279 940 q 217 876 250 911 q 154 810 189 847 q 83 733 119 774 l 57 733 l -11 786 q 44 878 17 833 q 93 960 72 924 q 139 1040 118 1001 l 158 1047 l 275 960 l 279 940 m 506 940 q 443 876 476 911 q 381 810 415 847 q 310 733 346 774 l 283 733 l 215 786 q 271 878 243 833 q 319 960 299 924 q 365 1040 344 1001 l 385 1047 l 501 960 l 506 940 z "},"ō":{"ha":675,"x_min":26,"x_max":650,"o":"m 328 132 q 382 188 365 132 q 399 371 399 244 q 387 476 399 446 q 346 506 375 506 q 293 442 313 506 q 274 271 274 379 q 287 165 274 199 q 328 132 300 132 m 275 -17 q 91 54 156 -17 q 26 256 26 125 q 53 427 26 350 q 129 558 81 504 q 247 642 178 613 q 401 672 317 672 q 587 605 524 672 q 650 410 650 538 q 623 235 650 314 q 547 100 596 156 q 429 14 499 44 q 275 -17 360 -17 m 619 938 l 575 786 l 386 785 q 324 784 356 785 q 267 783 293 783 l 207 783 l 188 804 l 232 956 q 306 954 269 954 l 439 954 q 494 955 464 954 q 549 958 524 956 q 607 963 578 960 l 619 938 z "},"ø":{"ha":675,"x_min":-40,"x_max":728,"o":"m 78 69 q 26 256 26 138 q 53 427 26 350 q 129 558 81 504 q 247 642 178 613 q 401 672 317 672 q 475 664 442 672 l 590 843 l 725 768 l 728 750 l 611 571 q 650 410 650 506 q 623 235 650 314 q 547 100 596 156 q 429 14 499 44 q 275 -17 360 -17 q 246 -15 260 -17 q 218 -11 232 -14 l 97 -192 l -35 -115 l -40 -101 l 78 69 m 328 132 q 382 188 365 132 q 399 371 399 244 q 387 476 399 446 q 346 506 375 506 q 293 442 313 506 q 274 271 274 379 q 287 165 274 199 q 328 132 300 132 z "},"õ":{"ha":675,"x_min":26,"x_max":686,"o":"m 328 132 q 382 188 365 132 q 399 371 399 244 q 387 476 399 446 q 346 506 375 506 q 293 442 313 506 q 274 271 274 379 q 287 165 274 199 q 328 132 300 132 m 275 -17 q 91 54 156 -17 q 26 256 26 125 q 53 427 26 350 q 129 558 81 504 q 247 642 178 613 q 401 672 317 672 q 587 605 524 672 q 650 410 650 538 q 623 235 650 314 q 547 100 596 156 q 429 14 499 44 q 275 -17 360 -17 m 206 729 l 132 804 l 135 826 l 264 986 l 288 992 q 333 984 306 992 q 391 968 361 976 q 448 952 421 960 q 490 944 475 944 q 519 957 501 944 q 553 985 538 969 q 590 1025 571 1001 l 613 1025 l 686 950 l 683 928 l 554 768 l 531 763 q 485 770 513 763 q 427 786 457 778 q 370 802 397 794 q 328 810 343 810 q 298 797 315 810 q 265 769 281 785 q 228 729 247 751 l 206 729 z "},"p":{"ha":749,"x_min":-94,"x_max":736,"o":"m -72 -215 q -40 -208 -53 -212 q -17 -192 -26 -203 q -1 -165 -8 -182 q 11 -124 6 -149 q 28 -35 18 -89 q 49 80 39 18 q 70 206 60 142 q 88 326 81 271 q 101 424 96 382 q 106 481 106 465 q 60 526 106 526 l 21 526 l 38 640 q 138 643 83 640 q 239 649 192 646 q 347 657 294 653 l 369 631 q 343 533 354 582 q 322 436 332 485 l 335 436 q 427 584 383 528 q 513 672 471 640 q 678 615 619 672 q 736 453 736 557 q 704 287 736 368 q 621 142 672 206 q 507 39 569 78 q 383 0 444 0 l 249 28 l 226 -133 q 233 -187 221 -174 q 285 -201 244 -201 l 349 -201 l 350 -210 l 328 -319 q 184 -321 258 -319 q 47 -325 110 -322 q -94 -329 -26 -328 l -72 -215 m 467 482 q 441 462 458 482 q 404 405 424 442 q 363 317 385 368 q 325 207 342 267 q 357 189 340 196 q 390 176 372 182 q 428 171 408 171 q 449 193 439 171 q 467 249 460 215 q 480 321 475 282 q 485 393 485 360 q 479 458 485 433 q 467 482 474 482 z "},"q":{"ha":703,"x_min":13,"x_max":704,"o":"m 388 65 l 421 219 l 407 219 q 310 70 353 125 q 222 -17 267 15 q 67 40 122 -17 q 13 201 13 97 q 44 365 13 283 q 125 510 75 446 q 238 615 175 575 q 365 656 301 656 l 465 628 l 483 694 l 511 711 l 694 692 l 704 660 q 633 306 664 469 q 607 165 619 236 q 585 30 594 93 q 569 -84 575 -33 q 563 -164 563 -135 q 569 -194 563 -186 q 593 -203 575 -203 l 629 -201 l 633 -207 l 610 -319 q 434 -322 510 -319 q 308 -328 358 -325 q 208 -336 250 -332 l 231 -222 q 285 -217 264 -221 q 319 -203 306 -212 q 339 -178 332 -194 q 350 -135 346 -161 l 388 65 m 286 199 q 315 223 297 199 q 353 286 333 247 q 392 374 372 325 q 426 474 411 424 q 393 492 410 483 q 360 504 378 499 q 324 510 343 510 q 303 490 314 510 q 285 438 293 469 q 272 367 276 406 q 267 289 267 328 q 272 224 267 249 q 286 199 278 199 z "},"r":{"ha":578,"x_min":29,"x_max":600,"o":"m 40 22 q 76 233 61 138 q 90 314 83 274 q 102 388 97 354 q 110 447 107 422 q 114 481 114 471 q 68 526 114 526 l 29 526 l 46 640 q 146 643 92 640 q 247 649 200 646 q 356 657 303 653 l 375 628 q 360 571 367 601 q 347 512 353 544 q 336 447 340 479 l 346 449 q 383 533 361 492 q 429 604 406 574 q 476 653 453 635 q 515 672 499 672 q 600 494 600 614 q 594 451 600 475 q 576 393 589 426 l 550 381 q 531 394 542 389 q 507 404 521 400 q 476 408 493 408 q 376 347 424 408 q 285 158 329 286 l 274 63 q 253 35 271 47 q 208 12 236 22 q 144 -4 181 1 q 68 -10 107 -10 l 40 22 l 40 22 z "},"ŕ":{"ha":578,"x_min":29,"x_max":600,"o":"m 40 22 q 76 233 61 138 q 90 314 83 274 q 102 388 97 354 q 110 447 107 422 q 114 481 114 471 q 68 526 114 526 l 29 526 l 46 640 q 146 643 92 640 q 247 649 200 646 q 356 657 303 653 l 375 628 q 360 571 367 601 q 347 512 353 544 q 336 447 340 479 l 346 449 q 383 533 361 492 q 429 604 406 574 q 476 653 453 635 q 515 672 499 672 q 600 494 600 614 q 594 451 600 475 q 576 393 589 426 l 550 381 q 531 394 542 389 q 507 404 521 400 q 476 408 493 408 q 376 347 424 408 q 285 158 329 286 l 274 63 q 253 35 271 47 q 208 12 236 22 q 144 -4 181 1 q 68 -10 107 -10 l 40 22 l 40 22 m 486 892 q 393 842 442 868 q 299 790 351 818 q 193 729 246 761 l 163 739 l 106 824 q 201 907 154 865 q 285 982 249 949 q 365 1056 328 1021 l 389 1056 l 489 915 l 486 892 z "},"ř":{"ha":578,"x_min":29,"x_max":600,"o":"m 40 22 q 76 233 61 138 q 90 314 83 274 q 102 388 97 354 q 110 447 107 422 q 114 481 114 471 q 68 526 114 526 l 29 526 l 46 640 q 146 643 92 640 q 247 649 200 646 q 356 657 303 653 l 375 628 q 360 571 367 601 q 347 512 353 544 q 336 447 340 479 l 346 449 q 383 533 361 492 q 429 604 406 574 q 476 653 453 635 q 515 672 499 672 q 600 494 600 614 q 594 451 600 475 q 576 393 589 426 l 550 381 q 531 394 542 389 q 507 404 521 400 q 476 408 493 408 q 376 347 424 408 q 285 158 329 286 l 274 63 q 253 35 271 47 q 208 12 236 22 q 144 -4 181 1 q 68 -10 107 -10 l 40 22 l 40 22 m 124 1018 l 157 1028 q 232 974 193 1000 q 294 932 271 947 q 367 974 322 947 q 456 1028 413 1000 l 486 1018 l 539 932 q 449 858 494 896 q 368 788 404 819 q 286 715 325 751 l 249 715 q 185 788 218 751 q 122 858 157 819 q 50 932 86 896 l 124 1018 z "},"ŗ":{"ha":578,"x_min":-42,"x_max":600,"o":"m 40 22 q 76 233 61 138 q 90 314 83 274 q 102 388 97 354 q 110 447 107 422 q 114 481 114 471 q 68 526 114 526 l 29 526 l 46 640 q 146 643 92 640 q 247 649 200 646 q 356 657 303 653 l 375 628 q 360 571 367 601 q 347 512 353 544 q 336 447 340 479 l 346 449 q 383 533 361 492 q 429 604 406 574 q 476 653 453 635 q 515 672 499 672 q 600 494 600 614 q 594 451 600 475 q 576 393 589 426 l 550 381 q 531 394 542 389 q 507 404 521 400 q 476 408 493 408 q 376 347 424 408 q 285 158 329 286 l 274 63 q 253 35 271 47 q 208 12 236 22 q 144 -4 181 1 q 68 -10 107 -10 l 40 22 l 40 22 m 11 -108 q 86 -63 49 -79 q 153 -47 124 -47 q 238 -85 206 -47 q 271 -187 271 -124 q 209 -339 271 -261 q 39 -479 147 -417 l -42 -415 l -42 -381 q 23 -311 -1 -351 q 47 -233 47 -271 q 36 -176 47 -206 q 7 -128 25 -147 l 11 -108 z "},"s":{"ha":558,"x_min":-10,"x_max":578,"o":"m 111 247 q 148 176 115 206 q 225 147 181 147 q 281 182 281 147 q 253 220 281 206 q 190 251 226 235 q 144 276 167 263 q 101 308 121 289 q 70 354 82 328 q 58 418 58 381 q 82 520 58 474 q 147 601 106 567 q 246 653 189 635 q 369 672 303 672 q 486 657 431 672 q 578 614 542 642 q 533 513 554 557 q 490 436 511 469 l 456 436 q 418 484 440 467 q 372 501 396 501 q 339 490 353 501 q 325 463 325 479 q 336 438 325 447 q 367 418 347 428 q 421 392 390 406 q 478 358 451 378 q 524 308 506 338 q 543 233 543 278 q 518 133 543 179 q 449 54 493 88 q 344 2 406 21 q 213 -17 283 -17 q 133 -10 171 -17 q 67 9 96 -3 q 17 38 38 21 q -10 74 -3 54 q 1 117 -7 93 q 22 166 10 142 q 47 213 33 190 q 74 250 60 235 l 111 247 z "},"ś":{"ha":558,"x_min":-10,"x_max":583,"o":"m 111 247 q 148 176 115 206 q 225 147 181 147 q 281 182 281 147 q 253 220 281 206 q 190 251 226 235 q 144 276 167 263 q 101 308 121 289 q 70 354 82 328 q 58 418 58 381 q 82 520 58 474 q 147 601 106 567 q 246 653 189 635 q 369 672 303 672 q 486 657 431 672 q 578 614 542 642 q 533 513 554 557 q 490 436 511 469 l 456 436 q 418 484 440 467 q 372 501 396 501 q 339 490 353 501 q 325 463 325 479 q 336 438 325 447 q 367 418 347 428 q 421 392 390 406 q 478 358 451 378 q 524 308 506 338 q 543 233 543 278 q 518 133 543 179 q 449 54 493 88 q 344 2 406 21 q 213 -17 283 -17 q 133 -10 171 -17 q 67 9 96 -3 q 17 38 38 21 q -10 74 -3 54 q 1 117 -7 93 q 22 166 10 142 q 47 213 33 190 q 74 250 60 235 l 111 247 m 581 892 q 488 842 536 868 q 393 790 446 818 q 288 729 340 761 l 257 739 l 200 824 q 296 907 249 865 q 379 982 343 949 q 460 1056 422 1021 l 483 1056 l 583 915 l 581 892 z "},"š":{"ha":558,"x_min":-10,"x_max":618,"o":"m 111 247 q 148 176 115 206 q 225 147 181 147 q 281 182 281 147 q 253 220 281 206 q 190 251 226 235 q 144 276 167 263 q 101 308 121 289 q 70 354 82 328 q 58 418 58 381 q 82 520 58 474 q 147 601 106 567 q 246 653 189 635 q 369 672 303 672 q 486 657 431 672 q 578 614 542 642 q 533 513 554 557 q 490 436 511 469 l 456 436 q 418 484 440 467 q 372 501 396 501 q 339 490 353 501 q 325 463 325 479 q 336 438 325 447 q 367 418 347 428 q 421 392 390 406 q 478 358 451 378 q 524 308 506 338 q 543 233 543 278 q 518 133 543 179 q 449 54 493 88 q 344 2 406 21 q 213 -17 283 -17 q 133 -10 171 -17 q 67 9 96 -3 q 17 38 38 21 q -10 74 -3 54 q 1 117 -7 93 q 22 166 10 142 q 47 213 33 190 q 74 250 60 235 l 111 247 m 203 1018 l 236 1028 q 311 974 272 1000 q 374 932 350 947 q 447 974 401 947 q 535 1028 492 1000 l 565 1018 l 618 932 q 528 858 574 896 q 447 788 483 819 q 365 715 404 751 l 328 715 q 264 788 297 751 q 201 858 236 819 q 129 932 165 896 l 203 1018 z "},"ş":{"ha":558,"x_min":-10,"x_max":578,"o":"m 172 -15 q 51 15 101 -8 q -10 74 1 38 q 1 117 -7 93 q 22 166 10 142 q 47 213 33 190 q 74 250 60 235 l 111 247 q 148 176 115 206 q 225 147 181 147 q 281 182 281 147 q 253 220 281 206 q 190 251 226 235 q 144 276 167 263 q 101 308 121 289 q 70 354 82 328 q 58 418 58 381 q 82 520 58 474 q 147 601 106 567 q 246 653 189 635 q 369 672 303 672 q 486 657 431 672 q 578 614 542 642 q 533 513 554 557 q 490 436 511 469 l 456 436 q 418 484 440 467 q 372 501 396 501 q 339 490 353 501 q 325 463 325 479 q 336 438 325 447 q 367 418 347 428 q 421 392 390 406 q 478 358 451 378 q 524 308 506 338 q 543 233 543 278 q 522 141 543 183 q 464 66 501 99 q 375 13 426 33 q 261 -14 324 -8 l 250 -51 q 292 -76 269 -61 q 335 -109 315 -90 q 369 -149 356 -128 q 383 -192 383 -169 q 365 -248 383 -221 q 317 -294 347 -275 q 247 -326 288 -314 q 160 -337 206 -337 q 120 -333 140 -337 q 83 -319 100 -328 q 56 -297 67 -310 q 46 -267 46 -283 q 54 -245 46 -258 q 76 -217 63 -232 q 103 -189 89 -203 q 131 -164 118 -175 l 142 -164 q 154 -222 139 -203 q 197 -242 169 -242 q 240 -208 240 -242 q 231 -187 240 -199 q 205 -164 221 -175 q 170 -142 189 -153 q 133 -121 151 -131 l 172 -15 z "},"ș":{"ha":558,"x_min":-10,"x_max":578,"o":"m 111 247 q 148 176 115 206 q 225 147 181 147 q 281 182 281 147 q 253 220 281 206 q 190 251 226 235 q 144 276 167 263 q 101 308 121 289 q 70 354 82 328 q 58 418 58 381 q 82 520 58 474 q 147 601 106 567 q 246 653 189 635 q 369 672 303 672 q 486 657 431 672 q 578 614 542 642 q 533 513 554 557 q 490 436 511 469 l 456 436 q 418 484 440 467 q 372 501 396 501 q 339 490 353 501 q 325 463 325 479 q 336 438 325 447 q 367 418 347 428 q 421 392 390 406 q 478 358 451 378 q 524 308 506 338 q 543 233 543 278 q 518 133 543 179 q 449 54 493 88 q 344 2 406 21 q 213 -17 283 -17 q 133 -10 171 -17 q 67 9 96 -3 q 17 38 38 21 q -10 74 -3 54 q 1 117 -7 93 q 22 166 10 142 q 47 213 33 190 q 74 250 60 235 l 111 247 m 90 -108 q 165 -63 128 -79 q 232 -47 203 -47 q 317 -85 285 -47 q 350 -187 350 -124 q 288 -339 350 -261 q 118 -479 226 -417 l 38 -415 l 38 -381 q 102 -311 78 -351 q 126 -233 126 -271 q 115 -176 126 -206 q 86 -128 104 -147 l 90 -108 z "},"t":{"ha":460,"x_min":31,"x_max":513,"o":"m 435 265 l 464 196 q 336 42 396 100 q 244 -17 276 -17 q 99 33 147 -17 q 61 171 50 82 l 122 515 l 110 526 l 35 526 l 31 533 l 42 625 l 142 640 q 149 694 144 667 q 156 744 153 722 q 161 794 160 769 l 394 843 l 414 826 q 400 768 407 799 q 385 709 393 742 q 371 640 378 676 l 503 640 l 513 631 l 496 526 l 365 528 l 347 517 l 299 250 q 324 208 294 208 q 355 222 338 208 q 404 271 372 235 l 435 265 z "},"ŧ":{"ha":460,"x_min":-21,"x_max":513,"o":"m 435 265 l 464 196 q 336 42 396 100 q 244 -17 276 -17 q 99 33 147 -17 q 61 171 50 82 l 88 318 l -6 318 l -21 332 l -10 413 l 104 411 l 122 515 l 110 526 l 35 526 l 31 533 l 42 625 l 142 640 q 149 694 144 667 q 156 744 153 722 q 161 794 160 769 l 394 843 l 414 826 q 400 768 407 799 q 385 709 393 742 q 371 640 378 676 l 503 640 l 513 631 l 496 526 l 365 528 l 347 517 l 328 413 l 449 417 l 469 396 l 463 319 l 311 319 l 299 250 q 324 208 294 208 q 355 222 338 208 q 404 271 372 235 l 435 265 z "},"ţ":{"ha":460,"x_min":31,"x_max":513,"o":"m 175 -8 q 83 53 113 7 q 61 171 53 99 l 122 515 l 110 526 l 35 526 l 31 533 l 42 625 l 142 640 q 149 694 144 667 q 156 744 153 722 q 161 794 160 769 l 394 843 l 414 826 q 400 768 407 799 q 385 709 393 742 q 371 640 378 676 l 503 640 l 513 631 l 496 526 l 365 528 l 347 517 l 299 250 q 324 208 294 208 q 355 222 338 208 q 404 271 372 235 l 435 265 l 464 196 q 352 58 406 113 q 264 -11 299 3 l 251 -51 q 294 -76 271 -61 q 337 -109 317 -90 q 371 -149 357 -128 q 385 -192 385 -169 q 367 -248 385 -221 q 319 -294 349 -275 q 248 -326 289 -314 q 161 -337 207 -337 q 122 -333 142 -337 q 85 -319 101 -328 q 58 -297 68 -310 q 47 -267 47 -283 q 56 -245 47 -258 q 77 -217 64 -232 q 105 -189 90 -203 q 132 -164 119 -175 l 143 -164 q 156 -222 140 -203 q 199 -242 171 -242 q 242 -208 242 -242 q 232 -187 242 -199 q 206 -164 222 -175 q 172 -142 190 -153 q 135 -121 153 -131 l 175 -8 z "},"u":{"ha":738,"x_min":43,"x_max":754,"o":"m 418 240 q 256 -12 328 38 q 103 26 157 -12 q 49 136 49 65 q 61 210 49 163 q 88 310 74 258 q 115 408 103 361 q 128 481 128 456 q 82 526 128 526 l 43 526 l 60 640 q 160 643 106 640 q 261 649 214 646 q 369 657 317 653 l 392 629 q 340 456 363 533 q 322 388 331 422 q 306 326 313 354 q 294 278 299 299 q 290 249 290 257 q 313 218 290 218 q 343 240 325 218 q 383 300 361 261 q 428 394 404 339 q 475 517 451 450 l 490 642 l 518 658 l 669 656 l 697 624 q 668 488 683 557 q 642 356 656 428 q 617 218 628 285 l 622 214 q 628 215 625 214 q 638 221 631 215 q 658 238 644 226 q 694 271 671 250 l 726 265 l 754 199 q 655 93 697 135 q 579 27 613 51 q 517 -7 546 3 q 460 -17 489 -17 q 389 50 389 -17 q 400 114 389 69 q 431 242 411 158 l 418 240 z "},"ú":{"ha":738,"x_min":43,"x_max":754,"o":"m 418 240 q 256 -12 328 38 q 103 26 157 -12 q 49 136 49 65 q 61 210 49 163 q 88 310 74 258 q 115 408 103 361 q 128 481 128 456 q 82 526 128 526 l 43 526 l 60 640 q 160 643 106 640 q 261 649 214 646 q 369 657 317 653 l 392 629 q 340 456 363 533 q 322 388 331 422 q 306 326 313 354 q 294 278 299 299 q 290 249 290 257 q 313 218 290 218 q 343 240 325 218 q 383 300 361 261 q 428 394 404 339 q 475 517 451 450 l 490 642 l 518 658 l 669 656 l 697 624 q 668 488 683 557 q 642 356 656 428 q 617 218 628 285 l 622 214 q 628 215 625 214 q 638 221 631 215 q 658 238 644 226 q 694 271 671 250 l 726 265 l 754 199 q 655 93 697 135 q 579 27 613 51 q 517 -7 546 3 q 460 -17 489 -17 q 389 50 389 -17 q 400 114 389 69 q 431 242 411 158 l 418 240 m 638 892 q 544 842 593 868 q 450 790 503 818 q 344 729 397 761 l 314 739 l 257 824 q 353 907 306 865 q 436 982 400 949 q 517 1056 479 1021 l 540 1056 l 640 915 l 638 892 z "},"û":{"ha":738,"x_min":43,"x_max":754,"o":"m 418 240 q 256 -12 328 38 q 103 26 157 -12 q 49 136 49 65 q 61 210 49 163 q 88 310 74 258 q 115 408 103 361 q 128 481 128 456 q 82 526 128 526 l 43 526 l 60 640 q 160 643 106 640 q 261 649 214 646 q 369 657 317 653 l 392 629 q 340 456 363 533 q 322 388 331 422 q 306 326 313 354 q 294 278 299 299 q 290 249 290 257 q 313 218 290 218 q 343 240 325 218 q 383 300 361 261 q 428 394 404 339 q 475 517 451 450 l 490 642 l 518 658 l 669 656 l 697 624 q 668 488 683 557 q 642 356 656 428 q 617 218 628 285 l 622 214 q 628 215 625 214 q 638 221 631 215 q 658 238 644 226 q 694 271 671 250 l 726 265 l 754 199 q 655 93 697 135 q 579 27 613 51 q 517 -7 546 3 q 460 -17 489 -17 q 389 50 389 -17 q 400 114 389 69 q 431 242 411 158 l 418 240 m 193 839 q 283 913 238 875 q 364 983 328 951 q 446 1056 407 1019 l 483 1056 q 547 983 513 1019 q 611 913 575 951 q 683 839 647 875 l 610 753 l 576 743 q 501 797 540 771 q 438 839 461 824 q 365 797 410 824 q 278 743 319 771 l 246 753 l 193 839 z "},"ü":{"ha":738,"x_min":43,"x_max":754,"o":"m 418 240 q 256 -12 328 38 q 103 26 157 -12 q 49 136 49 65 q 61 210 49 163 q 88 310 74 258 q 115 408 103 361 q 128 481 128 456 q 82 526 128 526 l 43 526 l 60 640 q 160 643 106 640 q 261 649 214 646 q 369 657 317 653 l 392 629 q 340 456 363 533 q 322 388 331 422 q 306 326 313 354 q 294 278 299 299 q 290 249 290 257 q 313 218 290 218 q 343 240 325 218 q 383 300 361 261 q 428 394 404 339 q 475 517 451 450 l 490 642 l 518 658 l 669 656 l 697 624 q 668 488 683 557 q 642 356 656 428 q 617 218 628 285 l 622 214 q 628 215 625 214 q 638 221 631 215 q 658 238 644 226 q 694 271 671 250 l 726 265 l 754 199 q 655 93 697 135 q 579 27 613 51 q 517 -7 546 3 q 460 -17 489 -17 q 389 50 389 -17 q 400 114 389 69 q 431 242 411 158 l 418 240 m 554 776 q 456 869 456 776 q 492 970 456 932 q 590 1008 529 1008 q 663 983 638 1008 q 688 914 688 958 q 651 814 688 851 q 554 776 614 776 m 292 776 q 194 869 194 776 q 231 970 194 932 q 329 1008 268 1008 q 401 983 376 1008 q 426 914 426 958 q 390 814 426 851 q 292 776 353 776 z "},"ù":{"ha":738,"x_min":43,"x_max":754,"o":"m 418 240 q 256 -12 328 38 q 103 26 157 -12 q 49 136 49 65 q 61 210 49 163 q 88 310 74 258 q 115 408 103 361 q 128 481 128 456 q 82 526 128 526 l 43 526 l 60 640 q 160 643 106 640 q 261 649 214 646 q 369 657 317 653 l 392 629 q 340 456 363 533 q 322 388 331 422 q 306 326 313 354 q 294 278 299 299 q 290 249 290 257 q 313 218 290 218 q 343 240 325 218 q 383 300 361 261 q 428 394 404 339 q 475 517 451 450 l 490 642 l 518 658 l 669 656 l 697 624 q 668 488 683 557 q 642 356 656 428 q 617 218 628 285 l 622 214 q 628 215 625 214 q 638 221 631 215 q 658 238 644 226 q 694 271 671 250 l 726 265 l 754 199 q 655 93 697 135 q 579 27 613 51 q 517 -7 546 3 q 460 -17 489 -17 q 389 50 389 -17 q 400 114 389 69 q 431 242 411 158 l 418 240 m 206 915 l 306 1056 l 329 1056 q 410 982 367 1021 q 493 907 446 949 q 589 824 540 865 l 532 739 l 501 729 q 395 790 447 761 q 301 842 343 818 q 208 892 253 868 l 206 915 z "},"ű":{"ha":738,"x_min":43,"x_max":754,"o":"m 418 240 q 256 -12 328 38 q 103 26 157 -12 q 49 136 49 65 q 61 210 49 163 q 88 310 74 258 q 115 408 103 361 q 128 481 128 456 q 82 526 128 526 l 43 526 l 60 640 q 160 643 106 640 q 261 649 214 646 q 369 657 317 653 l 392 629 q 340 456 363 533 q 322 388 331 422 q 306 326 313 354 q 294 278 299 299 q 290 249 290 257 q 313 218 290 218 q 343 240 325 218 q 383 300 361 261 q 428 394 404 339 q 475 517 451 450 l 490 642 l 518 658 l 669 656 l 697 624 q 668 488 683 557 q 642 356 656 428 q 617 218 628 285 l 622 214 q 628 215 625 214 q 638 221 631 215 q 658 238 644 226 q 694 271 671 250 l 726 265 l 754 199 q 655 93 697 135 q 579 27 613 51 q 517 -7 546 3 q 460 -17 489 -17 q 389 50 389 -17 q 400 114 389 69 q 431 242 411 158 l 418 240 m 507 940 q 444 876 478 911 q 382 810 417 847 q 311 733 347 774 l 285 733 l 217 786 q 272 878 244 833 q 321 960 300 924 q 367 1040 346 1001 l 386 1047 l 503 960 l 507 940 m 733 940 q 671 876 704 911 q 608 810 643 847 q 538 733 574 774 l 511 733 l 443 786 q 499 878 471 833 q 547 960 526 924 q 593 1040 572 1001 l 613 1047 l 729 960 l 733 940 z "},"ū":{"ha":738,"x_min":43,"x_max":754,"o":"m 418 240 q 256 -12 328 38 q 103 26 157 -12 q 49 136 49 65 q 61 210 49 163 q 88 310 74 258 q 115 408 103 361 q 128 481 128 456 q 82 526 128 526 l 43 526 l 60 640 q 160 643 106 640 q 261 649 214 646 q 369 657 317 653 l 392 629 q 340 456 363 533 q 322 388 331 422 q 306 326 313 354 q 294 278 299 299 q 290 249 290 257 q 313 218 290 218 q 343 240 325 218 q 383 300 361 261 q 428 394 404 339 q 475 517 451 450 l 490 642 l 518 658 l 669 656 l 697 624 q 668 488 683 557 q 642 356 656 428 q 617 218 628 285 l 622 214 q 628 215 625 214 q 638 221 631 215 q 658 238 644 226 q 694 271 671 250 l 726 265 l 754 199 q 655 93 697 135 q 579 27 613 51 q 517 -7 546 3 q 460 -17 489 -17 q 389 50 389 -17 q 400 114 389 69 q 431 242 411 158 l 418 240 m 658 938 l 614 786 l 425 785 q 363 784 394 785 q 306 783 332 783 l 246 783 l 226 804 l 271 956 q 344 954 308 954 l 478 954 q 533 955 503 954 q 588 958 563 956 q 646 963 617 960 l 658 938 z "},"ų":{"ha":738,"x_min":43,"x_max":754,"o":"m 708 -235 q 657 -275 682 -256 q 607 -308 633 -292 q 556 -335 581 -325 q 434 -305 476 -335 q 392 -224 392 -275 q 398 -176 392 -200 q 422 -125 404 -153 q 472 -62 440 -97 q 556 19 504 -28 q 460 -17 500 -17 q 389 50 389 -17 q 400 114 389 69 q 431 242 411 158 l 418 240 q 256 -12 328 38 q 103 26 157 -12 q 49 136 49 65 q 61 210 49 163 q 88 310 74 258 q 115 408 103 361 q 128 481 128 456 q 82 526 128 526 l 43 526 l 60 640 q 160 643 106 640 q 261 649 214 646 q 369 657 317 653 l 392 629 q 340 456 363 533 q 322 388 331 422 q 306 326 313 354 q 294 278 299 299 q 290 249 290 257 q 313 218 290 218 q 343 240 325 218 q 383 300 361 261 q 428 394 404 339 q 475 517 451 450 l 490 642 l 518 658 l 669 656 l 697 624 q 668 488 683 557 q 642 356 656 428 q 617 218 628 285 l 622 214 q 628 215 625 214 q 638 221 631 215 q 658 238 644 226 q 694 271 671 250 l 726 265 l 754 199 q 599 -29 657 58 q 542 -167 542 -117 q 554 -201 542 -187 q 588 -214 567 -214 q 618 -209 603 -214 q 647 -197 633 -204 q 679 -179 663 -190 l 708 -235 z "},"ů":{"ha":738,"x_min":43,"x_max":754,"o":"m 418 240 q 256 -12 328 38 q 103 26 157 -12 q 49 136 49 65 q 61 210 49 163 q 88 310 74 258 q 115 408 103 361 q 128 481 128 456 q 82 526 128 526 l 43 526 l 60 640 q 160 643 106 640 q 261 649 214 646 q 369 657 317 653 l 392 629 q 340 456 363 533 q 322 388 331 422 q 306 326 313 354 q 294 278 299 299 q 290 249 290 257 q 313 218 290 218 q 343 240 325 218 q 383 300 361 261 q 428 394 404 339 q 475 517 451 450 l 490 642 l 518 658 l 669 656 l 697 624 q 668 488 683 557 q 642 356 656 428 q 617 218 628 285 l 622 214 q 628 215 625 214 q 638 221 631 215 q 658 238 644 226 q 694 271 671 250 l 726 265 l 754 199 q 655 93 697 135 q 579 27 613 51 q 517 -7 546 3 q 460 -17 489 -17 q 389 50 389 -17 q 400 114 389 69 q 431 242 411 158 l 418 240 m 443 850 q 477 860 458 850 q 496 903 496 871 q 450 944 496 944 q 410 930 422 944 q 397 893 397 915 q 413 859 397 868 q 443 850 428 850 m 422 753 q 331 787 361 753 q 300 876 300 821 q 313 942 300 911 q 348 996 325 974 q 401 1031 371 1018 q 469 1044 432 1044 q 565 1008 538 1044 q 593 926 593 972 q 581 862 593 893 q 547 806 569 831 q 493 767 525 782 q 422 753 461 753 z "},"v":{"ha":669,"x_min":-1,"x_max":676,"o":"m 161 -17 l 136 11 q 126 138 132 71 q 112 268 119 204 q 96 390 104 332 q 79 489 88 447 q 67 522 75 513 q 43 531 58 531 q 28 530 36 531 q 14 529 21 529 l -1 529 l 7 639 q 101 647 51 643 q 194 654 150 651 q 296 661 244 658 l 311 649 q 319 551 315 604 q 324 440 322 499 q 328 322 326 382 q 329 201 329 261 l 353 201 q 415 374 396 310 q 435 472 435 438 q 416 530 435 504 q 363 568 397 556 l 378 635 l 639 672 q 667 615 657 651 q 676 535 676 579 q 610 327 676 456 q 401 0 544 199 l 161 -17 z "},"w":{"ha":1007,"x_min":-1,"x_max":1014,"o":"m 353 201 q 406 345 388 293 q 435 433 424 397 l 403 601 l 417 628 l 628 672 q 656 617 646 651 q 667 543 667 583 q 663 505 667 522 q 650 453 660 488 l 667 201 l 690 201 q 753 376 735 314 q 772 472 772 439 q 753 530 772 504 q 700 568 735 556 l 715 635 l 976 672 q 1003 613 993 651 q 1014 531 1014 574 q 947 325 1014 453 q 739 0 881 197 l 540 -17 l 515 11 l 499 199 l 483 199 q 438 99 464 154 q 388 0 411 44 l 161 -17 l 136 11 q 126 138 132 71 q 112 268 119 204 q 96 390 104 332 q 79 489 88 447 q 67 522 75 513 q 43 531 58 531 q 28 530 36 531 q 14 529 21 529 l -1 529 l 7 639 q 101 647 51 643 q 194 654 150 651 q 296 661 244 658 l 311 649 q 319 551 315 604 q 324 440 322 499 q 328 322 326 382 q 329 201 329 261 l 353 201 z "},"ẃ":{"ha":1007,"x_min":-1,"x_max":1014,"o":"m 353 201 q 406 345 388 293 q 435 433 424 397 l 403 601 l 417 628 l 628 672 q 656 617 646 651 q 667 543 667 583 q 663 505 667 522 q 650 453 660 488 l 667 201 l 690 201 q 753 376 735 314 q 772 472 772 439 q 753 530 772 504 q 700 568 735 556 l 715 635 l 976 672 q 1003 613 993 651 q 1014 531 1014 574 q 947 325 1014 453 q 739 0 881 197 l 540 -17 l 515 11 l 499 199 l 483 199 q 438 99 464 154 q 388 0 411 44 l 161 -17 l 136 11 q 126 138 132 71 q 112 268 119 204 q 96 390 104 332 q 79 489 88 447 q 67 522 75 513 q 43 531 58 531 q 28 530 36 531 q 14 529 21 529 l -1 529 l 7 639 q 101 647 51 643 q 194 654 150 651 q 296 661 244 658 l 311 649 q 319 551 315 604 q 324 440 322 499 q 328 322 326 382 q 329 201 329 261 l 353 201 m 753 892 q 660 842 708 868 q 565 790 618 818 q 460 729 513 761 l 429 739 l 372 824 q 468 907 421 865 q 551 982 515 949 q 632 1056 594 1021 l 656 1056 l 756 915 l 753 892 z "},"ŵ":{"ha":1007,"x_min":-1,"x_max":1014,"o":"m 353 201 q 406 345 388 293 q 435 433 424 397 l 403 601 l 417 628 l 628 672 q 656 617 646 651 q 667 543 667 583 q 663 505 667 522 q 650 453 660 488 l 667 201 l 690 201 q 753 376 735 314 q 772 472 772 439 q 753 530 772 504 q 700 568 735 556 l 715 635 l 976 672 q 1003 613 993 651 q 1014 531 1014 574 q 947 325 1014 453 q 739 0 881 197 l 540 -17 l 515 11 l 499 199 l 483 199 q 438 99 464 154 q 388 0 411 44 l 161 -17 l 136 11 q 126 138 132 71 q 112 268 119 204 q 96 390 104 332 q 79 489 88 447 q 67 522 75 513 q 43 531 58 531 q 28 530 36 531 q 14 529 21 529 l -1 529 l 7 639 q 101 647 51 643 q 194 654 150 651 q 296 661 244 658 l 311 649 q 319 551 315 604 q 324 440 322 499 q 328 322 326 382 q 329 201 329 261 l 353 201 m 322 839 q 412 913 367 875 q 493 983 457 951 q 575 1056 536 1019 l 613 1056 q 676 983 642 1019 q 740 913 704 951 q 813 839 776 875 l 739 753 l 706 743 q 630 797 669 771 q 567 839 590 824 q 494 797 539 824 q 407 743 449 771 l 375 753 l 322 839 z "},"ẅ":{"ha":1007,"x_min":-1,"x_max":1014,"o":"m 353 201 q 406 345 388 293 q 435 433 424 397 l 403 601 l 417 628 l 628 672 q 656 617 646 651 q 667 543 667 583 q 663 505 667 522 q 650 453 660 488 l 667 201 l 690 201 q 753 376 735 314 q 772 472 772 439 q 753 530 772 504 q 700 568 735 556 l 715 635 l 976 672 q 1003 613 993 651 q 1014 531 1014 574 q 947 325 1014 453 q 739 0 881 197 l 540 -17 l 515 11 l 499 199 l 483 199 q 438 99 464 154 q 388 0 411 44 l 161 -17 l 136 11 q 126 138 132 71 q 112 268 119 204 q 96 390 104 332 q 79 489 88 447 q 67 522 75 513 q 43 531 58 531 q 28 530 36 531 q 14 529 21 529 l -1 529 l 7 639 q 101 647 51 643 q 194 654 150 651 q 296 661 244 658 l 311 649 q 319 551 315 604 q 324 440 322 499 q 328 322 326 382 q 329 201 329 261 l 353 201 m 697 776 q 599 869 599 776 q 635 970 599 932 q 733 1008 672 1008 q 806 983 781 1008 q 831 914 831 958 q 794 814 831 851 q 697 776 757 776 m 435 776 q 338 869 338 776 q 374 970 338 932 q 472 1008 411 1008 q 544 983 519 1008 q 569 914 569 958 q 533 814 569 851 q 435 776 496 776 z "},"ẁ":{"ha":1007,"x_min":-1,"x_max":1014,"o":"m 353 201 q 406 345 388 293 q 435 433 424 397 l 403 601 l 417 628 l 628 672 q 656 617 646 651 q 667 543 667 583 q 663 505 667 522 q 650 453 660 488 l 667 201 l 690 201 q 753 376 735 314 q 772 472 772 439 q 753 530 772 504 q 700 568 735 556 l 715 635 l 976 672 q 1003 613 993 651 q 1014 531 1014 574 q 947 325 1014 453 q 739 0 881 197 l 540 -17 l 515 11 l 499 199 l 483 199 q 438 99 464 154 q 388 0 411 44 l 161 -17 l 136 11 q 126 138 132 71 q 112 268 119 204 q 96 390 104 332 q 79 489 88 447 q 67 522 75 513 q 43 531 58 531 q 28 530 36 531 q 14 529 21 529 l -1 529 l 7 639 q 101 647 51 643 q 194 654 150 651 q 296 661 244 658 l 311 649 q 319 551 315 604 q 324 440 322 499 q 328 322 326 382 q 329 201 329 261 l 353 201 m 321 915 l 421 1056 l 444 1056 q 525 982 482 1021 q 608 907 561 949 q 704 824 656 865 l 647 739 l 617 729 q 510 790 563 761 q 417 842 458 818 q 324 892 368 868 l 321 915 z "},"x":{"ha":697,"x_min":-35,"x_max":731,"o":"m 600 672 q 731 618 672 672 q 683 505 706 556 q 638 411 660 454 l 601 411 q 578 469 592 451 q 542 488 565 488 q 497 463 518 488 q 453 379 476 438 q 485 273 471 314 q 509 208 499 232 q 529 176 519 185 q 550 167 539 167 q 583 181 563 167 q 618 217 603 196 l 633 217 l 669 138 q 595 67 629 96 q 531 19 561 38 q 474 -8 501 0 q 419 -17 447 -17 q 372 -9 392 -17 q 335 18 351 -1 q 306 72 319 38 q 275 158 292 106 q 189 25 232 67 q 97 -17 146 -17 q -35 38 21 -17 q 58 244 3 140 l 94 244 q 154 168 111 168 q 242 276 199 168 q 209 383 222 342 q 185 447 196 424 q 165 480 175 471 q 146 489 156 489 q 113 474 133 489 q 78 439 93 460 l 63 439 l 26 518 q 164 637 107 601 q 276 672 221 672 q 322 665 303 672 q 358 638 342 657 q 388 584 374 618 q 419 497 403 550 q 506 631 463 589 q 600 672 550 672 z "},"y":{"ha":678,"x_min":-206,"x_max":685,"o":"m 386 635 l 647 672 q 675 615 665 651 q 685 535 685 579 q 617 323 685 453 q 410 0 550 193 q 282 -156 340 -92 q 172 -260 224 -221 q 70 -318 119 -300 q -31 -336 21 -336 q -90 -329 -61 -336 q -142 -310 -118 -322 q -183 -281 -167 -297 q -206 -246 -200 -264 q -192 -198 -201 -225 q -169 -144 -182 -171 q -141 -92 -156 -117 q -112 -50 -126 -67 l -76 -53 q -46 -138 -75 -104 q 28 -172 -17 -172 q 94 -150 60 -172 q 172 -78 128 -128 q 149 103 161 14 q 124 270 136 193 q 103 404 113 347 q 88 489 93 461 q 73 522 82 513 q 44 531 64 531 q 33 530 39 531 q 21 529 26 529 l 7 529 l 15 639 l 304 661 l 319 649 q 328 448 325 565 q 332 185 331 331 l 351 185 q 388 269 371 226 q 417 351 404 313 q 436 420 429 389 q 443 472 443 451 q 424 530 443 504 q 371 568 406 556 l 386 635 z "},"ý":{"ha":678,"x_min":-206,"x_max":685,"o":"m 386 635 l 647 672 q 675 615 665 651 q 685 535 685 579 q 617 323 685 453 q 410 0 550 193 q 282 -156 340 -92 q 172 -260 224 -221 q 70 -318 119 -300 q -31 -336 21 -336 q -90 -329 -61 -336 q -142 -310 -118 -322 q -183 -281 -167 -297 q -206 -246 -200 -264 q -192 -198 -201 -225 q -169 -144 -182 -171 q -141 -92 -156 -117 q -112 -50 -126 -67 l -76 -53 q -46 -138 -75 -104 q 28 -172 -17 -172 q 94 -150 60 -172 q 172 -78 128 -128 q 149 103 161 14 q 124 270 136 193 q 103 404 113 347 q 88 489 93 461 q 73 522 82 513 q 44 531 64 531 q 33 530 39 531 q 21 529 26 529 l 7 529 l 15 639 l 304 661 l 319 649 q 328 448 325 565 q 332 185 331 331 l 351 185 q 388 269 371 226 q 417 351 404 313 q 436 420 429 389 q 443 472 443 451 q 424 530 443 504 q 371 568 406 556 l 386 635 m 604 892 q 511 842 560 868 q 417 790 469 818 q 311 729 364 761 l 281 739 l 224 824 q 319 907 272 865 q 403 982 367 949 q 483 1056 446 1021 l 507 1056 l 607 915 l 604 892 z "}}}
